%TF.GenerationSoftware,KiCad,Pcbnew,(5.1.4)-1*%
%TF.CreationDate,2020-03-29T09:51:50+13:00*%
%TF.ProjectId,clock,636c6f63-6b2e-46b6-9963-61645f706362,rev?*%
%TF.SameCoordinates,Original*%
%TF.FileFunction,Copper,L1,Top*%
%TF.FilePolarity,Positive*%
%FSLAX46Y46*%
G04 Gerber Fmt 4.6, Leading zero omitted, Abs format (unit mm)*
G04 Created by KiCad (PCBNEW (5.1.4)-1) date 2020-03-29 09:51:50*
%MOMM*%
%LPD*%
G04 APERTURE LIST*
%ADD10C,0.050000*%
%ADD11C,0.100000*%
%ADD12C,1.600000*%
%ADD13C,0.500000*%
%ADD14C,0.590000*%
%ADD15R,1.700000X1.700000*%
%ADD16O,1.700000X1.700000*%
%ADD17C,0.875000*%
%ADD18R,1.300000X1.550000*%
%ADD19C,1.500000*%
%ADD20R,5.000000X0.400000*%
%ADD21C,0.800000*%
%ADD22C,1.200000*%
%ADD23C,1.000000*%
%ADD24C,0.250000*%
%ADD25C,0.500000*%
%ADD26C,1.000000*%
%ADD27C,0.240000*%
%ADD28C,0.254000*%
G04 APERTURE END LIST*
D10*
X103213900Y-66150000D02*
G75*
G02X103713900Y-65650000I500000J0D01*
G01*
X93713900Y-76150000D02*
G75*
G03X93213900Y-76650000I0J-500000D01*
G01*
X93713900Y-111150000D02*
G75*
G02X93213900Y-110650000I0J500000D01*
G01*
X103713900Y-120650000D02*
G75*
G02X103213900Y-120150000I0J500000D01*
G01*
X181213900Y-120150000D02*
G75*
G02X180713900Y-120650000I-500000J0D01*
G01*
X191213900Y-110650000D02*
G75*
G02X190713900Y-111150000I-500000J0D01*
G01*
X191213900Y-76650000D02*
G75*
G03X190713900Y-76150000I-500000J0D01*
G01*
X180713900Y-65650000D02*
G75*
G02X181213900Y-66150000I0J-500000D01*
G01*
X93713900Y-111150000D02*
X99213900Y-111150000D01*
X103213900Y-120150000D02*
X103213900Y-115150000D01*
X181213900Y-71150000D02*
G75*
G03X186213900Y-76150000I5000000J0D01*
G01*
X181213900Y-116150000D02*
G75*
G02X186213900Y-111150000I5000000J0D01*
G01*
X103213900Y-115150000D02*
G75*
G03X99213900Y-111150000I-4000000J0D01*
G01*
X103213900Y-72150000D02*
G75*
G02X99213900Y-76150000I-4000000J0D01*
G01*
X181213900Y-66150000D02*
X181213900Y-71150000D01*
X103713900Y-65650000D02*
X180713900Y-65650000D01*
X103213900Y-72150000D02*
X103213900Y-66150000D01*
X181213900Y-120150000D02*
X181213900Y-116150000D01*
X103713900Y-120650000D02*
X180713900Y-120650000D01*
X190713900Y-111150000D02*
X186213900Y-111150000D01*
X191213900Y-76650000D02*
X191213900Y-110650000D01*
X186213900Y-76150000D02*
X190713900Y-76150000D01*
X93213900Y-76650000D02*
X93213900Y-110650000D01*
X99213900Y-76150000D02*
X93713900Y-76150000D01*
D11*
G36*
X137038404Y-80501204D02*
G01*
X137062673Y-80504804D01*
X137086471Y-80510765D01*
X137109571Y-80519030D01*
X137131749Y-80529520D01*
X137152793Y-80542133D01*
X137172498Y-80556747D01*
X137190677Y-80573223D01*
X137207153Y-80591402D01*
X137221767Y-80611107D01*
X137234380Y-80632151D01*
X137244870Y-80654329D01*
X137253135Y-80677429D01*
X137259096Y-80701227D01*
X137262696Y-80725496D01*
X137263900Y-80750000D01*
X137263900Y-82050000D01*
X137262696Y-82074504D01*
X137259096Y-82098773D01*
X137253135Y-82122571D01*
X137244870Y-82145671D01*
X137234380Y-82167849D01*
X137221767Y-82188893D01*
X137207153Y-82208598D01*
X137190677Y-82226777D01*
X137172498Y-82243253D01*
X137152793Y-82257867D01*
X137131749Y-82270480D01*
X137109571Y-82280970D01*
X137086471Y-82289235D01*
X137062673Y-82295196D01*
X137038404Y-82298796D01*
X137013900Y-82300000D01*
X135913900Y-82300000D01*
X135889396Y-82298796D01*
X135865127Y-82295196D01*
X135841329Y-82289235D01*
X135818229Y-82280970D01*
X135796051Y-82270480D01*
X135775007Y-82257867D01*
X135755302Y-82243253D01*
X135737123Y-82226777D01*
X135720647Y-82208598D01*
X135706033Y-82188893D01*
X135693420Y-82167849D01*
X135682930Y-82145671D01*
X135674665Y-82122571D01*
X135668704Y-82098773D01*
X135665104Y-82074504D01*
X135663900Y-82050000D01*
X135663900Y-80750000D01*
X135665104Y-80725496D01*
X135668704Y-80701227D01*
X135674665Y-80677429D01*
X135682930Y-80654329D01*
X135693420Y-80632151D01*
X135706033Y-80611107D01*
X135720647Y-80591402D01*
X135737123Y-80573223D01*
X135755302Y-80556747D01*
X135775007Y-80542133D01*
X135796051Y-80529520D01*
X135818229Y-80519030D01*
X135841329Y-80510765D01*
X135865127Y-80504804D01*
X135889396Y-80501204D01*
X135913900Y-80500000D01*
X137013900Y-80500000D01*
X137038404Y-80501204D01*
X137038404Y-80501204D01*
G37*
D12*
X136463900Y-81400000D03*
D13*
X137013900Y-80750000D03*
X135913900Y-80750000D03*
X137013900Y-82050000D03*
X135913900Y-82050000D03*
D11*
G36*
X154640858Y-96330710D02*
G01*
X154655176Y-96332834D01*
X154669217Y-96336351D01*
X154682846Y-96341228D01*
X154695931Y-96347417D01*
X154708347Y-96354858D01*
X154719973Y-96363481D01*
X154730698Y-96373202D01*
X154740419Y-96383927D01*
X154749042Y-96395553D01*
X154756483Y-96407969D01*
X154762672Y-96421054D01*
X154767549Y-96434683D01*
X154771066Y-96448724D01*
X154773190Y-96463042D01*
X154773900Y-96477500D01*
X154773900Y-96822500D01*
X154773190Y-96836958D01*
X154771066Y-96851276D01*
X154767549Y-96865317D01*
X154762672Y-96878946D01*
X154756483Y-96892031D01*
X154749042Y-96904447D01*
X154740419Y-96916073D01*
X154730698Y-96926798D01*
X154719973Y-96936519D01*
X154708347Y-96945142D01*
X154695931Y-96952583D01*
X154682846Y-96958772D01*
X154669217Y-96963649D01*
X154655176Y-96967166D01*
X154640858Y-96969290D01*
X154626400Y-96970000D01*
X154331400Y-96970000D01*
X154316942Y-96969290D01*
X154302624Y-96967166D01*
X154288583Y-96963649D01*
X154274954Y-96958772D01*
X154261869Y-96952583D01*
X154249453Y-96945142D01*
X154237827Y-96936519D01*
X154227102Y-96926798D01*
X154217381Y-96916073D01*
X154208758Y-96904447D01*
X154201317Y-96892031D01*
X154195128Y-96878946D01*
X154190251Y-96865317D01*
X154186734Y-96851276D01*
X154184610Y-96836958D01*
X154183900Y-96822500D01*
X154183900Y-96477500D01*
X154184610Y-96463042D01*
X154186734Y-96448724D01*
X154190251Y-96434683D01*
X154195128Y-96421054D01*
X154201317Y-96407969D01*
X154208758Y-96395553D01*
X154217381Y-96383927D01*
X154227102Y-96373202D01*
X154237827Y-96363481D01*
X154249453Y-96354858D01*
X154261869Y-96347417D01*
X154274954Y-96341228D01*
X154288583Y-96336351D01*
X154302624Y-96332834D01*
X154316942Y-96330710D01*
X154331400Y-96330000D01*
X154626400Y-96330000D01*
X154640858Y-96330710D01*
X154640858Y-96330710D01*
G37*
D14*
X154478900Y-96650000D03*
D11*
G36*
X155610858Y-96330710D02*
G01*
X155625176Y-96332834D01*
X155639217Y-96336351D01*
X155652846Y-96341228D01*
X155665931Y-96347417D01*
X155678347Y-96354858D01*
X155689973Y-96363481D01*
X155700698Y-96373202D01*
X155710419Y-96383927D01*
X155719042Y-96395553D01*
X155726483Y-96407969D01*
X155732672Y-96421054D01*
X155737549Y-96434683D01*
X155741066Y-96448724D01*
X155743190Y-96463042D01*
X155743900Y-96477500D01*
X155743900Y-96822500D01*
X155743190Y-96836958D01*
X155741066Y-96851276D01*
X155737549Y-96865317D01*
X155732672Y-96878946D01*
X155726483Y-96892031D01*
X155719042Y-96904447D01*
X155710419Y-96916073D01*
X155700698Y-96926798D01*
X155689973Y-96936519D01*
X155678347Y-96945142D01*
X155665931Y-96952583D01*
X155652846Y-96958772D01*
X155639217Y-96963649D01*
X155625176Y-96967166D01*
X155610858Y-96969290D01*
X155596400Y-96970000D01*
X155301400Y-96970000D01*
X155286942Y-96969290D01*
X155272624Y-96967166D01*
X155258583Y-96963649D01*
X155244954Y-96958772D01*
X155231869Y-96952583D01*
X155219453Y-96945142D01*
X155207827Y-96936519D01*
X155197102Y-96926798D01*
X155187381Y-96916073D01*
X155178758Y-96904447D01*
X155171317Y-96892031D01*
X155165128Y-96878946D01*
X155160251Y-96865317D01*
X155156734Y-96851276D01*
X155154610Y-96836958D01*
X155153900Y-96822500D01*
X155153900Y-96477500D01*
X155154610Y-96463042D01*
X155156734Y-96448724D01*
X155160251Y-96434683D01*
X155165128Y-96421054D01*
X155171317Y-96407969D01*
X155178758Y-96395553D01*
X155187381Y-96383927D01*
X155197102Y-96373202D01*
X155207827Y-96363481D01*
X155219453Y-96354858D01*
X155231869Y-96347417D01*
X155244954Y-96341228D01*
X155258583Y-96336351D01*
X155272624Y-96332834D01*
X155286942Y-96330710D01*
X155301400Y-96330000D01*
X155596400Y-96330000D01*
X155610858Y-96330710D01*
X155610858Y-96330710D01*
G37*
D14*
X155448900Y-96650000D03*
D11*
G36*
X155610858Y-95330710D02*
G01*
X155625176Y-95332834D01*
X155639217Y-95336351D01*
X155652846Y-95341228D01*
X155665931Y-95347417D01*
X155678347Y-95354858D01*
X155689973Y-95363481D01*
X155700698Y-95373202D01*
X155710419Y-95383927D01*
X155719042Y-95395553D01*
X155726483Y-95407969D01*
X155732672Y-95421054D01*
X155737549Y-95434683D01*
X155741066Y-95448724D01*
X155743190Y-95463042D01*
X155743900Y-95477500D01*
X155743900Y-95822500D01*
X155743190Y-95836958D01*
X155741066Y-95851276D01*
X155737549Y-95865317D01*
X155732672Y-95878946D01*
X155726483Y-95892031D01*
X155719042Y-95904447D01*
X155710419Y-95916073D01*
X155700698Y-95926798D01*
X155689973Y-95936519D01*
X155678347Y-95945142D01*
X155665931Y-95952583D01*
X155652846Y-95958772D01*
X155639217Y-95963649D01*
X155625176Y-95967166D01*
X155610858Y-95969290D01*
X155596400Y-95970000D01*
X155301400Y-95970000D01*
X155286942Y-95969290D01*
X155272624Y-95967166D01*
X155258583Y-95963649D01*
X155244954Y-95958772D01*
X155231869Y-95952583D01*
X155219453Y-95945142D01*
X155207827Y-95936519D01*
X155197102Y-95926798D01*
X155187381Y-95916073D01*
X155178758Y-95904447D01*
X155171317Y-95892031D01*
X155165128Y-95878946D01*
X155160251Y-95865317D01*
X155156734Y-95851276D01*
X155154610Y-95836958D01*
X155153900Y-95822500D01*
X155153900Y-95477500D01*
X155154610Y-95463042D01*
X155156734Y-95448724D01*
X155160251Y-95434683D01*
X155165128Y-95421054D01*
X155171317Y-95407969D01*
X155178758Y-95395553D01*
X155187381Y-95383927D01*
X155197102Y-95373202D01*
X155207827Y-95363481D01*
X155219453Y-95354858D01*
X155231869Y-95347417D01*
X155244954Y-95341228D01*
X155258583Y-95336351D01*
X155272624Y-95332834D01*
X155286942Y-95330710D01*
X155301400Y-95330000D01*
X155596400Y-95330000D01*
X155610858Y-95330710D01*
X155610858Y-95330710D01*
G37*
D14*
X155448900Y-95650000D03*
D11*
G36*
X154640858Y-95330710D02*
G01*
X154655176Y-95332834D01*
X154669217Y-95336351D01*
X154682846Y-95341228D01*
X154695931Y-95347417D01*
X154708347Y-95354858D01*
X154719973Y-95363481D01*
X154730698Y-95373202D01*
X154740419Y-95383927D01*
X154749042Y-95395553D01*
X154756483Y-95407969D01*
X154762672Y-95421054D01*
X154767549Y-95434683D01*
X154771066Y-95448724D01*
X154773190Y-95463042D01*
X154773900Y-95477500D01*
X154773900Y-95822500D01*
X154773190Y-95836958D01*
X154771066Y-95851276D01*
X154767549Y-95865317D01*
X154762672Y-95878946D01*
X154756483Y-95892031D01*
X154749042Y-95904447D01*
X154740419Y-95916073D01*
X154730698Y-95926798D01*
X154719973Y-95936519D01*
X154708347Y-95945142D01*
X154695931Y-95952583D01*
X154682846Y-95958772D01*
X154669217Y-95963649D01*
X154655176Y-95967166D01*
X154640858Y-95969290D01*
X154626400Y-95970000D01*
X154331400Y-95970000D01*
X154316942Y-95969290D01*
X154302624Y-95967166D01*
X154288583Y-95963649D01*
X154274954Y-95958772D01*
X154261869Y-95952583D01*
X154249453Y-95945142D01*
X154237827Y-95936519D01*
X154227102Y-95926798D01*
X154217381Y-95916073D01*
X154208758Y-95904447D01*
X154201317Y-95892031D01*
X154195128Y-95878946D01*
X154190251Y-95865317D01*
X154186734Y-95851276D01*
X154184610Y-95836958D01*
X154183900Y-95822500D01*
X154183900Y-95477500D01*
X154184610Y-95463042D01*
X154186734Y-95448724D01*
X154190251Y-95434683D01*
X154195128Y-95421054D01*
X154201317Y-95407969D01*
X154208758Y-95395553D01*
X154217381Y-95383927D01*
X154227102Y-95373202D01*
X154237827Y-95363481D01*
X154249453Y-95354858D01*
X154261869Y-95347417D01*
X154274954Y-95341228D01*
X154288583Y-95336351D01*
X154302624Y-95332834D01*
X154316942Y-95330710D01*
X154331400Y-95330000D01*
X154626400Y-95330000D01*
X154640858Y-95330710D01*
X154640858Y-95330710D01*
G37*
D14*
X154478900Y-95650000D03*
D11*
G36*
X154640858Y-90580710D02*
G01*
X154655176Y-90582834D01*
X154669217Y-90586351D01*
X154682846Y-90591228D01*
X154695931Y-90597417D01*
X154708347Y-90604858D01*
X154719973Y-90613481D01*
X154730698Y-90623202D01*
X154740419Y-90633927D01*
X154749042Y-90645553D01*
X154756483Y-90657969D01*
X154762672Y-90671054D01*
X154767549Y-90684683D01*
X154771066Y-90698724D01*
X154773190Y-90713042D01*
X154773900Y-90727500D01*
X154773900Y-91072500D01*
X154773190Y-91086958D01*
X154771066Y-91101276D01*
X154767549Y-91115317D01*
X154762672Y-91128946D01*
X154756483Y-91142031D01*
X154749042Y-91154447D01*
X154740419Y-91166073D01*
X154730698Y-91176798D01*
X154719973Y-91186519D01*
X154708347Y-91195142D01*
X154695931Y-91202583D01*
X154682846Y-91208772D01*
X154669217Y-91213649D01*
X154655176Y-91217166D01*
X154640858Y-91219290D01*
X154626400Y-91220000D01*
X154331400Y-91220000D01*
X154316942Y-91219290D01*
X154302624Y-91217166D01*
X154288583Y-91213649D01*
X154274954Y-91208772D01*
X154261869Y-91202583D01*
X154249453Y-91195142D01*
X154237827Y-91186519D01*
X154227102Y-91176798D01*
X154217381Y-91166073D01*
X154208758Y-91154447D01*
X154201317Y-91142031D01*
X154195128Y-91128946D01*
X154190251Y-91115317D01*
X154186734Y-91101276D01*
X154184610Y-91086958D01*
X154183900Y-91072500D01*
X154183900Y-90727500D01*
X154184610Y-90713042D01*
X154186734Y-90698724D01*
X154190251Y-90684683D01*
X154195128Y-90671054D01*
X154201317Y-90657969D01*
X154208758Y-90645553D01*
X154217381Y-90633927D01*
X154227102Y-90623202D01*
X154237827Y-90613481D01*
X154249453Y-90604858D01*
X154261869Y-90597417D01*
X154274954Y-90591228D01*
X154288583Y-90586351D01*
X154302624Y-90582834D01*
X154316942Y-90580710D01*
X154331400Y-90580000D01*
X154626400Y-90580000D01*
X154640858Y-90580710D01*
X154640858Y-90580710D01*
G37*
D14*
X154478900Y-90900000D03*
D11*
G36*
X155610858Y-90580710D02*
G01*
X155625176Y-90582834D01*
X155639217Y-90586351D01*
X155652846Y-90591228D01*
X155665931Y-90597417D01*
X155678347Y-90604858D01*
X155689973Y-90613481D01*
X155700698Y-90623202D01*
X155710419Y-90633927D01*
X155719042Y-90645553D01*
X155726483Y-90657969D01*
X155732672Y-90671054D01*
X155737549Y-90684683D01*
X155741066Y-90698724D01*
X155743190Y-90713042D01*
X155743900Y-90727500D01*
X155743900Y-91072500D01*
X155743190Y-91086958D01*
X155741066Y-91101276D01*
X155737549Y-91115317D01*
X155732672Y-91128946D01*
X155726483Y-91142031D01*
X155719042Y-91154447D01*
X155710419Y-91166073D01*
X155700698Y-91176798D01*
X155689973Y-91186519D01*
X155678347Y-91195142D01*
X155665931Y-91202583D01*
X155652846Y-91208772D01*
X155639217Y-91213649D01*
X155625176Y-91217166D01*
X155610858Y-91219290D01*
X155596400Y-91220000D01*
X155301400Y-91220000D01*
X155286942Y-91219290D01*
X155272624Y-91217166D01*
X155258583Y-91213649D01*
X155244954Y-91208772D01*
X155231869Y-91202583D01*
X155219453Y-91195142D01*
X155207827Y-91186519D01*
X155197102Y-91176798D01*
X155187381Y-91166073D01*
X155178758Y-91154447D01*
X155171317Y-91142031D01*
X155165128Y-91128946D01*
X155160251Y-91115317D01*
X155156734Y-91101276D01*
X155154610Y-91086958D01*
X155153900Y-91072500D01*
X155153900Y-90727500D01*
X155154610Y-90713042D01*
X155156734Y-90698724D01*
X155160251Y-90684683D01*
X155165128Y-90671054D01*
X155171317Y-90657969D01*
X155178758Y-90645553D01*
X155187381Y-90633927D01*
X155197102Y-90623202D01*
X155207827Y-90613481D01*
X155219453Y-90604858D01*
X155231869Y-90597417D01*
X155244954Y-90591228D01*
X155258583Y-90586351D01*
X155272624Y-90582834D01*
X155286942Y-90580710D01*
X155301400Y-90580000D01*
X155596400Y-90580000D01*
X155610858Y-90580710D01*
X155610858Y-90580710D01*
G37*
D14*
X155448900Y-90900000D03*
D15*
X132214000Y-73540500D03*
D16*
X132214000Y-71000500D03*
X129674000Y-73540500D03*
X129674000Y-71000500D03*
X127134000Y-73540500D03*
X127134000Y-71000500D03*
X124594000Y-73540500D03*
X124594000Y-71000500D03*
X122054000Y-73540500D03*
X122054000Y-71000500D03*
D15*
X140214000Y-74150000D03*
D16*
X140214000Y-71610000D03*
D11*
G36*
X166791591Y-98701053D02*
G01*
X166812826Y-98704203D01*
X166833650Y-98709419D01*
X166853862Y-98716651D01*
X166873268Y-98725830D01*
X166891681Y-98736866D01*
X166908924Y-98749654D01*
X166924830Y-98764070D01*
X166939246Y-98779976D01*
X166952034Y-98797219D01*
X166963070Y-98815632D01*
X166972249Y-98835038D01*
X166979481Y-98855250D01*
X166984697Y-98876074D01*
X166987847Y-98897309D01*
X166988900Y-98918750D01*
X166988900Y-99356250D01*
X166987847Y-99377691D01*
X166984697Y-99398926D01*
X166979481Y-99419750D01*
X166972249Y-99439962D01*
X166963070Y-99459368D01*
X166952034Y-99477781D01*
X166939246Y-99495024D01*
X166924830Y-99510930D01*
X166908924Y-99525346D01*
X166891681Y-99538134D01*
X166873268Y-99549170D01*
X166853862Y-99558349D01*
X166833650Y-99565581D01*
X166812826Y-99570797D01*
X166791591Y-99573947D01*
X166770150Y-99575000D01*
X166257650Y-99575000D01*
X166236209Y-99573947D01*
X166214974Y-99570797D01*
X166194150Y-99565581D01*
X166173938Y-99558349D01*
X166154532Y-99549170D01*
X166136119Y-99538134D01*
X166118876Y-99525346D01*
X166102970Y-99510930D01*
X166088554Y-99495024D01*
X166075766Y-99477781D01*
X166064730Y-99459368D01*
X166055551Y-99439962D01*
X166048319Y-99419750D01*
X166043103Y-99398926D01*
X166039953Y-99377691D01*
X166038900Y-99356250D01*
X166038900Y-98918750D01*
X166039953Y-98897309D01*
X166043103Y-98876074D01*
X166048319Y-98855250D01*
X166055551Y-98835038D01*
X166064730Y-98815632D01*
X166075766Y-98797219D01*
X166088554Y-98779976D01*
X166102970Y-98764070D01*
X166118876Y-98749654D01*
X166136119Y-98736866D01*
X166154532Y-98725830D01*
X166173938Y-98716651D01*
X166194150Y-98709419D01*
X166214974Y-98704203D01*
X166236209Y-98701053D01*
X166257650Y-98700000D01*
X166770150Y-98700000D01*
X166791591Y-98701053D01*
X166791591Y-98701053D01*
G37*
D17*
X166513900Y-99137500D03*
D11*
G36*
X166791591Y-97126053D02*
G01*
X166812826Y-97129203D01*
X166833650Y-97134419D01*
X166853862Y-97141651D01*
X166873268Y-97150830D01*
X166891681Y-97161866D01*
X166908924Y-97174654D01*
X166924830Y-97189070D01*
X166939246Y-97204976D01*
X166952034Y-97222219D01*
X166963070Y-97240632D01*
X166972249Y-97260038D01*
X166979481Y-97280250D01*
X166984697Y-97301074D01*
X166987847Y-97322309D01*
X166988900Y-97343750D01*
X166988900Y-97781250D01*
X166987847Y-97802691D01*
X166984697Y-97823926D01*
X166979481Y-97844750D01*
X166972249Y-97864962D01*
X166963070Y-97884368D01*
X166952034Y-97902781D01*
X166939246Y-97920024D01*
X166924830Y-97935930D01*
X166908924Y-97950346D01*
X166891681Y-97963134D01*
X166873268Y-97974170D01*
X166853862Y-97983349D01*
X166833650Y-97990581D01*
X166812826Y-97995797D01*
X166791591Y-97998947D01*
X166770150Y-98000000D01*
X166257650Y-98000000D01*
X166236209Y-97998947D01*
X166214974Y-97995797D01*
X166194150Y-97990581D01*
X166173938Y-97983349D01*
X166154532Y-97974170D01*
X166136119Y-97963134D01*
X166118876Y-97950346D01*
X166102970Y-97935930D01*
X166088554Y-97920024D01*
X166075766Y-97902781D01*
X166064730Y-97884368D01*
X166055551Y-97864962D01*
X166048319Y-97844750D01*
X166043103Y-97823926D01*
X166039953Y-97802691D01*
X166038900Y-97781250D01*
X166038900Y-97343750D01*
X166039953Y-97322309D01*
X166043103Y-97301074D01*
X166048319Y-97280250D01*
X166055551Y-97260038D01*
X166064730Y-97240632D01*
X166075766Y-97222219D01*
X166088554Y-97204976D01*
X166102970Y-97189070D01*
X166118876Y-97174654D01*
X166136119Y-97161866D01*
X166154532Y-97150830D01*
X166173938Y-97141651D01*
X166194150Y-97134419D01*
X166214974Y-97129203D01*
X166236209Y-97126053D01*
X166257650Y-97125000D01*
X166770150Y-97125000D01*
X166791591Y-97126053D01*
X166791591Y-97126053D01*
G37*
D17*
X166513900Y-97562500D03*
D11*
G36*
X166791591Y-108126053D02*
G01*
X166812826Y-108129203D01*
X166833650Y-108134419D01*
X166853862Y-108141651D01*
X166873268Y-108150830D01*
X166891681Y-108161866D01*
X166908924Y-108174654D01*
X166924830Y-108189070D01*
X166939246Y-108204976D01*
X166952034Y-108222219D01*
X166963070Y-108240632D01*
X166972249Y-108260038D01*
X166979481Y-108280250D01*
X166984697Y-108301074D01*
X166987847Y-108322309D01*
X166988900Y-108343750D01*
X166988900Y-108781250D01*
X166987847Y-108802691D01*
X166984697Y-108823926D01*
X166979481Y-108844750D01*
X166972249Y-108864962D01*
X166963070Y-108884368D01*
X166952034Y-108902781D01*
X166939246Y-108920024D01*
X166924830Y-108935930D01*
X166908924Y-108950346D01*
X166891681Y-108963134D01*
X166873268Y-108974170D01*
X166853862Y-108983349D01*
X166833650Y-108990581D01*
X166812826Y-108995797D01*
X166791591Y-108998947D01*
X166770150Y-109000000D01*
X166257650Y-109000000D01*
X166236209Y-108998947D01*
X166214974Y-108995797D01*
X166194150Y-108990581D01*
X166173938Y-108983349D01*
X166154532Y-108974170D01*
X166136119Y-108963134D01*
X166118876Y-108950346D01*
X166102970Y-108935930D01*
X166088554Y-108920024D01*
X166075766Y-108902781D01*
X166064730Y-108884368D01*
X166055551Y-108864962D01*
X166048319Y-108844750D01*
X166043103Y-108823926D01*
X166039953Y-108802691D01*
X166038900Y-108781250D01*
X166038900Y-108343750D01*
X166039953Y-108322309D01*
X166043103Y-108301074D01*
X166048319Y-108280250D01*
X166055551Y-108260038D01*
X166064730Y-108240632D01*
X166075766Y-108222219D01*
X166088554Y-108204976D01*
X166102970Y-108189070D01*
X166118876Y-108174654D01*
X166136119Y-108161866D01*
X166154532Y-108150830D01*
X166173938Y-108141651D01*
X166194150Y-108134419D01*
X166214974Y-108129203D01*
X166236209Y-108126053D01*
X166257650Y-108125000D01*
X166770150Y-108125000D01*
X166791591Y-108126053D01*
X166791591Y-108126053D01*
G37*
D17*
X166513900Y-108562500D03*
D11*
G36*
X166791591Y-109701053D02*
G01*
X166812826Y-109704203D01*
X166833650Y-109709419D01*
X166853862Y-109716651D01*
X166873268Y-109725830D01*
X166891681Y-109736866D01*
X166908924Y-109749654D01*
X166924830Y-109764070D01*
X166939246Y-109779976D01*
X166952034Y-109797219D01*
X166963070Y-109815632D01*
X166972249Y-109835038D01*
X166979481Y-109855250D01*
X166984697Y-109876074D01*
X166987847Y-109897309D01*
X166988900Y-109918750D01*
X166988900Y-110356250D01*
X166987847Y-110377691D01*
X166984697Y-110398926D01*
X166979481Y-110419750D01*
X166972249Y-110439962D01*
X166963070Y-110459368D01*
X166952034Y-110477781D01*
X166939246Y-110495024D01*
X166924830Y-110510930D01*
X166908924Y-110525346D01*
X166891681Y-110538134D01*
X166873268Y-110549170D01*
X166853862Y-110558349D01*
X166833650Y-110565581D01*
X166812826Y-110570797D01*
X166791591Y-110573947D01*
X166770150Y-110575000D01*
X166257650Y-110575000D01*
X166236209Y-110573947D01*
X166214974Y-110570797D01*
X166194150Y-110565581D01*
X166173938Y-110558349D01*
X166154532Y-110549170D01*
X166136119Y-110538134D01*
X166118876Y-110525346D01*
X166102970Y-110510930D01*
X166088554Y-110495024D01*
X166075766Y-110477781D01*
X166064730Y-110459368D01*
X166055551Y-110439962D01*
X166048319Y-110419750D01*
X166043103Y-110398926D01*
X166039953Y-110377691D01*
X166038900Y-110356250D01*
X166038900Y-109918750D01*
X166039953Y-109897309D01*
X166043103Y-109876074D01*
X166048319Y-109855250D01*
X166055551Y-109835038D01*
X166064730Y-109815632D01*
X166075766Y-109797219D01*
X166088554Y-109779976D01*
X166102970Y-109764070D01*
X166118876Y-109749654D01*
X166136119Y-109736866D01*
X166154532Y-109725830D01*
X166173938Y-109716651D01*
X166194150Y-109709419D01*
X166214974Y-109704203D01*
X166236209Y-109701053D01*
X166257650Y-109700000D01*
X166770150Y-109700000D01*
X166791591Y-109701053D01*
X166791591Y-109701053D01*
G37*
D17*
X166513900Y-110137500D03*
D11*
G36*
X166791591Y-88101053D02*
G01*
X166812826Y-88104203D01*
X166833650Y-88109419D01*
X166853862Y-88116651D01*
X166873268Y-88125830D01*
X166891681Y-88136866D01*
X166908924Y-88149654D01*
X166924830Y-88164070D01*
X166939246Y-88179976D01*
X166952034Y-88197219D01*
X166963070Y-88215632D01*
X166972249Y-88235038D01*
X166979481Y-88255250D01*
X166984697Y-88276074D01*
X166987847Y-88297309D01*
X166988900Y-88318750D01*
X166988900Y-88756250D01*
X166987847Y-88777691D01*
X166984697Y-88798926D01*
X166979481Y-88819750D01*
X166972249Y-88839962D01*
X166963070Y-88859368D01*
X166952034Y-88877781D01*
X166939246Y-88895024D01*
X166924830Y-88910930D01*
X166908924Y-88925346D01*
X166891681Y-88938134D01*
X166873268Y-88949170D01*
X166853862Y-88958349D01*
X166833650Y-88965581D01*
X166812826Y-88970797D01*
X166791591Y-88973947D01*
X166770150Y-88975000D01*
X166257650Y-88975000D01*
X166236209Y-88973947D01*
X166214974Y-88970797D01*
X166194150Y-88965581D01*
X166173938Y-88958349D01*
X166154532Y-88949170D01*
X166136119Y-88938134D01*
X166118876Y-88925346D01*
X166102970Y-88910930D01*
X166088554Y-88895024D01*
X166075766Y-88877781D01*
X166064730Y-88859368D01*
X166055551Y-88839962D01*
X166048319Y-88819750D01*
X166043103Y-88798926D01*
X166039953Y-88777691D01*
X166038900Y-88756250D01*
X166038900Y-88318750D01*
X166039953Y-88297309D01*
X166043103Y-88276074D01*
X166048319Y-88255250D01*
X166055551Y-88235038D01*
X166064730Y-88215632D01*
X166075766Y-88197219D01*
X166088554Y-88179976D01*
X166102970Y-88164070D01*
X166118876Y-88149654D01*
X166136119Y-88136866D01*
X166154532Y-88125830D01*
X166173938Y-88116651D01*
X166194150Y-88109419D01*
X166214974Y-88104203D01*
X166236209Y-88101053D01*
X166257650Y-88100000D01*
X166770150Y-88100000D01*
X166791591Y-88101053D01*
X166791591Y-88101053D01*
G37*
D17*
X166513900Y-88537500D03*
D11*
G36*
X166791591Y-86526053D02*
G01*
X166812826Y-86529203D01*
X166833650Y-86534419D01*
X166853862Y-86541651D01*
X166873268Y-86550830D01*
X166891681Y-86561866D01*
X166908924Y-86574654D01*
X166924830Y-86589070D01*
X166939246Y-86604976D01*
X166952034Y-86622219D01*
X166963070Y-86640632D01*
X166972249Y-86660038D01*
X166979481Y-86680250D01*
X166984697Y-86701074D01*
X166987847Y-86722309D01*
X166988900Y-86743750D01*
X166988900Y-87181250D01*
X166987847Y-87202691D01*
X166984697Y-87223926D01*
X166979481Y-87244750D01*
X166972249Y-87264962D01*
X166963070Y-87284368D01*
X166952034Y-87302781D01*
X166939246Y-87320024D01*
X166924830Y-87335930D01*
X166908924Y-87350346D01*
X166891681Y-87363134D01*
X166873268Y-87374170D01*
X166853862Y-87383349D01*
X166833650Y-87390581D01*
X166812826Y-87395797D01*
X166791591Y-87398947D01*
X166770150Y-87400000D01*
X166257650Y-87400000D01*
X166236209Y-87398947D01*
X166214974Y-87395797D01*
X166194150Y-87390581D01*
X166173938Y-87383349D01*
X166154532Y-87374170D01*
X166136119Y-87363134D01*
X166118876Y-87350346D01*
X166102970Y-87335930D01*
X166088554Y-87320024D01*
X166075766Y-87302781D01*
X166064730Y-87284368D01*
X166055551Y-87264962D01*
X166048319Y-87244750D01*
X166043103Y-87223926D01*
X166039953Y-87202691D01*
X166038900Y-87181250D01*
X166038900Y-86743750D01*
X166039953Y-86722309D01*
X166043103Y-86701074D01*
X166048319Y-86680250D01*
X166055551Y-86660038D01*
X166064730Y-86640632D01*
X166075766Y-86622219D01*
X166088554Y-86604976D01*
X166102970Y-86589070D01*
X166118876Y-86574654D01*
X166136119Y-86561866D01*
X166154532Y-86550830D01*
X166173938Y-86541651D01*
X166194150Y-86534419D01*
X166214974Y-86529203D01*
X166236209Y-86526053D01*
X166257650Y-86525000D01*
X166770150Y-86525000D01*
X166791591Y-86526053D01*
X166791591Y-86526053D01*
G37*
D17*
X166513900Y-86962500D03*
D18*
X173213900Y-97524696D03*
X168713900Y-97524696D03*
X168713900Y-89574696D03*
X173213900Y-89574696D03*
X173213900Y-100574696D03*
X168713900Y-100574696D03*
X168713900Y-108524696D03*
X173213900Y-108524696D03*
X173213900Y-86875000D03*
X168713900Y-86875000D03*
X168713900Y-78925000D03*
X173213900Y-78925000D03*
D19*
X107963900Y-95900000D03*
X107963900Y-91020000D03*
D20*
X143013900Y-88450000D03*
X143013900Y-89250000D03*
X143013900Y-90050000D03*
X143013900Y-90850000D03*
X143013900Y-91650000D03*
X143013900Y-92450000D03*
X143013900Y-93250000D03*
X143013900Y-94050000D03*
X143013900Y-94850000D03*
X143013900Y-95650000D03*
X143013900Y-96450000D03*
X143013900Y-97250000D03*
X143013900Y-98050000D03*
X143013900Y-98850000D03*
D21*
X116413900Y-105650000D03*
X116413900Y-108250000D03*
X121813900Y-87750000D03*
X126913900Y-95650000D03*
X118713900Y-100150000D03*
X112013900Y-91350000D03*
D22*
X119353900Y-94940000D03*
X121131900Y-91638000D03*
X129513900Y-90368000D03*
X156437900Y-100020000D03*
X146785900Y-107132000D03*
X156691900Y-70810000D03*
X170661900Y-83256000D03*
D21*
X115670900Y-82938500D03*
X121385900Y-81478000D03*
X112495900Y-98242000D03*
D22*
X106145900Y-86812000D03*
X143737900Y-77414000D03*
X126211900Y-79954000D03*
X152627900Y-88844000D03*
X149833900Y-85542000D03*
X166007900Y-103150000D03*
X138911900Y-99512000D03*
X146595400Y-91955500D03*
X146595400Y-89225000D03*
D21*
X161009900Y-106751000D03*
D22*
X179234400Y-67571500D03*
X189521400Y-109037000D03*
X105002900Y-118625500D03*
X95223900Y-109227500D03*
X95033400Y-77985500D03*
X105256900Y-67571500D03*
D21*
X114019900Y-80906500D03*
D22*
X135913900Y-77950000D03*
X135613900Y-70350000D03*
X116413900Y-74350000D03*
X136413900Y-96450000D03*
D21*
X123413900Y-102550000D03*
X123913900Y-99250000D03*
X125313900Y-87150000D03*
X125313900Y-97450000D03*
D22*
X171413900Y-78850000D03*
X171613900Y-100150000D03*
D23*
X154478900Y-94635000D03*
D22*
X118655400Y-79446000D03*
D21*
X122413900Y-96450000D03*
X117513900Y-92450000D03*
X123513900Y-89250000D03*
D22*
X118655400Y-74112000D03*
D21*
X132942900Y-97480000D03*
X134403400Y-95511500D03*
X135609900Y-91828500D03*
X170113900Y-89550000D03*
X169013900Y-99150000D03*
X158213900Y-97350000D03*
X160013900Y-95550000D03*
X165213900Y-86950000D03*
X139313900Y-92450000D03*
X138613900Y-93250000D03*
X139313900Y-94050000D03*
X138613900Y-94850000D03*
X118213900Y-87764500D03*
X120433400Y-87320000D03*
X139313900Y-97250000D03*
D23*
X121963900Y-78900000D03*
D21*
X122713900Y-80900000D03*
D24*
X116413900Y-107684315D02*
X116413900Y-105650000D01*
X116413900Y-108250000D02*
X116413900Y-107684315D01*
D25*
X155448900Y-95650000D02*
X155448900Y-96650000D01*
D24*
X146289900Y-91650000D02*
X146595400Y-91955500D01*
X143013900Y-91650000D02*
X146289900Y-91650000D01*
X138911900Y-99402000D02*
X138911900Y-99512000D01*
X140263900Y-98050000D02*
X138911900Y-99402000D01*
X143013900Y-98050000D02*
X140263900Y-98050000D01*
X146570400Y-89250000D02*
X146595400Y-89225000D01*
X143013900Y-89250000D02*
X146570400Y-89250000D01*
X135913900Y-80850000D02*
X136463900Y-81400000D01*
X135913900Y-77950000D02*
X135913900Y-80850000D01*
D25*
X154478900Y-90900000D02*
X143163900Y-90900000D01*
X154478900Y-95650000D02*
X143113900Y-95650000D01*
X146113900Y-96450000D02*
X143113900Y-96450000D01*
X153883900Y-96450000D02*
X146113900Y-96450000D01*
X154083900Y-96650000D02*
X153883900Y-96450000D01*
X154478900Y-96650000D02*
X154083900Y-96650000D01*
X154478900Y-90900000D02*
X154478900Y-94635000D01*
X154478900Y-95650000D02*
X154478900Y-96650000D01*
X154478900Y-94635000D02*
X154478900Y-95650000D01*
D24*
X172789204Y-100150000D02*
X173213900Y-100574696D01*
X171613900Y-100150000D02*
X172789204Y-100150000D01*
D26*
X173138900Y-78850000D02*
X173213900Y-78925000D01*
X171413900Y-78850000D02*
X173138900Y-78850000D01*
X173213900Y-108150000D02*
X173213900Y-108524696D01*
X175113900Y-106250000D02*
X173213900Y-108150000D01*
X173213900Y-78925000D02*
X173488900Y-78925000D01*
X173488900Y-78925000D02*
X175113900Y-80550000D01*
X174988900Y-86750000D02*
X175113900Y-86750000D01*
X174863900Y-86875000D02*
X174988900Y-86750000D01*
X173213900Y-86875000D02*
X174863900Y-86875000D01*
X175113900Y-80550000D02*
X175113900Y-86750000D01*
X174939204Y-89650000D02*
X175113900Y-89650000D01*
X174863900Y-89574696D02*
X174939204Y-89650000D01*
X173213900Y-89574696D02*
X174863900Y-89574696D01*
X175113900Y-86750000D02*
X175113900Y-89650000D01*
X174938596Y-97450000D02*
X175113900Y-97450000D01*
X174863900Y-97524696D02*
X174938596Y-97450000D01*
X173213900Y-97524696D02*
X174863900Y-97524696D01*
X175113900Y-89650000D02*
X175113900Y-97450000D01*
X175113900Y-100824696D02*
X175113900Y-100850000D01*
X174863900Y-100574696D02*
X175113900Y-100824696D01*
X173213900Y-100574696D02*
X174863900Y-100574696D01*
X175113900Y-97450000D02*
X175113900Y-100850000D01*
X175113900Y-100850000D02*
X175113900Y-106250000D01*
X118655400Y-74106000D02*
X118655400Y-79446000D01*
D25*
X124313900Y-96450000D02*
X122413900Y-96450000D01*
X125313900Y-97450000D02*
X124313900Y-96450000D01*
X120713900Y-89250000D02*
X117513900Y-92450000D01*
X123513900Y-89250000D02*
X120713900Y-89250000D01*
D27*
X134403400Y-96019500D02*
X134403400Y-95511500D01*
X132942900Y-97480000D02*
X134403400Y-96019500D01*
X137388400Y-90050000D02*
X143013900Y-90050000D01*
X135609900Y-91828500D02*
X137388400Y-90050000D01*
D24*
X168713900Y-90599696D02*
X168713900Y-97524696D01*
X168713900Y-89574696D02*
X168713900Y-90599696D01*
X166551704Y-97524696D02*
X166513900Y-97562500D01*
X168713900Y-97524696D02*
X166551704Y-97524696D01*
X170089204Y-89574696D02*
X170113900Y-89550000D01*
X168713900Y-89574696D02*
X170089204Y-89574696D01*
X168713900Y-100574696D02*
X168713900Y-108524696D01*
X166551704Y-108524696D02*
X166513900Y-108562500D01*
X168713900Y-108524696D02*
X166551704Y-108524696D01*
X168713900Y-100574696D02*
X168989204Y-100574696D01*
X169013900Y-100274696D02*
X168713900Y-100574696D01*
X169013900Y-99150000D02*
X169013900Y-100274696D01*
X168713900Y-78925000D02*
X168713900Y-86875000D01*
X168626400Y-86962500D02*
X168713900Y-86875000D01*
X166513900Y-86962500D02*
X168626400Y-86962500D01*
X158213900Y-97350000D02*
X158613899Y-96950001D01*
X158613899Y-96950001D02*
X160113900Y-95450000D01*
X160113900Y-95450000D02*
X160113900Y-95450000D01*
X166501400Y-86950000D02*
X166513900Y-86962500D01*
X165213900Y-86950000D02*
X166501400Y-86950000D01*
X139313900Y-92450000D02*
X143013900Y-92450000D01*
X139179585Y-93250000D02*
X143013900Y-93250000D01*
X138613900Y-93250000D02*
X139179585Y-93250000D01*
X139313900Y-94050000D02*
X143013900Y-94050000D01*
X139179585Y-94850000D02*
X143013900Y-94850000D01*
X138613900Y-94850000D02*
X139179585Y-94850000D01*
X119988900Y-87764500D02*
X120433400Y-87320000D01*
X118213900Y-87764500D02*
X119988900Y-87764500D01*
X139313900Y-97250000D02*
X143013900Y-97250000D01*
X122713900Y-79650000D02*
X121963900Y-78900000D01*
X122713900Y-80900000D02*
X122713900Y-79650000D01*
D28*
G36*
X180553901Y-71182419D02*
G01*
X180556268Y-71206448D01*
X180609310Y-71928752D01*
X180611829Y-71944132D01*
X180612318Y-71959705D01*
X180625774Y-72034489D01*
X180833294Y-72898871D01*
X180839918Y-72918552D01*
X180844235Y-72938864D01*
X180870721Y-73010083D01*
X181228030Y-73824054D01*
X181238032Y-73842248D01*
X181245879Y-73861476D01*
X181284551Y-73926866D01*
X181284559Y-73926880D01*
X181284563Y-73926885D01*
X181780362Y-74664713D01*
X181793430Y-74680851D01*
X181804557Y-74698384D01*
X181854207Y-74755905D01*
X182472834Y-75394278D01*
X182488552Y-75407846D01*
X182502608Y-75423131D01*
X182561660Y-75470950D01*
X183283556Y-75989685D01*
X183301426Y-76000253D01*
X183317969Y-76012810D01*
X183384556Y-76049416D01*
X184186902Y-76432116D01*
X184206364Y-76439354D01*
X184224868Y-76448782D01*
X184296884Y-76473018D01*
X185154319Y-76707586D01*
X185174758Y-76711264D01*
X185194636Y-76717265D01*
X185269800Y-76728364D01*
X185269805Y-76728365D01*
X185269806Y-76728365D01*
X186152260Y-76807122D01*
X186181481Y-76810000D01*
X190553900Y-76810000D01*
X190553901Y-110490000D01*
X186181481Y-110490000D01*
X186157412Y-110492371D01*
X185435148Y-110545410D01*
X185419768Y-110547929D01*
X185404195Y-110548418D01*
X185329411Y-110561874D01*
X184465029Y-110769394D01*
X184445348Y-110776018D01*
X184425036Y-110780335D01*
X184353817Y-110806821D01*
X183539846Y-111164130D01*
X183521652Y-111174132D01*
X183502424Y-111181979D01*
X183437034Y-111220651D01*
X183437020Y-111220659D01*
X183437015Y-111220663D01*
X182699187Y-111716462D01*
X182683049Y-111729530D01*
X182665516Y-111740657D01*
X182607995Y-111790307D01*
X181969622Y-112408934D01*
X181956054Y-112424652D01*
X181940769Y-112438708D01*
X181892950Y-112497760D01*
X181374215Y-113219656D01*
X181363644Y-113237530D01*
X181351090Y-113254070D01*
X181314484Y-113320656D01*
X180931784Y-114123003D01*
X180924547Y-114142462D01*
X180915118Y-114160968D01*
X180890882Y-114232984D01*
X180656314Y-115090420D01*
X180652637Y-115110857D01*
X180646635Y-115130736D01*
X180635535Y-115205906D01*
X180556769Y-116088459D01*
X180553901Y-116117581D01*
X180553900Y-119990000D01*
X103873900Y-119990000D01*
X103873900Y-117655467D01*
X120512900Y-117655467D01*
X120512900Y-117977533D01*
X120575732Y-118293412D01*
X120698982Y-118590963D01*
X120877913Y-118858752D01*
X121105648Y-119086487D01*
X121373437Y-119265418D01*
X121670988Y-119388668D01*
X121986867Y-119451500D01*
X122308933Y-119451500D01*
X122624812Y-119388668D01*
X122922363Y-119265418D01*
X123190152Y-119086487D01*
X123417887Y-118858752D01*
X123596818Y-118590963D01*
X123720068Y-118293412D01*
X123782900Y-117977533D01*
X123782900Y-117655467D01*
X123720068Y-117339588D01*
X123596818Y-117042037D01*
X123417887Y-116774248D01*
X123190152Y-116546513D01*
X122922363Y-116367582D01*
X122624812Y-116244332D01*
X122308933Y-116181500D01*
X121986867Y-116181500D01*
X121670988Y-116244332D01*
X121373437Y-116367582D01*
X121105648Y-116546513D01*
X120877913Y-116774248D01*
X120698982Y-117042037D01*
X120575732Y-117339588D01*
X120512900Y-117655467D01*
X103873900Y-117655467D01*
X103873900Y-115117581D01*
X103870912Y-115087247D01*
X103871087Y-115062257D01*
X103870187Y-115053086D01*
X103788585Y-114276699D01*
X103776558Y-114218106D01*
X103765348Y-114159342D01*
X103762685Y-114150520D01*
X103590288Y-113593596D01*
X103745865Y-113969192D01*
X104050650Y-114425334D01*
X104438566Y-114813250D01*
X104894708Y-115118035D01*
X105401546Y-115327974D01*
X105939601Y-115435000D01*
X106488199Y-115435000D01*
X107026254Y-115327974D01*
X107533092Y-115118035D01*
X107989234Y-114813250D01*
X108377150Y-114425334D01*
X108681935Y-113969192D01*
X108891874Y-113462354D01*
X108952917Y-113155467D01*
X120512900Y-113155467D01*
X120512900Y-113477533D01*
X120575732Y-113793412D01*
X120698982Y-114090963D01*
X120877913Y-114358752D01*
X121105648Y-114586487D01*
X121373437Y-114765418D01*
X121670988Y-114888668D01*
X121986867Y-114951500D01*
X122308933Y-114951500D01*
X122624812Y-114888668D01*
X122922363Y-114765418D01*
X123190152Y-114586487D01*
X123417887Y-114358752D01*
X123596818Y-114090963D01*
X123720068Y-113793412D01*
X123782900Y-113477533D01*
X123782900Y-113155467D01*
X123720068Y-112839588D01*
X123596818Y-112542037D01*
X123485676Y-112375701D01*
X175428900Y-112375701D01*
X175428900Y-112924299D01*
X175535926Y-113462354D01*
X175745865Y-113969192D01*
X176050650Y-114425334D01*
X176438566Y-114813250D01*
X176894708Y-115118035D01*
X177401546Y-115327974D01*
X177939601Y-115435000D01*
X178488199Y-115435000D01*
X179026254Y-115327974D01*
X179533092Y-115118035D01*
X179989234Y-114813250D01*
X180377150Y-114425334D01*
X180681935Y-113969192D01*
X180891874Y-113462354D01*
X180998900Y-112924299D01*
X180998900Y-112375701D01*
X180891874Y-111837646D01*
X180681935Y-111330808D01*
X180377150Y-110874666D01*
X179989234Y-110486750D01*
X179533092Y-110181965D01*
X179026254Y-109972026D01*
X178488199Y-109865000D01*
X177939601Y-109865000D01*
X177401546Y-109972026D01*
X176894708Y-110181965D01*
X176438566Y-110486750D01*
X176050650Y-110874666D01*
X175745865Y-111330808D01*
X175535926Y-111837646D01*
X175428900Y-112375701D01*
X123485676Y-112375701D01*
X123417887Y-112274248D01*
X123190152Y-112046513D01*
X122922363Y-111867582D01*
X122624812Y-111744332D01*
X122308933Y-111681500D01*
X121986867Y-111681500D01*
X121670988Y-111744332D01*
X121373437Y-111867582D01*
X121105648Y-112046513D01*
X120877913Y-112274248D01*
X120698982Y-112542037D01*
X120575732Y-112839588D01*
X120512900Y-113155467D01*
X108952917Y-113155467D01*
X108998900Y-112924299D01*
X108998900Y-112375701D01*
X108891874Y-111837646D01*
X108681935Y-111330808D01*
X108377150Y-110874666D01*
X108077484Y-110575000D01*
X165400828Y-110575000D01*
X165413088Y-110699482D01*
X165449398Y-110819180D01*
X165508363Y-110929494D01*
X165587715Y-111026185D01*
X165684406Y-111105537D01*
X165794720Y-111164502D01*
X165914418Y-111200812D01*
X166038900Y-111213072D01*
X166228150Y-111210000D01*
X166386900Y-111051250D01*
X166386900Y-110264500D01*
X166640900Y-110264500D01*
X166640900Y-111051250D01*
X166799650Y-111210000D01*
X166988900Y-111213072D01*
X167113382Y-111200812D01*
X167233080Y-111164502D01*
X167343394Y-111105537D01*
X167440085Y-111026185D01*
X167519437Y-110929494D01*
X167578402Y-110819180D01*
X167614712Y-110699482D01*
X167626972Y-110575000D01*
X167623900Y-110423250D01*
X167465150Y-110264500D01*
X166640900Y-110264500D01*
X166386900Y-110264500D01*
X165562650Y-110264500D01*
X165403900Y-110423250D01*
X165400828Y-110575000D01*
X108077484Y-110575000D01*
X107989234Y-110486750D01*
X107533092Y-110181965D01*
X107026254Y-109972026D01*
X106488199Y-109865000D01*
X105939601Y-109865000D01*
X105401546Y-109972026D01*
X104894708Y-110181965D01*
X104438566Y-110486750D01*
X104050650Y-110874666D01*
X103745865Y-111330808D01*
X103535926Y-111837646D01*
X103428900Y-112375701D01*
X103428900Y-112924299D01*
X103517857Y-113371513D01*
X103508649Y-113349608D01*
X103486247Y-113294162D01*
X103481921Y-113286026D01*
X103110618Y-112599316D01*
X103077179Y-112549741D01*
X103044414Y-112499670D01*
X103038589Y-112492529D01*
X102540976Y-111891017D01*
X102498521Y-111848858D01*
X102456676Y-111806127D01*
X102449576Y-111800253D01*
X101844605Y-111306852D01*
X101794804Y-111273764D01*
X101745424Y-111239953D01*
X101737318Y-111235570D01*
X101048033Y-110869071D01*
X100992739Y-110846280D01*
X100937746Y-110822710D01*
X100928943Y-110819985D01*
X100181598Y-110594348D01*
X100122895Y-110582725D01*
X100064406Y-110570292D01*
X100055242Y-110569329D01*
X99278304Y-110493150D01*
X99278302Y-110493150D01*
X99246319Y-110490000D01*
X93873900Y-110490000D01*
X93873900Y-105548061D01*
X115378900Y-105548061D01*
X115378900Y-105751939D01*
X115418674Y-105951898D01*
X115496695Y-106140256D01*
X115609963Y-106309774D01*
X115653901Y-106353712D01*
X115653900Y-107546289D01*
X115609963Y-107590226D01*
X115496695Y-107759744D01*
X115418674Y-107948102D01*
X115378900Y-108148061D01*
X115378900Y-108351939D01*
X115418674Y-108551898D01*
X115496695Y-108740256D01*
X115609963Y-108909774D01*
X115754126Y-109053937D01*
X115923644Y-109167205D01*
X116112002Y-109245226D01*
X116311961Y-109285000D01*
X116515839Y-109285000D01*
X116715798Y-109245226D01*
X116904156Y-109167205D01*
X117073674Y-109053937D01*
X117217837Y-108909774D01*
X117331105Y-108740256D01*
X117409126Y-108551898D01*
X117448900Y-108351939D01*
X117448900Y-108148061D01*
X117409126Y-107948102D01*
X117331105Y-107759744D01*
X117217837Y-107590226D01*
X117173900Y-107546289D01*
X117173900Y-106353711D01*
X117217837Y-106309774D01*
X117331105Y-106140256D01*
X117409126Y-105951898D01*
X117448900Y-105751939D01*
X117448900Y-105548061D01*
X117409126Y-105348102D01*
X117331105Y-105159744D01*
X117217837Y-104990226D01*
X117073674Y-104846063D01*
X116904156Y-104732795D01*
X116715798Y-104654774D01*
X116515839Y-104615000D01*
X116311961Y-104615000D01*
X116112002Y-104654774D01*
X115923644Y-104732795D01*
X115754126Y-104846063D01*
X115609963Y-104990226D01*
X115496695Y-105159744D01*
X115418674Y-105348102D01*
X115378900Y-105548061D01*
X93873900Y-105548061D01*
X93873900Y-95763589D01*
X106578900Y-95763589D01*
X106578900Y-96036411D01*
X106632125Y-96303989D01*
X106736529Y-96556043D01*
X106888101Y-96782886D01*
X107081014Y-96975799D01*
X107307857Y-97127371D01*
X107559911Y-97231775D01*
X107827489Y-97285000D01*
X108100311Y-97285000D01*
X108367889Y-97231775D01*
X108619943Y-97127371D01*
X108846786Y-96975799D01*
X109039699Y-96782886D01*
X109191271Y-96556043D01*
X109277419Y-96348061D01*
X121378900Y-96348061D01*
X121378900Y-96551939D01*
X121418674Y-96751898D01*
X121496695Y-96940256D01*
X121609963Y-97109774D01*
X121754126Y-97253937D01*
X121923644Y-97367205D01*
X122112002Y-97445226D01*
X122311961Y-97485000D01*
X122515839Y-97485000D01*
X122715798Y-97445226D01*
X122904156Y-97367205D01*
X122952354Y-97335000D01*
X123947322Y-97335000D01*
X124307365Y-97695044D01*
X124318674Y-97751898D01*
X124396695Y-97940256D01*
X124509963Y-98109774D01*
X124654126Y-98253937D01*
X124823644Y-98367205D01*
X125012002Y-98445226D01*
X125211961Y-98485000D01*
X125415839Y-98485000D01*
X125615798Y-98445226D01*
X125804156Y-98367205D01*
X125973674Y-98253937D01*
X126117837Y-98109774D01*
X126231105Y-97940256D01*
X126309126Y-97751898D01*
X126348900Y-97551939D01*
X126348900Y-97378061D01*
X131907900Y-97378061D01*
X131907900Y-97581939D01*
X131947674Y-97781898D01*
X132025695Y-97970256D01*
X132138963Y-98139774D01*
X132283126Y-98283937D01*
X132452644Y-98397205D01*
X132641002Y-98475226D01*
X132840961Y-98515000D01*
X133044839Y-98515000D01*
X133244798Y-98475226D01*
X133433156Y-98397205D01*
X133602674Y-98283937D01*
X133746837Y-98139774D01*
X133860105Y-97970256D01*
X133938126Y-97781898D01*
X133977900Y-97581939D01*
X133977900Y-97512731D01*
X134911037Y-96579594D01*
X134939849Y-96555949D01*
X134996493Y-96486928D01*
X135034197Y-96440986D01*
X135104304Y-96309824D01*
X135114410Y-96276510D01*
X135119769Y-96258842D01*
X135207337Y-96171274D01*
X135320605Y-96001756D01*
X135398626Y-95813398D01*
X135438400Y-95613439D01*
X135438400Y-95409561D01*
X135398626Y-95209602D01*
X135320605Y-95021244D01*
X135207337Y-94851726D01*
X135063174Y-94707563D01*
X134893656Y-94594295D01*
X134705298Y-94516274D01*
X134505339Y-94476500D01*
X134301461Y-94476500D01*
X134101502Y-94516274D01*
X133913144Y-94594295D01*
X133743626Y-94707563D01*
X133599463Y-94851726D01*
X133486195Y-95021244D01*
X133408174Y-95209602D01*
X133368400Y-95409561D01*
X133368400Y-95613439D01*
X133408174Y-95813398D01*
X133447304Y-95907865D01*
X132910169Y-96445000D01*
X132840961Y-96445000D01*
X132641002Y-96484774D01*
X132452644Y-96562795D01*
X132283126Y-96676063D01*
X132138963Y-96820226D01*
X132025695Y-96989744D01*
X131947674Y-97178102D01*
X131907900Y-97378061D01*
X126348900Y-97378061D01*
X126348900Y-97348061D01*
X126309126Y-97148102D01*
X126231105Y-96959744D01*
X126117837Y-96790226D01*
X125973674Y-96646063D01*
X125804156Y-96532795D01*
X125615798Y-96454774D01*
X125558944Y-96443465D01*
X124970434Y-95854956D01*
X124942717Y-95821183D01*
X124807959Y-95710589D01*
X124654213Y-95628411D01*
X124487390Y-95577805D01*
X124357377Y-95565000D01*
X124357369Y-95565000D01*
X124313900Y-95560719D01*
X124270431Y-95565000D01*
X122952354Y-95565000D01*
X122904156Y-95532795D01*
X122715798Y-95454774D01*
X122515839Y-95415000D01*
X122311961Y-95415000D01*
X122112002Y-95454774D01*
X121923644Y-95532795D01*
X121754126Y-95646063D01*
X121609963Y-95790226D01*
X121496695Y-95959744D01*
X121418674Y-96148102D01*
X121378900Y-96348061D01*
X109277419Y-96348061D01*
X109295675Y-96303989D01*
X109348900Y-96036411D01*
X109348900Y-95763589D01*
X109295675Y-95496011D01*
X109191271Y-95243957D01*
X109039699Y-95017114D01*
X108846786Y-94824201D01*
X108619943Y-94672629D01*
X108367889Y-94568225D01*
X108100311Y-94515000D01*
X107827489Y-94515000D01*
X107559911Y-94568225D01*
X107307857Y-94672629D01*
X107081014Y-94824201D01*
X106888101Y-95017114D01*
X106736529Y-95243957D01*
X106632125Y-95496011D01*
X106578900Y-95763589D01*
X93873900Y-95763589D01*
X93873900Y-90883589D01*
X106578900Y-90883589D01*
X106578900Y-91156411D01*
X106632125Y-91423989D01*
X106736529Y-91676043D01*
X106888101Y-91902886D01*
X107081014Y-92095799D01*
X107307857Y-92247371D01*
X107559911Y-92351775D01*
X107827489Y-92405000D01*
X108100311Y-92405000D01*
X108367889Y-92351775D01*
X108376855Y-92348061D01*
X116478900Y-92348061D01*
X116478900Y-92551939D01*
X116518674Y-92751898D01*
X116596695Y-92940256D01*
X116709963Y-93109774D01*
X116854126Y-93253937D01*
X117023644Y-93367205D01*
X117212002Y-93445226D01*
X117411961Y-93485000D01*
X117615839Y-93485000D01*
X117815798Y-93445226D01*
X118004156Y-93367205D01*
X118173674Y-93253937D01*
X118317837Y-93109774D01*
X118431105Y-92940256D01*
X118509126Y-92751898D01*
X118520435Y-92695043D01*
X119488917Y-91726561D01*
X134574900Y-91726561D01*
X134574900Y-91930439D01*
X134614674Y-92130398D01*
X134692695Y-92318756D01*
X134805963Y-92488274D01*
X134950126Y-92632437D01*
X135119644Y-92745705D01*
X135308002Y-92823726D01*
X135507961Y-92863500D01*
X135711839Y-92863500D01*
X135911798Y-92823726D01*
X136100156Y-92745705D01*
X136269674Y-92632437D01*
X136413837Y-92488274D01*
X136527105Y-92318756D01*
X136605126Y-92130398D01*
X136644900Y-91930439D01*
X136644900Y-91861231D01*
X137701131Y-90805000D01*
X139875828Y-90805000D01*
X139875828Y-91050000D01*
X139888088Y-91174482D01*
X139911039Y-91250141D01*
X139888800Y-91321994D01*
X139878900Y-91418250D01*
X139983648Y-91522998D01*
X139878900Y-91522998D01*
X139878900Y-91582737D01*
X139804156Y-91532795D01*
X139615798Y-91454774D01*
X139415839Y-91415000D01*
X139211961Y-91415000D01*
X139012002Y-91454774D01*
X138823644Y-91532795D01*
X138654126Y-91646063D01*
X138509963Y-91790226D01*
X138396695Y-91959744D01*
X138318674Y-92148102D01*
X138296150Y-92261340D01*
X138123644Y-92332795D01*
X137954126Y-92446063D01*
X137809963Y-92590226D01*
X137696695Y-92759744D01*
X137618674Y-92948102D01*
X137578900Y-93148061D01*
X137578900Y-93351939D01*
X137618674Y-93551898D01*
X137696695Y-93740256D01*
X137809963Y-93909774D01*
X137950189Y-94050000D01*
X137809963Y-94190226D01*
X137696695Y-94359744D01*
X137618674Y-94548102D01*
X137578900Y-94748061D01*
X137578900Y-94951939D01*
X137618674Y-95151898D01*
X137696695Y-95340256D01*
X137809963Y-95509774D01*
X137954126Y-95653937D01*
X138123644Y-95767205D01*
X138312002Y-95845226D01*
X138511961Y-95885000D01*
X138715839Y-95885000D01*
X138915798Y-95845226D01*
X139104156Y-95767205D01*
X139273674Y-95653937D01*
X139317611Y-95610000D01*
X139875828Y-95610000D01*
X139875828Y-95850000D01*
X139888088Y-95974482D01*
X139910996Y-96050000D01*
X139888088Y-96125518D01*
X139875828Y-96250000D01*
X139875828Y-96380685D01*
X139804156Y-96332795D01*
X139615798Y-96254774D01*
X139415839Y-96215000D01*
X139211961Y-96215000D01*
X139012002Y-96254774D01*
X138823644Y-96332795D01*
X138654126Y-96446063D01*
X138509963Y-96590226D01*
X138396695Y-96759744D01*
X138318674Y-96948102D01*
X138278900Y-97148061D01*
X138278900Y-97351939D01*
X138318674Y-97551898D01*
X138396695Y-97740256D01*
X138509963Y-97909774D01*
X138654126Y-98053937D01*
X138823644Y-98167205D01*
X139012002Y-98245226D01*
X139211961Y-98285000D01*
X139415839Y-98285000D01*
X139615798Y-98245226D01*
X139804156Y-98167205D01*
X139878900Y-98117263D01*
X139878900Y-98177002D01*
X139983648Y-98177002D01*
X139878900Y-98281750D01*
X139888800Y-98378006D01*
X139911039Y-98449859D01*
X139888088Y-98525518D01*
X139875828Y-98650000D01*
X139875828Y-99050000D01*
X139888088Y-99174482D01*
X139924398Y-99294180D01*
X139983363Y-99404494D01*
X140062715Y-99501185D01*
X140159406Y-99580537D01*
X140269720Y-99639502D01*
X140389418Y-99675812D01*
X140513900Y-99688072D01*
X145513900Y-99688072D01*
X145638382Y-99675812D01*
X145758080Y-99639502D01*
X145868394Y-99580537D01*
X145875140Y-99575000D01*
X165400828Y-99575000D01*
X165413088Y-99699482D01*
X165449398Y-99819180D01*
X165508363Y-99929494D01*
X165587715Y-100026185D01*
X165684406Y-100105537D01*
X165794720Y-100164502D01*
X165914418Y-100200812D01*
X166038900Y-100213072D01*
X166228150Y-100210000D01*
X166386900Y-100051250D01*
X166386900Y-99264500D01*
X165562650Y-99264500D01*
X165403900Y-99423250D01*
X165400828Y-99575000D01*
X145875140Y-99575000D01*
X145965085Y-99501185D01*
X146044437Y-99404494D01*
X146103402Y-99294180D01*
X146139712Y-99174482D01*
X146151972Y-99050000D01*
X146151972Y-98650000D01*
X146139712Y-98525518D01*
X146116761Y-98449859D01*
X146139000Y-98378006D01*
X146148900Y-98281750D01*
X145990150Y-98123000D01*
X145872704Y-98123000D01*
X145868394Y-98119463D01*
X145758080Y-98060498D01*
X145723473Y-98050000D01*
X145758080Y-98039502D01*
X145868394Y-97980537D01*
X145872704Y-97977000D01*
X145990150Y-97977000D01*
X146148900Y-97818250D01*
X146139000Y-97721994D01*
X146116761Y-97650141D01*
X146139712Y-97574482D01*
X146151972Y-97450000D01*
X146151972Y-97335000D01*
X153523542Y-97335000D01*
X153589841Y-97389411D01*
X153743587Y-97471589D01*
X153910410Y-97522195D01*
X153998152Y-97530837D01*
X154030775Y-97548274D01*
X154178143Y-97592977D01*
X154331400Y-97608072D01*
X154626400Y-97608072D01*
X154779657Y-97592977D01*
X154902584Y-97555688D01*
X154909720Y-97559502D01*
X155029418Y-97595812D01*
X155153900Y-97608072D01*
X155163150Y-97605000D01*
X155321900Y-97446250D01*
X155321900Y-97179763D01*
X155352174Y-97123125D01*
X155396877Y-96975757D01*
X155411972Y-96822500D01*
X155411972Y-96777000D01*
X155575900Y-96777000D01*
X155575900Y-97446250D01*
X155734650Y-97605000D01*
X155743900Y-97608072D01*
X155868382Y-97595812D01*
X155988080Y-97559502D01*
X156098394Y-97500537D01*
X156195085Y-97421185D01*
X156274437Y-97324494D01*
X156315291Y-97248061D01*
X157178900Y-97248061D01*
X157178900Y-97451939D01*
X157218674Y-97651898D01*
X157296695Y-97840256D01*
X157409963Y-98009774D01*
X157554126Y-98153937D01*
X157723644Y-98267205D01*
X157912002Y-98345226D01*
X158111961Y-98385000D01*
X158315839Y-98385000D01*
X158515798Y-98345226D01*
X158704156Y-98267205D01*
X158873674Y-98153937D01*
X159017837Y-98009774D01*
X159131105Y-97840256D01*
X159209126Y-97651898D01*
X159248900Y-97451939D01*
X159248900Y-97389801D01*
X160053702Y-96585000D01*
X160115839Y-96585000D01*
X160315798Y-96545226D01*
X160504156Y-96467205D01*
X160673674Y-96353937D01*
X160817837Y-96209774D01*
X160931105Y-96040256D01*
X161009126Y-95851898D01*
X161048900Y-95651939D01*
X161048900Y-95448061D01*
X161009126Y-95248102D01*
X160931105Y-95059744D01*
X160817837Y-94890226D01*
X160673674Y-94746063D01*
X160504156Y-94632795D01*
X160315798Y-94554774D01*
X160115839Y-94515000D01*
X159911961Y-94515000D01*
X159712002Y-94554774D01*
X159523644Y-94632795D01*
X159354126Y-94746063D01*
X159209963Y-94890226D01*
X159096695Y-95059744D01*
X159018674Y-95248102D01*
X158978900Y-95448061D01*
X158978900Y-95510198D01*
X158174099Y-96315000D01*
X158111961Y-96315000D01*
X157912002Y-96354774D01*
X157723644Y-96432795D01*
X157554126Y-96546063D01*
X157409963Y-96690226D01*
X157296695Y-96859744D01*
X157218674Y-97048102D01*
X157178900Y-97248061D01*
X156315291Y-97248061D01*
X156333402Y-97214180D01*
X156369712Y-97094482D01*
X156381972Y-96970000D01*
X156378900Y-96935750D01*
X156220150Y-96777000D01*
X155575900Y-96777000D01*
X155411972Y-96777000D01*
X155411972Y-96477500D01*
X155396877Y-96324243D01*
X155363900Y-96215531D01*
X155363900Y-96084469D01*
X155396877Y-95975757D01*
X155411972Y-95822500D01*
X155411972Y-95777000D01*
X155575900Y-95777000D01*
X155575900Y-96523000D01*
X155652650Y-96523000D01*
X155734650Y-96605000D01*
X155743900Y-96608072D01*
X155868382Y-96595812D01*
X155988080Y-96559502D01*
X156056369Y-96523000D01*
X156220150Y-96523000D01*
X156378900Y-96364250D01*
X156381972Y-96330000D01*
X156369712Y-96205518D01*
X156352871Y-96150000D01*
X156369712Y-96094482D01*
X156381972Y-95970000D01*
X156378900Y-95935750D01*
X156220150Y-95777000D01*
X156056369Y-95777000D01*
X155988080Y-95740498D01*
X155868382Y-95704188D01*
X155743900Y-95691928D01*
X155734650Y-95695000D01*
X155652650Y-95777000D01*
X155575900Y-95777000D01*
X155411972Y-95777000D01*
X155411972Y-95503000D01*
X155575900Y-95503000D01*
X155575900Y-95523000D01*
X156220150Y-95523000D01*
X156378900Y-95364250D01*
X156381972Y-95330000D01*
X156369712Y-95205518D01*
X156333402Y-95085820D01*
X156274437Y-94975506D01*
X156195085Y-94878815D01*
X156098394Y-94799463D01*
X155988080Y-94740498D01*
X155868382Y-94704188D01*
X155743900Y-94691928D01*
X155734650Y-94695000D01*
X155596777Y-94832873D01*
X155613900Y-94746788D01*
X155613900Y-94523212D01*
X155570283Y-94303933D01*
X155484724Y-94097376D01*
X155363900Y-93916550D01*
X155363900Y-91334469D01*
X155396877Y-91225757D01*
X155411972Y-91072500D01*
X155411972Y-91027000D01*
X155575900Y-91027000D01*
X155575900Y-91696250D01*
X155734650Y-91855000D01*
X155743900Y-91858072D01*
X155868382Y-91845812D01*
X155988080Y-91809502D01*
X156098394Y-91750537D01*
X156195085Y-91671185D01*
X156274437Y-91574494D01*
X156333402Y-91464180D01*
X156369712Y-91344482D01*
X156381972Y-91220000D01*
X156378900Y-91185750D01*
X156220150Y-91027000D01*
X155575900Y-91027000D01*
X155411972Y-91027000D01*
X155411972Y-90727500D01*
X155396877Y-90574243D01*
X155352174Y-90426875D01*
X155321900Y-90370237D01*
X155321900Y-90103750D01*
X155575900Y-90103750D01*
X155575900Y-90773000D01*
X156220150Y-90773000D01*
X156378900Y-90614250D01*
X156381972Y-90580000D01*
X156369712Y-90455518D01*
X156333402Y-90335820D01*
X156274437Y-90225506D01*
X156195085Y-90128815D01*
X156098394Y-90049463D01*
X155988080Y-89990498D01*
X155868382Y-89954188D01*
X155743900Y-89941928D01*
X155734650Y-89945000D01*
X155575900Y-90103750D01*
X155321900Y-90103750D01*
X155163150Y-89945000D01*
X155153900Y-89941928D01*
X155029418Y-89954188D01*
X154909720Y-89990498D01*
X154902584Y-89994312D01*
X154779657Y-89957023D01*
X154626400Y-89941928D01*
X154331400Y-89941928D01*
X154178143Y-89957023D01*
X154030775Y-90001726D01*
X154005941Y-90015000D01*
X146151972Y-90015000D01*
X146151972Y-89850000D01*
X146139712Y-89725518D01*
X146116761Y-89649859D01*
X146139000Y-89578006D01*
X146148900Y-89481750D01*
X145990150Y-89323000D01*
X145872704Y-89323000D01*
X145868394Y-89319463D01*
X145758080Y-89260498D01*
X145723473Y-89250000D01*
X145758080Y-89239502D01*
X145868394Y-89180537D01*
X145872704Y-89177000D01*
X145990150Y-89177000D01*
X146148900Y-89018250D01*
X146144452Y-88975000D01*
X165400828Y-88975000D01*
X165413088Y-89099482D01*
X165449398Y-89219180D01*
X165508363Y-89329494D01*
X165587715Y-89426185D01*
X165684406Y-89505537D01*
X165794720Y-89564502D01*
X165914418Y-89600812D01*
X166038900Y-89613072D01*
X166228150Y-89610000D01*
X166386900Y-89451250D01*
X166386900Y-88664500D01*
X165562650Y-88664500D01*
X165403900Y-88823250D01*
X165400828Y-88975000D01*
X146144452Y-88975000D01*
X146139000Y-88921994D01*
X146116761Y-88850141D01*
X146139712Y-88774482D01*
X146151972Y-88650000D01*
X146151972Y-88250000D01*
X146139712Y-88125518D01*
X146103402Y-88005820D01*
X146044437Y-87895506D01*
X145965085Y-87798815D01*
X145868394Y-87719463D01*
X145758080Y-87660498D01*
X145638382Y-87624188D01*
X145513900Y-87611928D01*
X140513900Y-87611928D01*
X140389418Y-87624188D01*
X140269720Y-87660498D01*
X140159406Y-87719463D01*
X140062715Y-87798815D01*
X139983363Y-87895506D01*
X139924398Y-88005820D01*
X139888088Y-88125518D01*
X139875828Y-88250000D01*
X139875828Y-88650000D01*
X139888088Y-88774482D01*
X139911039Y-88850141D01*
X139888800Y-88921994D01*
X139878900Y-89018250D01*
X140037650Y-89177000D01*
X140155096Y-89177000D01*
X140159406Y-89180537D01*
X140269720Y-89239502D01*
X140304327Y-89250000D01*
X140269720Y-89260498D01*
X140205172Y-89295000D01*
X137425488Y-89295000D01*
X137388400Y-89291347D01*
X137351312Y-89295000D01*
X137351310Y-89295000D01*
X137240394Y-89305924D01*
X137098076Y-89349096D01*
X136966914Y-89419203D01*
X136931751Y-89448061D01*
X136851951Y-89513551D01*
X136828305Y-89542364D01*
X135577169Y-90793500D01*
X135507961Y-90793500D01*
X135308002Y-90833274D01*
X135119644Y-90911295D01*
X134950126Y-91024563D01*
X134805963Y-91168726D01*
X134692695Y-91338244D01*
X134614674Y-91526602D01*
X134574900Y-91726561D01*
X119488917Y-91726561D01*
X121080479Y-90135000D01*
X122975446Y-90135000D01*
X123023644Y-90167205D01*
X123212002Y-90245226D01*
X123411961Y-90285000D01*
X123615839Y-90285000D01*
X123815798Y-90245226D01*
X124004156Y-90167205D01*
X124173674Y-90053937D01*
X124317837Y-89909774D01*
X124431105Y-89740256D01*
X124509126Y-89551898D01*
X124548900Y-89351939D01*
X124548900Y-89148061D01*
X124509126Y-88948102D01*
X124431105Y-88759744D01*
X124317837Y-88590226D01*
X124173674Y-88446063D01*
X124004156Y-88332795D01*
X123815798Y-88254774D01*
X123615839Y-88215000D01*
X123411961Y-88215000D01*
X123212002Y-88254774D01*
X123023644Y-88332795D01*
X122975446Y-88365000D01*
X120757365Y-88365000D01*
X120713899Y-88360719D01*
X120670433Y-88365000D01*
X120670423Y-88365000D01*
X120540410Y-88377805D01*
X120373587Y-88428411D01*
X120219841Y-88510589D01*
X120214466Y-88515000D01*
X120118853Y-88593468D01*
X120118851Y-88593470D01*
X120085083Y-88621183D01*
X120057370Y-88654951D01*
X117268857Y-91443465D01*
X117212002Y-91454774D01*
X117023644Y-91532795D01*
X116854126Y-91646063D01*
X116709963Y-91790226D01*
X116596695Y-91959744D01*
X116518674Y-92148102D01*
X116478900Y-92348061D01*
X108376855Y-92348061D01*
X108619943Y-92247371D01*
X108846786Y-92095799D01*
X109039699Y-91902886D01*
X109191271Y-91676043D01*
X109295675Y-91423989D01*
X109348900Y-91156411D01*
X109348900Y-90883589D01*
X109295675Y-90616011D01*
X109191271Y-90363957D01*
X109039699Y-90137114D01*
X108846786Y-89944201D01*
X108619943Y-89792629D01*
X108367889Y-89688225D01*
X108100311Y-89635000D01*
X107827489Y-89635000D01*
X107559911Y-89688225D01*
X107307857Y-89792629D01*
X107081014Y-89944201D01*
X106888101Y-90137114D01*
X106736529Y-90363957D01*
X106632125Y-90616011D01*
X106578900Y-90883589D01*
X93873900Y-90883589D01*
X93873900Y-87662561D01*
X117178900Y-87662561D01*
X117178900Y-87866439D01*
X117218674Y-88066398D01*
X117296695Y-88254756D01*
X117409963Y-88424274D01*
X117554126Y-88568437D01*
X117723644Y-88681705D01*
X117912002Y-88759726D01*
X118111961Y-88799500D01*
X118315839Y-88799500D01*
X118515798Y-88759726D01*
X118704156Y-88681705D01*
X118873674Y-88568437D01*
X118917611Y-88524500D01*
X119951578Y-88524500D01*
X119988900Y-88528176D01*
X120026222Y-88524500D01*
X120026233Y-88524500D01*
X120137886Y-88513503D01*
X120281147Y-88470046D01*
X120413176Y-88399474D01*
X120467368Y-88355000D01*
X120535339Y-88355000D01*
X120735298Y-88315226D01*
X120923656Y-88237205D01*
X121093174Y-88123937D01*
X121237337Y-87979774D01*
X121350605Y-87810256D01*
X121428626Y-87621898D01*
X121468400Y-87421939D01*
X121468400Y-87218061D01*
X121428626Y-87018102D01*
X121358193Y-86848061D01*
X164178900Y-86848061D01*
X164178900Y-87051939D01*
X164218674Y-87251898D01*
X164296695Y-87440256D01*
X164409963Y-87609774D01*
X164554126Y-87753937D01*
X164723644Y-87867205D01*
X164912002Y-87945226D01*
X165111961Y-87985000D01*
X165315839Y-87985000D01*
X165416272Y-87965023D01*
X165413088Y-87975518D01*
X165400828Y-88100000D01*
X165403900Y-88251750D01*
X165562650Y-88410500D01*
X166386900Y-88410500D01*
X166386900Y-88390500D01*
X166640900Y-88390500D01*
X166640900Y-88410500D01*
X166660900Y-88410500D01*
X166660900Y-88664500D01*
X166640900Y-88664500D01*
X166640900Y-89451250D01*
X166799650Y-89610000D01*
X166988900Y-89613072D01*
X167113382Y-89600812D01*
X167233080Y-89564502D01*
X167343394Y-89505537D01*
X167425828Y-89437885D01*
X167425828Y-90349696D01*
X167438088Y-90474178D01*
X167474398Y-90593876D01*
X167533363Y-90704190D01*
X167612715Y-90800881D01*
X167709406Y-90880233D01*
X167819720Y-90939198D01*
X167939418Y-90975508D01*
X167953900Y-90976934D01*
X167953901Y-96122458D01*
X167939418Y-96123884D01*
X167819720Y-96160194D01*
X167709406Y-96219159D01*
X167612715Y-96298511D01*
X167533363Y-96395202D01*
X167474398Y-96505516D01*
X167438088Y-96625214D01*
X167425828Y-96749696D01*
X167425828Y-96764696D01*
X167398018Y-96764696D01*
X167376015Y-96737885D01*
X167246175Y-96631329D01*
X167098042Y-96552150D01*
X166937308Y-96503392D01*
X166770150Y-96486928D01*
X166257650Y-96486928D01*
X166090492Y-96503392D01*
X165929758Y-96552150D01*
X165781625Y-96631329D01*
X165651785Y-96737885D01*
X165545229Y-96867725D01*
X165466050Y-97015858D01*
X165417292Y-97176592D01*
X165400828Y-97343750D01*
X165400828Y-97781250D01*
X165417292Y-97948408D01*
X165466050Y-98109142D01*
X165545229Y-98257275D01*
X165563000Y-98278930D01*
X165508363Y-98345506D01*
X165449398Y-98455820D01*
X165413088Y-98575518D01*
X165400828Y-98700000D01*
X165403900Y-98851750D01*
X165562650Y-99010500D01*
X166386900Y-99010500D01*
X166386900Y-98990500D01*
X166640900Y-98990500D01*
X166640900Y-99010500D01*
X167465150Y-99010500D01*
X167623900Y-98851750D01*
X167625726Y-98761559D01*
X167709406Y-98830233D01*
X167819720Y-98889198D01*
X167939418Y-98925508D01*
X168002050Y-98931677D01*
X167978900Y-99048061D01*
X167978900Y-99169995D01*
X167939418Y-99173884D01*
X167819720Y-99210194D01*
X167709406Y-99269159D01*
X167612715Y-99348511D01*
X167584068Y-99383418D01*
X167465150Y-99264500D01*
X166640900Y-99264500D01*
X166640900Y-100051250D01*
X166799650Y-100210000D01*
X166988900Y-100213072D01*
X167113382Y-100200812D01*
X167233080Y-100164502D01*
X167343394Y-100105537D01*
X167425828Y-100037885D01*
X167425828Y-101349696D01*
X167438088Y-101474178D01*
X167474398Y-101593876D01*
X167533363Y-101704190D01*
X167612715Y-101800881D01*
X167709406Y-101880233D01*
X167819720Y-101939198D01*
X167939418Y-101975508D01*
X167953900Y-101976934D01*
X167953901Y-107122458D01*
X167939418Y-107123884D01*
X167819720Y-107160194D01*
X167709406Y-107219159D01*
X167612715Y-107298511D01*
X167533363Y-107395202D01*
X167474398Y-107505516D01*
X167438088Y-107625214D01*
X167425828Y-107749696D01*
X167425828Y-107764696D01*
X167398018Y-107764696D01*
X167376015Y-107737885D01*
X167246175Y-107631329D01*
X167098042Y-107552150D01*
X166937308Y-107503392D01*
X166770150Y-107486928D01*
X166257650Y-107486928D01*
X166090492Y-107503392D01*
X165929758Y-107552150D01*
X165781625Y-107631329D01*
X165651785Y-107737885D01*
X165545229Y-107867725D01*
X165466050Y-108015858D01*
X165417292Y-108176592D01*
X165400828Y-108343750D01*
X165400828Y-108781250D01*
X165417292Y-108948408D01*
X165466050Y-109109142D01*
X165545229Y-109257275D01*
X165563000Y-109278930D01*
X165508363Y-109345506D01*
X165449398Y-109455820D01*
X165413088Y-109575518D01*
X165400828Y-109700000D01*
X165403900Y-109851750D01*
X165562650Y-110010500D01*
X166386900Y-110010500D01*
X166386900Y-109990500D01*
X166640900Y-109990500D01*
X166640900Y-110010500D01*
X167465150Y-110010500D01*
X167623900Y-109851750D01*
X167625726Y-109761559D01*
X167709406Y-109830233D01*
X167819720Y-109889198D01*
X167939418Y-109925508D01*
X168063900Y-109937768D01*
X169363900Y-109937768D01*
X169488382Y-109925508D01*
X169608080Y-109889198D01*
X169718394Y-109830233D01*
X169815085Y-109750881D01*
X169894437Y-109654190D01*
X169953402Y-109543876D01*
X169989712Y-109424178D01*
X170001972Y-109299696D01*
X170001972Y-107749696D01*
X169989712Y-107625214D01*
X169953402Y-107505516D01*
X169894437Y-107395202D01*
X169815085Y-107298511D01*
X169718394Y-107219159D01*
X169608080Y-107160194D01*
X169488382Y-107123884D01*
X169473900Y-107122458D01*
X169473900Y-101976934D01*
X169488382Y-101975508D01*
X169608080Y-101939198D01*
X169718394Y-101880233D01*
X169815085Y-101800881D01*
X169894437Y-101704190D01*
X169953402Y-101593876D01*
X169989712Y-101474178D01*
X170001972Y-101349696D01*
X170001972Y-99799696D01*
X169989712Y-99675214D01*
X169958815Y-99573359D01*
X170009126Y-99451898D01*
X170048900Y-99251939D01*
X170048900Y-99048061D01*
X170009126Y-98848102D01*
X169931105Y-98659744D01*
X169909084Y-98626787D01*
X169953402Y-98543876D01*
X169989712Y-98424178D01*
X170001972Y-98299696D01*
X170001972Y-96749696D01*
X169989712Y-96625214D01*
X169953402Y-96505516D01*
X169894437Y-96395202D01*
X169815085Y-96298511D01*
X169718394Y-96219159D01*
X169608080Y-96160194D01*
X169488382Y-96123884D01*
X169473900Y-96122458D01*
X169473900Y-90976934D01*
X169488382Y-90975508D01*
X169608080Y-90939198D01*
X169718394Y-90880233D01*
X169815085Y-90800881D01*
X169894437Y-90704190D01*
X169953402Y-90593876D01*
X169959274Y-90574520D01*
X170011961Y-90585000D01*
X170215839Y-90585000D01*
X170415798Y-90545226D01*
X170604156Y-90467205D01*
X170773674Y-90353937D01*
X170917837Y-90209774D01*
X171031105Y-90040256D01*
X171109126Y-89851898D01*
X171148900Y-89651939D01*
X171148900Y-89448061D01*
X171109126Y-89248102D01*
X171031105Y-89059744D01*
X170917837Y-88890226D01*
X170773674Y-88746063D01*
X170604156Y-88632795D01*
X170415798Y-88554774D01*
X170215839Y-88515000D01*
X170011961Y-88515000D01*
X169939454Y-88529422D01*
X169894437Y-88445202D01*
X169815085Y-88348511D01*
X169718394Y-88269159D01*
X169635495Y-88224848D01*
X169718394Y-88180537D01*
X169815085Y-88101185D01*
X169894437Y-88004494D01*
X169953402Y-87894180D01*
X169989712Y-87774482D01*
X170001972Y-87650000D01*
X170001972Y-86100000D01*
X169989712Y-85975518D01*
X169953402Y-85855820D01*
X169894437Y-85745506D01*
X169815085Y-85648815D01*
X169718394Y-85569463D01*
X169608080Y-85510498D01*
X169488382Y-85474188D01*
X169473900Y-85472762D01*
X169473900Y-80327238D01*
X169488382Y-80325812D01*
X169608080Y-80289502D01*
X169718394Y-80230537D01*
X169815085Y-80151185D01*
X169894437Y-80054494D01*
X169953402Y-79944180D01*
X169989712Y-79824482D01*
X170001972Y-79700000D01*
X170001972Y-78728363D01*
X170178900Y-78728363D01*
X170178900Y-78971637D01*
X170226360Y-79210236D01*
X170319457Y-79434992D01*
X170454613Y-79637267D01*
X170626633Y-79809287D01*
X170828908Y-79944443D01*
X171053664Y-80037540D01*
X171292263Y-80085000D01*
X171535537Y-80085000D01*
X171774136Y-80037540D01*
X171900979Y-79985000D01*
X171996217Y-79985000D01*
X172033363Y-80054494D01*
X172112715Y-80151185D01*
X172209406Y-80230537D01*
X172319720Y-80289502D01*
X172439418Y-80325812D01*
X172563900Y-80338072D01*
X173296841Y-80338072D01*
X173978900Y-81020132D01*
X173978901Y-85473254D01*
X173863900Y-85461928D01*
X172563900Y-85461928D01*
X172439418Y-85474188D01*
X172319720Y-85510498D01*
X172209406Y-85569463D01*
X172112715Y-85648815D01*
X172033363Y-85745506D01*
X171974398Y-85855820D01*
X171938088Y-85975518D01*
X171925828Y-86100000D01*
X171925828Y-87650000D01*
X171938088Y-87774482D01*
X171974398Y-87894180D01*
X172033363Y-88004494D01*
X172112715Y-88101185D01*
X172209406Y-88180537D01*
X172292305Y-88224848D01*
X172209406Y-88269159D01*
X172112715Y-88348511D01*
X172033363Y-88445202D01*
X171974398Y-88555516D01*
X171938088Y-88675214D01*
X171925828Y-88799696D01*
X171925828Y-90349696D01*
X171938088Y-90474178D01*
X171974398Y-90593876D01*
X172033363Y-90704190D01*
X172112715Y-90800881D01*
X172209406Y-90880233D01*
X172319720Y-90939198D01*
X172439418Y-90975508D01*
X172563900Y-90987768D01*
X173863900Y-90987768D01*
X173978900Y-90976442D01*
X173978901Y-96122950D01*
X173863900Y-96111624D01*
X172563900Y-96111624D01*
X172439418Y-96123884D01*
X172319720Y-96160194D01*
X172209406Y-96219159D01*
X172112715Y-96298511D01*
X172033363Y-96395202D01*
X171974398Y-96505516D01*
X171938088Y-96625214D01*
X171925828Y-96749696D01*
X171925828Y-98299696D01*
X171938088Y-98424178D01*
X171974398Y-98543876D01*
X172033363Y-98654190D01*
X172112715Y-98750881D01*
X172209406Y-98830233D01*
X172319720Y-98889198D01*
X172439418Y-98925508D01*
X172563900Y-98937768D01*
X173863900Y-98937768D01*
X173978900Y-98926442D01*
X173978901Y-99172950D01*
X173863900Y-99161624D01*
X172563900Y-99161624D01*
X172439418Y-99173884D01*
X172395788Y-99187119D01*
X172198892Y-99055557D01*
X171974136Y-98962460D01*
X171735537Y-98915000D01*
X171492263Y-98915000D01*
X171253664Y-98962460D01*
X171028908Y-99055557D01*
X170826633Y-99190713D01*
X170654613Y-99362733D01*
X170519457Y-99565008D01*
X170426360Y-99789764D01*
X170378900Y-100028363D01*
X170378900Y-100271637D01*
X170426360Y-100510236D01*
X170519457Y-100734992D01*
X170654613Y-100937267D01*
X170826633Y-101109287D01*
X171028908Y-101244443D01*
X171253664Y-101337540D01*
X171492263Y-101385000D01*
X171735537Y-101385000D01*
X171925828Y-101347149D01*
X171925828Y-101349696D01*
X171938088Y-101474178D01*
X171974398Y-101593876D01*
X172033363Y-101704190D01*
X172112715Y-101800881D01*
X172209406Y-101880233D01*
X172319720Y-101939198D01*
X172439418Y-101975508D01*
X172563900Y-101987768D01*
X173863900Y-101987768D01*
X173978900Y-101976442D01*
X173978901Y-105779867D01*
X172647145Y-107111624D01*
X172563900Y-107111624D01*
X172439418Y-107123884D01*
X172319720Y-107160194D01*
X172209406Y-107219159D01*
X172112715Y-107298511D01*
X172033363Y-107395202D01*
X171974398Y-107505516D01*
X171938088Y-107625214D01*
X171925828Y-107749696D01*
X171925828Y-109299696D01*
X171938088Y-109424178D01*
X171974398Y-109543876D01*
X172033363Y-109654190D01*
X172112715Y-109750881D01*
X172209406Y-109830233D01*
X172319720Y-109889198D01*
X172439418Y-109925508D01*
X172563900Y-109937768D01*
X173863900Y-109937768D01*
X173988382Y-109925508D01*
X174108080Y-109889198D01*
X174218394Y-109830233D01*
X174315085Y-109750881D01*
X174394437Y-109654190D01*
X174453402Y-109543876D01*
X174489712Y-109424178D01*
X174501972Y-109299696D01*
X174501972Y-108467059D01*
X175877041Y-107091991D01*
X175920349Y-107056449D01*
X176062184Y-106883623D01*
X176167576Y-106686447D01*
X176232477Y-106472499D01*
X176248900Y-106305752D01*
X176254391Y-106250000D01*
X176248900Y-106194248D01*
X176248900Y-100880437D01*
X176254390Y-100824695D01*
X176248900Y-100768953D01*
X176248900Y-97505752D01*
X176254391Y-97450000D01*
X176248900Y-97394248D01*
X176248900Y-89705752D01*
X176254391Y-89650000D01*
X176248900Y-89594248D01*
X176248900Y-86805752D01*
X176254391Y-86750000D01*
X176248900Y-86694248D01*
X176248900Y-80605751D01*
X176254391Y-80549999D01*
X176232477Y-80327501D01*
X176167576Y-80113553D01*
X176149440Y-80079623D01*
X176062184Y-79916377D01*
X175920349Y-79743551D01*
X175877040Y-79708009D01*
X174501972Y-78332941D01*
X174501972Y-78150000D01*
X174489712Y-78025518D01*
X174453402Y-77905820D01*
X174394437Y-77795506D01*
X174315085Y-77698815D01*
X174218394Y-77619463D01*
X174108080Y-77560498D01*
X173988382Y-77524188D01*
X173863900Y-77511928D01*
X172563900Y-77511928D01*
X172439418Y-77524188D01*
X172319720Y-77560498D01*
X172209406Y-77619463D01*
X172112715Y-77698815D01*
X172099432Y-77715000D01*
X171900979Y-77715000D01*
X171774136Y-77662460D01*
X171535537Y-77615000D01*
X171292263Y-77615000D01*
X171053664Y-77662460D01*
X170828908Y-77755557D01*
X170626633Y-77890713D01*
X170454613Y-78062733D01*
X170319457Y-78265008D01*
X170226360Y-78489764D01*
X170178900Y-78728363D01*
X170001972Y-78728363D01*
X170001972Y-78150000D01*
X169989712Y-78025518D01*
X169953402Y-77905820D01*
X169894437Y-77795506D01*
X169815085Y-77698815D01*
X169718394Y-77619463D01*
X169608080Y-77560498D01*
X169488382Y-77524188D01*
X169363900Y-77511928D01*
X168063900Y-77511928D01*
X167939418Y-77524188D01*
X167819720Y-77560498D01*
X167709406Y-77619463D01*
X167612715Y-77698815D01*
X167533363Y-77795506D01*
X167474398Y-77905820D01*
X167438088Y-78025518D01*
X167425828Y-78150000D01*
X167425828Y-79700000D01*
X167438088Y-79824482D01*
X167474398Y-79944180D01*
X167533363Y-80054494D01*
X167612715Y-80151185D01*
X167709406Y-80230537D01*
X167819720Y-80289502D01*
X167939418Y-80325812D01*
X167953900Y-80327238D01*
X167953901Y-85472762D01*
X167939418Y-85474188D01*
X167819720Y-85510498D01*
X167709406Y-85569463D01*
X167612715Y-85648815D01*
X167533363Y-85745506D01*
X167474398Y-85855820D01*
X167438088Y-85975518D01*
X167425828Y-86100000D01*
X167425828Y-86198583D01*
X167376015Y-86137885D01*
X167246175Y-86031329D01*
X167098042Y-85952150D01*
X166937308Y-85903392D01*
X166770150Y-85886928D01*
X166257650Y-85886928D01*
X166090492Y-85903392D01*
X165929758Y-85952150D01*
X165781625Y-86031329D01*
X165745873Y-86060669D01*
X165704156Y-86032795D01*
X165515798Y-85954774D01*
X165315839Y-85915000D01*
X165111961Y-85915000D01*
X164912002Y-85954774D01*
X164723644Y-86032795D01*
X164554126Y-86146063D01*
X164409963Y-86290226D01*
X164296695Y-86459744D01*
X164218674Y-86648102D01*
X164178900Y-86848061D01*
X121358193Y-86848061D01*
X121350605Y-86829744D01*
X121237337Y-86660226D01*
X121093174Y-86516063D01*
X120923656Y-86402795D01*
X120735298Y-86324774D01*
X120535339Y-86285000D01*
X120331461Y-86285000D01*
X120131502Y-86324774D01*
X119943144Y-86402795D01*
X119773626Y-86516063D01*
X119629463Y-86660226D01*
X119516195Y-86829744D01*
X119443808Y-87004500D01*
X118917611Y-87004500D01*
X118873674Y-86960563D01*
X118704156Y-86847295D01*
X118515798Y-86769274D01*
X118315839Y-86729500D01*
X118111961Y-86729500D01*
X117912002Y-86769274D01*
X117723644Y-86847295D01*
X117554126Y-86960563D01*
X117409963Y-87104726D01*
X117296695Y-87274244D01*
X117218674Y-87462602D01*
X117178900Y-87662561D01*
X93873900Y-87662561D01*
X93873900Y-76810000D01*
X99246319Y-76810000D01*
X99276653Y-76807012D01*
X99301643Y-76807187D01*
X99310814Y-76806287D01*
X100087202Y-76724685D01*
X100145771Y-76712662D01*
X100204557Y-76701449D01*
X100213379Y-76698785D01*
X100959129Y-76467937D01*
X101014259Y-76444762D01*
X101069738Y-76422348D01*
X101077874Y-76418021D01*
X101764584Y-76046718D01*
X101814168Y-76013273D01*
X101864231Y-75980513D01*
X101871372Y-75974689D01*
X102472883Y-75477076D01*
X102515040Y-75434624D01*
X102557773Y-75392777D01*
X102563641Y-75385682D01*
X102563647Y-75385676D01*
X102563651Y-75385669D01*
X103057048Y-74780706D01*
X103090130Y-74730913D01*
X103123948Y-74681524D01*
X103128330Y-74673417D01*
X103494830Y-73984133D01*
X103517629Y-73928818D01*
X103517931Y-73928113D01*
X103428900Y-74375701D01*
X103428900Y-74924299D01*
X103535926Y-75462354D01*
X103745865Y-75969192D01*
X104050650Y-76425334D01*
X104438566Y-76813250D01*
X104894708Y-77118035D01*
X105401546Y-77327974D01*
X105939601Y-77435000D01*
X106488199Y-77435000D01*
X107026254Y-77327974D01*
X107533092Y-77118035D01*
X107989234Y-76813250D01*
X108377150Y-76425334D01*
X108681935Y-75969192D01*
X108891874Y-75462354D01*
X108998900Y-74924299D01*
X108998900Y-74375701D01*
X108922252Y-73990363D01*
X117420400Y-73990363D01*
X117420400Y-74233637D01*
X117467860Y-74472236D01*
X117520400Y-74599079D01*
X117520401Y-78958919D01*
X117467860Y-79085764D01*
X117420400Y-79324363D01*
X117420400Y-79567637D01*
X117467860Y-79806236D01*
X117560957Y-80030992D01*
X117696113Y-80233267D01*
X117868133Y-80405287D01*
X118070408Y-80540443D01*
X118295164Y-80633540D01*
X118533763Y-80681000D01*
X118777037Y-80681000D01*
X119015636Y-80633540D01*
X119240392Y-80540443D01*
X119442667Y-80405287D01*
X119614687Y-80233267D01*
X119749843Y-80030992D01*
X119842940Y-79806236D01*
X119890400Y-79567637D01*
X119890400Y-79324363D01*
X119842940Y-79085764D01*
X119790400Y-78958921D01*
X119790400Y-78788212D01*
X120828900Y-78788212D01*
X120828900Y-79011788D01*
X120872517Y-79231067D01*
X120958076Y-79437624D01*
X121082288Y-79623520D01*
X121240380Y-79781612D01*
X121426276Y-79905824D01*
X121632833Y-79991383D01*
X121852112Y-80035000D01*
X121953901Y-80035000D01*
X121953901Y-80196288D01*
X121909963Y-80240226D01*
X121796695Y-80409744D01*
X121718674Y-80598102D01*
X121678900Y-80798061D01*
X121678900Y-81001939D01*
X121718674Y-81201898D01*
X121796695Y-81390256D01*
X121909963Y-81559774D01*
X122054126Y-81703937D01*
X122223644Y-81817205D01*
X122412002Y-81895226D01*
X122611961Y-81935000D01*
X122815839Y-81935000D01*
X123015798Y-81895226D01*
X123204156Y-81817205D01*
X123373674Y-81703937D01*
X123517837Y-81559774D01*
X123631105Y-81390256D01*
X123709126Y-81201898D01*
X123748900Y-81001939D01*
X123748900Y-80798061D01*
X123709126Y-80598102D01*
X123668491Y-80500000D01*
X135025828Y-80500000D01*
X135028900Y-81114250D01*
X135187650Y-81273000D01*
X135495558Y-81273000D01*
X135494041Y-81343807D01*
X135491684Y-81346164D01*
X135492837Y-81400000D01*
X135491684Y-81453836D01*
X135494041Y-81456193D01*
X135495558Y-81527000D01*
X135187650Y-81527000D01*
X135028900Y-81685750D01*
X135025828Y-82300000D01*
X135038088Y-82424482D01*
X135074398Y-82544180D01*
X135133363Y-82654494D01*
X135212715Y-82751185D01*
X135309406Y-82830537D01*
X135419720Y-82889502D01*
X135539418Y-82925812D01*
X135663900Y-82938072D01*
X136178150Y-82935000D01*
X136240316Y-82872834D01*
X136332074Y-82834827D01*
X136333251Y-82779899D01*
X136336900Y-82776250D01*
X136336900Y-82470484D01*
X136417736Y-82472216D01*
X136463900Y-82426052D01*
X136510064Y-82472216D01*
X136590900Y-82470484D01*
X136590900Y-82776250D01*
X136594549Y-82779899D01*
X136595726Y-82834827D01*
X136687244Y-82872594D01*
X136749650Y-82935000D01*
X137263900Y-82938072D01*
X137388382Y-82925812D01*
X137508080Y-82889502D01*
X137618394Y-82830537D01*
X137715085Y-82751185D01*
X137794437Y-82654494D01*
X137853402Y-82544180D01*
X137889712Y-82424482D01*
X137901972Y-82300000D01*
X137898900Y-81685750D01*
X137740150Y-81527000D01*
X137432242Y-81527000D01*
X137433759Y-81456193D01*
X137436116Y-81453836D01*
X137434963Y-81400000D01*
X137436116Y-81346164D01*
X137433759Y-81343807D01*
X137432242Y-81273000D01*
X137740150Y-81273000D01*
X137898900Y-81114250D01*
X137901972Y-80500000D01*
X137889712Y-80375518D01*
X137853402Y-80255820D01*
X137794437Y-80145506D01*
X137715085Y-80048815D01*
X137618394Y-79969463D01*
X137508080Y-79910498D01*
X137388382Y-79874188D01*
X137263900Y-79861928D01*
X136749650Y-79865000D01*
X136687484Y-79927166D01*
X136595726Y-79965173D01*
X136594549Y-80020101D01*
X136590900Y-80023750D01*
X136590900Y-80329516D01*
X136510064Y-80327784D01*
X136463900Y-80373948D01*
X136417736Y-80327784D01*
X136336900Y-80329516D01*
X136336900Y-80023750D01*
X136333251Y-80020101D01*
X136332074Y-79965173D01*
X136240556Y-79927406D01*
X136178150Y-79865000D01*
X135663900Y-79861928D01*
X135539418Y-79874188D01*
X135419720Y-79910498D01*
X135309406Y-79969463D01*
X135212715Y-80048815D01*
X135133363Y-80145506D01*
X135074398Y-80255820D01*
X135038088Y-80375518D01*
X135025828Y-80500000D01*
X123668491Y-80500000D01*
X123631105Y-80409744D01*
X123517837Y-80240226D01*
X123473900Y-80196289D01*
X123473900Y-79687322D01*
X123477576Y-79649999D01*
X123473900Y-79612676D01*
X123473900Y-79612667D01*
X123462903Y-79501014D01*
X123419446Y-79357753D01*
X123348874Y-79225724D01*
X123253901Y-79109999D01*
X123224902Y-79086201D01*
X123098900Y-78960198D01*
X123098900Y-78788212D01*
X123055283Y-78568933D01*
X122969724Y-78362376D01*
X122845512Y-78176480D01*
X122687420Y-78018388D01*
X122501524Y-77894176D01*
X122294967Y-77808617D01*
X122075688Y-77765000D01*
X121852112Y-77765000D01*
X121632833Y-77808617D01*
X121426276Y-77894176D01*
X121240380Y-78018388D01*
X121082288Y-78176480D01*
X120958076Y-78362376D01*
X120872517Y-78568933D01*
X120828900Y-78788212D01*
X119790400Y-78788212D01*
X119790400Y-74599079D01*
X119842940Y-74472236D01*
X119890400Y-74233637D01*
X119890400Y-73990363D01*
X119842940Y-73751764D01*
X119749843Y-73527008D01*
X119614687Y-73324733D01*
X119442667Y-73152713D01*
X119240392Y-73017557D01*
X119015636Y-72924460D01*
X118777037Y-72877000D01*
X118533763Y-72877000D01*
X118295164Y-72924460D01*
X118070408Y-73017557D01*
X117868133Y-73152713D01*
X117696113Y-73324733D01*
X117560957Y-73527008D01*
X117467860Y-73751764D01*
X117420400Y-73990363D01*
X108922252Y-73990363D01*
X108891874Y-73837646D01*
X108681935Y-73330808D01*
X108377150Y-72874666D01*
X107989234Y-72486750D01*
X107533092Y-72181965D01*
X107026254Y-71972026D01*
X106488199Y-71865000D01*
X105939601Y-71865000D01*
X105401546Y-71972026D01*
X104894708Y-72181965D01*
X104438566Y-72486750D01*
X104050650Y-72874666D01*
X103745865Y-73330808D01*
X103595905Y-73692843D01*
X103769552Y-73117698D01*
X103781177Y-73058989D01*
X103793608Y-73000506D01*
X103794571Y-72991341D01*
X103870750Y-72214404D01*
X103870750Y-72214402D01*
X103873900Y-72182419D01*
X103873900Y-71000500D01*
X120561815Y-71000500D01*
X120590487Y-71291611D01*
X120675401Y-71571534D01*
X120813294Y-71829514D01*
X120998866Y-72055634D01*
X121224986Y-72241206D01*
X121279791Y-72270500D01*
X121224986Y-72299794D01*
X120998866Y-72485366D01*
X120813294Y-72711486D01*
X120675401Y-72969466D01*
X120590487Y-73249389D01*
X120561815Y-73540500D01*
X120590487Y-73831611D01*
X120675401Y-74111534D01*
X120813294Y-74369514D01*
X120998866Y-74595634D01*
X121224986Y-74781206D01*
X121482966Y-74919099D01*
X121762889Y-75004013D01*
X121981050Y-75025500D01*
X122126950Y-75025500D01*
X122345111Y-75004013D01*
X122625034Y-74919099D01*
X122883014Y-74781206D01*
X123109134Y-74595634D01*
X123294706Y-74369514D01*
X123324000Y-74314709D01*
X123353294Y-74369514D01*
X123538866Y-74595634D01*
X123764986Y-74781206D01*
X124022966Y-74919099D01*
X124302889Y-75004013D01*
X124521050Y-75025500D01*
X124666950Y-75025500D01*
X124885111Y-75004013D01*
X125165034Y-74919099D01*
X125423014Y-74781206D01*
X125649134Y-74595634D01*
X125834706Y-74369514D01*
X125864000Y-74314709D01*
X125893294Y-74369514D01*
X126078866Y-74595634D01*
X126304986Y-74781206D01*
X126562966Y-74919099D01*
X126842889Y-75004013D01*
X127061050Y-75025500D01*
X127206950Y-75025500D01*
X127425111Y-75004013D01*
X127705034Y-74919099D01*
X127963014Y-74781206D01*
X128189134Y-74595634D01*
X128374706Y-74369514D01*
X128404000Y-74314709D01*
X128433294Y-74369514D01*
X128618866Y-74595634D01*
X128844986Y-74781206D01*
X129102966Y-74919099D01*
X129382889Y-75004013D01*
X129601050Y-75025500D01*
X129746950Y-75025500D01*
X129965111Y-75004013D01*
X130245034Y-74919099D01*
X130503014Y-74781206D01*
X130729134Y-74595634D01*
X130753607Y-74565813D01*
X130774498Y-74634680D01*
X130833463Y-74744994D01*
X130912815Y-74841685D01*
X131009506Y-74921037D01*
X131119820Y-74980002D01*
X131239518Y-75016312D01*
X131364000Y-75028572D01*
X133064000Y-75028572D01*
X133188482Y-75016312D01*
X133308180Y-74980002D01*
X133418494Y-74921037D01*
X133515185Y-74841685D01*
X133594537Y-74744994D01*
X133653502Y-74634680D01*
X133689812Y-74514982D01*
X133702072Y-74390500D01*
X133702072Y-72690500D01*
X133689812Y-72566018D01*
X133653502Y-72446320D01*
X133594537Y-72336006D01*
X133515185Y-72239315D01*
X133418494Y-72159963D01*
X133308180Y-72100998D01*
X133239313Y-72080107D01*
X133269134Y-72055634D01*
X133454706Y-71829514D01*
X133572038Y-71610000D01*
X138721815Y-71610000D01*
X138750487Y-71901111D01*
X138835401Y-72181034D01*
X138973294Y-72439014D01*
X139158866Y-72665134D01*
X139188687Y-72689607D01*
X139119820Y-72710498D01*
X139009506Y-72769463D01*
X138912815Y-72848815D01*
X138833463Y-72945506D01*
X138774498Y-73055820D01*
X138738188Y-73175518D01*
X138725928Y-73300000D01*
X138725928Y-75000000D01*
X138738188Y-75124482D01*
X138774498Y-75244180D01*
X138833463Y-75354494D01*
X138912815Y-75451185D01*
X139009506Y-75530537D01*
X139119820Y-75589502D01*
X139239518Y-75625812D01*
X139364000Y-75638072D01*
X141064000Y-75638072D01*
X141188482Y-75625812D01*
X141308180Y-75589502D01*
X141418494Y-75530537D01*
X141515185Y-75451185D01*
X141594537Y-75354494D01*
X141653502Y-75244180D01*
X141689812Y-75124482D01*
X141702072Y-75000000D01*
X141702072Y-74375701D01*
X175428900Y-74375701D01*
X175428900Y-74924299D01*
X175535926Y-75462354D01*
X175745865Y-75969192D01*
X176050650Y-76425334D01*
X176438566Y-76813250D01*
X176894708Y-77118035D01*
X177401546Y-77327974D01*
X177939601Y-77435000D01*
X178488199Y-77435000D01*
X179026254Y-77327974D01*
X179533092Y-77118035D01*
X179989234Y-76813250D01*
X180377150Y-76425334D01*
X180681935Y-75969192D01*
X180891874Y-75462354D01*
X180998900Y-74924299D01*
X180998900Y-74375701D01*
X180891874Y-73837646D01*
X180681935Y-73330808D01*
X180377150Y-72874666D01*
X179989234Y-72486750D01*
X179533092Y-72181965D01*
X179026254Y-71972026D01*
X178488199Y-71865000D01*
X177939601Y-71865000D01*
X177401546Y-71972026D01*
X176894708Y-72181965D01*
X176438566Y-72486750D01*
X176050650Y-72874666D01*
X175745865Y-73330808D01*
X175535926Y-73837646D01*
X175428900Y-74375701D01*
X141702072Y-74375701D01*
X141702072Y-73300000D01*
X141689812Y-73175518D01*
X141653502Y-73055820D01*
X141594537Y-72945506D01*
X141515185Y-72848815D01*
X141418494Y-72769463D01*
X141308180Y-72710498D01*
X141239313Y-72689607D01*
X141269134Y-72665134D01*
X141454706Y-72439014D01*
X141592599Y-72181034D01*
X141677513Y-71901111D01*
X141706185Y-71610000D01*
X141677513Y-71318889D01*
X141592599Y-71038966D01*
X141454706Y-70780986D01*
X141269134Y-70554866D01*
X141043014Y-70369294D01*
X140785034Y-70231401D01*
X140505111Y-70146487D01*
X140286950Y-70125000D01*
X140141050Y-70125000D01*
X139922889Y-70146487D01*
X139642966Y-70231401D01*
X139384986Y-70369294D01*
X139158866Y-70554866D01*
X138973294Y-70780986D01*
X138835401Y-71038966D01*
X138750487Y-71318889D01*
X138721815Y-71610000D01*
X133572038Y-71610000D01*
X133592599Y-71571534D01*
X133677513Y-71291611D01*
X133706185Y-71000500D01*
X133677513Y-70709389D01*
X133592599Y-70429466D01*
X133454706Y-70171486D01*
X133269134Y-69945366D01*
X133043014Y-69759794D01*
X132785034Y-69621901D01*
X132505111Y-69536987D01*
X132286950Y-69515500D01*
X132141050Y-69515500D01*
X131922889Y-69536987D01*
X131642966Y-69621901D01*
X131384986Y-69759794D01*
X131158866Y-69945366D01*
X130973294Y-70171486D01*
X130938799Y-70236023D01*
X130869178Y-70119145D01*
X130674269Y-69902912D01*
X130440920Y-69728859D01*
X130178099Y-69603675D01*
X130030890Y-69559024D01*
X129801000Y-69680345D01*
X129801000Y-70873500D01*
X129821000Y-70873500D01*
X129821000Y-71127500D01*
X129801000Y-71127500D01*
X129801000Y-71147500D01*
X129547000Y-71147500D01*
X129547000Y-71127500D01*
X129527000Y-71127500D01*
X129527000Y-70873500D01*
X129547000Y-70873500D01*
X129547000Y-69680345D01*
X129317110Y-69559024D01*
X129169901Y-69603675D01*
X128907080Y-69728859D01*
X128673731Y-69902912D01*
X128478822Y-70119145D01*
X128409201Y-70236023D01*
X128374706Y-70171486D01*
X128189134Y-69945366D01*
X127963014Y-69759794D01*
X127705034Y-69621901D01*
X127425111Y-69536987D01*
X127206950Y-69515500D01*
X127061050Y-69515500D01*
X126842889Y-69536987D01*
X126562966Y-69621901D01*
X126304986Y-69759794D01*
X126078866Y-69945366D01*
X125893294Y-70171486D01*
X125864000Y-70226291D01*
X125834706Y-70171486D01*
X125649134Y-69945366D01*
X125423014Y-69759794D01*
X125165034Y-69621901D01*
X124885111Y-69536987D01*
X124666950Y-69515500D01*
X124521050Y-69515500D01*
X124302889Y-69536987D01*
X124022966Y-69621901D01*
X123764986Y-69759794D01*
X123538866Y-69945366D01*
X123353294Y-70171486D01*
X123324000Y-70226291D01*
X123294706Y-70171486D01*
X123109134Y-69945366D01*
X122883014Y-69759794D01*
X122625034Y-69621901D01*
X122345111Y-69536987D01*
X122126950Y-69515500D01*
X121981050Y-69515500D01*
X121762889Y-69536987D01*
X121482966Y-69621901D01*
X121224986Y-69759794D01*
X120998866Y-69945366D01*
X120813294Y-70171486D01*
X120675401Y-70429466D01*
X120590487Y-70709389D01*
X120561815Y-71000500D01*
X103873900Y-71000500D01*
X103873900Y-66310000D01*
X180553900Y-66310000D01*
X180553901Y-71182419D01*
X180553901Y-71182419D01*
G37*
X180553901Y-71182419D02*
X180556268Y-71206448D01*
X180609310Y-71928752D01*
X180611829Y-71944132D01*
X180612318Y-71959705D01*
X180625774Y-72034489D01*
X180833294Y-72898871D01*
X180839918Y-72918552D01*
X180844235Y-72938864D01*
X180870721Y-73010083D01*
X181228030Y-73824054D01*
X181238032Y-73842248D01*
X181245879Y-73861476D01*
X181284551Y-73926866D01*
X181284559Y-73926880D01*
X181284563Y-73926885D01*
X181780362Y-74664713D01*
X181793430Y-74680851D01*
X181804557Y-74698384D01*
X181854207Y-74755905D01*
X182472834Y-75394278D01*
X182488552Y-75407846D01*
X182502608Y-75423131D01*
X182561660Y-75470950D01*
X183283556Y-75989685D01*
X183301426Y-76000253D01*
X183317969Y-76012810D01*
X183384556Y-76049416D01*
X184186902Y-76432116D01*
X184206364Y-76439354D01*
X184224868Y-76448782D01*
X184296884Y-76473018D01*
X185154319Y-76707586D01*
X185174758Y-76711264D01*
X185194636Y-76717265D01*
X185269800Y-76728364D01*
X185269805Y-76728365D01*
X185269806Y-76728365D01*
X186152260Y-76807122D01*
X186181481Y-76810000D01*
X190553900Y-76810000D01*
X190553901Y-110490000D01*
X186181481Y-110490000D01*
X186157412Y-110492371D01*
X185435148Y-110545410D01*
X185419768Y-110547929D01*
X185404195Y-110548418D01*
X185329411Y-110561874D01*
X184465029Y-110769394D01*
X184445348Y-110776018D01*
X184425036Y-110780335D01*
X184353817Y-110806821D01*
X183539846Y-111164130D01*
X183521652Y-111174132D01*
X183502424Y-111181979D01*
X183437034Y-111220651D01*
X183437020Y-111220659D01*
X183437015Y-111220663D01*
X182699187Y-111716462D01*
X182683049Y-111729530D01*
X182665516Y-111740657D01*
X182607995Y-111790307D01*
X181969622Y-112408934D01*
X181956054Y-112424652D01*
X181940769Y-112438708D01*
X181892950Y-112497760D01*
X181374215Y-113219656D01*
X181363644Y-113237530D01*
X181351090Y-113254070D01*
X181314484Y-113320656D01*
X180931784Y-114123003D01*
X180924547Y-114142462D01*
X180915118Y-114160968D01*
X180890882Y-114232984D01*
X180656314Y-115090420D01*
X180652637Y-115110857D01*
X180646635Y-115130736D01*
X180635535Y-115205906D01*
X180556769Y-116088459D01*
X180553901Y-116117581D01*
X180553900Y-119990000D01*
X103873900Y-119990000D01*
X103873900Y-117655467D01*
X120512900Y-117655467D01*
X120512900Y-117977533D01*
X120575732Y-118293412D01*
X120698982Y-118590963D01*
X120877913Y-118858752D01*
X121105648Y-119086487D01*
X121373437Y-119265418D01*
X121670988Y-119388668D01*
X121986867Y-119451500D01*
X122308933Y-119451500D01*
X122624812Y-119388668D01*
X122922363Y-119265418D01*
X123190152Y-119086487D01*
X123417887Y-118858752D01*
X123596818Y-118590963D01*
X123720068Y-118293412D01*
X123782900Y-117977533D01*
X123782900Y-117655467D01*
X123720068Y-117339588D01*
X123596818Y-117042037D01*
X123417887Y-116774248D01*
X123190152Y-116546513D01*
X122922363Y-116367582D01*
X122624812Y-116244332D01*
X122308933Y-116181500D01*
X121986867Y-116181500D01*
X121670988Y-116244332D01*
X121373437Y-116367582D01*
X121105648Y-116546513D01*
X120877913Y-116774248D01*
X120698982Y-117042037D01*
X120575732Y-117339588D01*
X120512900Y-117655467D01*
X103873900Y-117655467D01*
X103873900Y-115117581D01*
X103870912Y-115087247D01*
X103871087Y-115062257D01*
X103870187Y-115053086D01*
X103788585Y-114276699D01*
X103776558Y-114218106D01*
X103765348Y-114159342D01*
X103762685Y-114150520D01*
X103590288Y-113593596D01*
X103745865Y-113969192D01*
X104050650Y-114425334D01*
X104438566Y-114813250D01*
X104894708Y-115118035D01*
X105401546Y-115327974D01*
X105939601Y-115435000D01*
X106488199Y-115435000D01*
X107026254Y-115327974D01*
X107533092Y-115118035D01*
X107989234Y-114813250D01*
X108377150Y-114425334D01*
X108681935Y-113969192D01*
X108891874Y-113462354D01*
X108952917Y-113155467D01*
X120512900Y-113155467D01*
X120512900Y-113477533D01*
X120575732Y-113793412D01*
X120698982Y-114090963D01*
X120877913Y-114358752D01*
X121105648Y-114586487D01*
X121373437Y-114765418D01*
X121670988Y-114888668D01*
X121986867Y-114951500D01*
X122308933Y-114951500D01*
X122624812Y-114888668D01*
X122922363Y-114765418D01*
X123190152Y-114586487D01*
X123417887Y-114358752D01*
X123596818Y-114090963D01*
X123720068Y-113793412D01*
X123782900Y-113477533D01*
X123782900Y-113155467D01*
X123720068Y-112839588D01*
X123596818Y-112542037D01*
X123485676Y-112375701D01*
X175428900Y-112375701D01*
X175428900Y-112924299D01*
X175535926Y-113462354D01*
X175745865Y-113969192D01*
X176050650Y-114425334D01*
X176438566Y-114813250D01*
X176894708Y-115118035D01*
X177401546Y-115327974D01*
X177939601Y-115435000D01*
X178488199Y-115435000D01*
X179026254Y-115327974D01*
X179533092Y-115118035D01*
X179989234Y-114813250D01*
X180377150Y-114425334D01*
X180681935Y-113969192D01*
X180891874Y-113462354D01*
X180998900Y-112924299D01*
X180998900Y-112375701D01*
X180891874Y-111837646D01*
X180681935Y-111330808D01*
X180377150Y-110874666D01*
X179989234Y-110486750D01*
X179533092Y-110181965D01*
X179026254Y-109972026D01*
X178488199Y-109865000D01*
X177939601Y-109865000D01*
X177401546Y-109972026D01*
X176894708Y-110181965D01*
X176438566Y-110486750D01*
X176050650Y-110874666D01*
X175745865Y-111330808D01*
X175535926Y-111837646D01*
X175428900Y-112375701D01*
X123485676Y-112375701D01*
X123417887Y-112274248D01*
X123190152Y-112046513D01*
X122922363Y-111867582D01*
X122624812Y-111744332D01*
X122308933Y-111681500D01*
X121986867Y-111681500D01*
X121670988Y-111744332D01*
X121373437Y-111867582D01*
X121105648Y-112046513D01*
X120877913Y-112274248D01*
X120698982Y-112542037D01*
X120575732Y-112839588D01*
X120512900Y-113155467D01*
X108952917Y-113155467D01*
X108998900Y-112924299D01*
X108998900Y-112375701D01*
X108891874Y-111837646D01*
X108681935Y-111330808D01*
X108377150Y-110874666D01*
X108077484Y-110575000D01*
X165400828Y-110575000D01*
X165413088Y-110699482D01*
X165449398Y-110819180D01*
X165508363Y-110929494D01*
X165587715Y-111026185D01*
X165684406Y-111105537D01*
X165794720Y-111164502D01*
X165914418Y-111200812D01*
X166038900Y-111213072D01*
X166228150Y-111210000D01*
X166386900Y-111051250D01*
X166386900Y-110264500D01*
X166640900Y-110264500D01*
X166640900Y-111051250D01*
X166799650Y-111210000D01*
X166988900Y-111213072D01*
X167113382Y-111200812D01*
X167233080Y-111164502D01*
X167343394Y-111105537D01*
X167440085Y-111026185D01*
X167519437Y-110929494D01*
X167578402Y-110819180D01*
X167614712Y-110699482D01*
X167626972Y-110575000D01*
X167623900Y-110423250D01*
X167465150Y-110264500D01*
X166640900Y-110264500D01*
X166386900Y-110264500D01*
X165562650Y-110264500D01*
X165403900Y-110423250D01*
X165400828Y-110575000D01*
X108077484Y-110575000D01*
X107989234Y-110486750D01*
X107533092Y-110181965D01*
X107026254Y-109972026D01*
X106488199Y-109865000D01*
X105939601Y-109865000D01*
X105401546Y-109972026D01*
X104894708Y-110181965D01*
X104438566Y-110486750D01*
X104050650Y-110874666D01*
X103745865Y-111330808D01*
X103535926Y-111837646D01*
X103428900Y-112375701D01*
X103428900Y-112924299D01*
X103517857Y-113371513D01*
X103508649Y-113349608D01*
X103486247Y-113294162D01*
X103481921Y-113286026D01*
X103110618Y-112599316D01*
X103077179Y-112549741D01*
X103044414Y-112499670D01*
X103038589Y-112492529D01*
X102540976Y-111891017D01*
X102498521Y-111848858D01*
X102456676Y-111806127D01*
X102449576Y-111800253D01*
X101844605Y-111306852D01*
X101794804Y-111273764D01*
X101745424Y-111239953D01*
X101737318Y-111235570D01*
X101048033Y-110869071D01*
X100992739Y-110846280D01*
X100937746Y-110822710D01*
X100928943Y-110819985D01*
X100181598Y-110594348D01*
X100122895Y-110582725D01*
X100064406Y-110570292D01*
X100055242Y-110569329D01*
X99278304Y-110493150D01*
X99278302Y-110493150D01*
X99246319Y-110490000D01*
X93873900Y-110490000D01*
X93873900Y-105548061D01*
X115378900Y-105548061D01*
X115378900Y-105751939D01*
X115418674Y-105951898D01*
X115496695Y-106140256D01*
X115609963Y-106309774D01*
X115653901Y-106353712D01*
X115653900Y-107546289D01*
X115609963Y-107590226D01*
X115496695Y-107759744D01*
X115418674Y-107948102D01*
X115378900Y-108148061D01*
X115378900Y-108351939D01*
X115418674Y-108551898D01*
X115496695Y-108740256D01*
X115609963Y-108909774D01*
X115754126Y-109053937D01*
X115923644Y-109167205D01*
X116112002Y-109245226D01*
X116311961Y-109285000D01*
X116515839Y-109285000D01*
X116715798Y-109245226D01*
X116904156Y-109167205D01*
X117073674Y-109053937D01*
X117217837Y-108909774D01*
X117331105Y-108740256D01*
X117409126Y-108551898D01*
X117448900Y-108351939D01*
X117448900Y-108148061D01*
X117409126Y-107948102D01*
X117331105Y-107759744D01*
X117217837Y-107590226D01*
X117173900Y-107546289D01*
X117173900Y-106353711D01*
X117217837Y-106309774D01*
X117331105Y-106140256D01*
X117409126Y-105951898D01*
X117448900Y-105751939D01*
X117448900Y-105548061D01*
X117409126Y-105348102D01*
X117331105Y-105159744D01*
X117217837Y-104990226D01*
X117073674Y-104846063D01*
X116904156Y-104732795D01*
X116715798Y-104654774D01*
X116515839Y-104615000D01*
X116311961Y-104615000D01*
X116112002Y-104654774D01*
X115923644Y-104732795D01*
X115754126Y-104846063D01*
X115609963Y-104990226D01*
X115496695Y-105159744D01*
X115418674Y-105348102D01*
X115378900Y-105548061D01*
X93873900Y-105548061D01*
X93873900Y-95763589D01*
X106578900Y-95763589D01*
X106578900Y-96036411D01*
X106632125Y-96303989D01*
X106736529Y-96556043D01*
X106888101Y-96782886D01*
X107081014Y-96975799D01*
X107307857Y-97127371D01*
X107559911Y-97231775D01*
X107827489Y-97285000D01*
X108100311Y-97285000D01*
X108367889Y-97231775D01*
X108619943Y-97127371D01*
X108846786Y-96975799D01*
X109039699Y-96782886D01*
X109191271Y-96556043D01*
X109277419Y-96348061D01*
X121378900Y-96348061D01*
X121378900Y-96551939D01*
X121418674Y-96751898D01*
X121496695Y-96940256D01*
X121609963Y-97109774D01*
X121754126Y-97253937D01*
X121923644Y-97367205D01*
X122112002Y-97445226D01*
X122311961Y-97485000D01*
X122515839Y-97485000D01*
X122715798Y-97445226D01*
X122904156Y-97367205D01*
X122952354Y-97335000D01*
X123947322Y-97335000D01*
X124307365Y-97695044D01*
X124318674Y-97751898D01*
X124396695Y-97940256D01*
X124509963Y-98109774D01*
X124654126Y-98253937D01*
X124823644Y-98367205D01*
X125012002Y-98445226D01*
X125211961Y-98485000D01*
X125415839Y-98485000D01*
X125615798Y-98445226D01*
X125804156Y-98367205D01*
X125973674Y-98253937D01*
X126117837Y-98109774D01*
X126231105Y-97940256D01*
X126309126Y-97751898D01*
X126348900Y-97551939D01*
X126348900Y-97378061D01*
X131907900Y-97378061D01*
X131907900Y-97581939D01*
X131947674Y-97781898D01*
X132025695Y-97970256D01*
X132138963Y-98139774D01*
X132283126Y-98283937D01*
X132452644Y-98397205D01*
X132641002Y-98475226D01*
X132840961Y-98515000D01*
X133044839Y-98515000D01*
X133244798Y-98475226D01*
X133433156Y-98397205D01*
X133602674Y-98283937D01*
X133746837Y-98139774D01*
X133860105Y-97970256D01*
X133938126Y-97781898D01*
X133977900Y-97581939D01*
X133977900Y-97512731D01*
X134911037Y-96579594D01*
X134939849Y-96555949D01*
X134996493Y-96486928D01*
X135034197Y-96440986D01*
X135104304Y-96309824D01*
X135114410Y-96276510D01*
X135119769Y-96258842D01*
X135207337Y-96171274D01*
X135320605Y-96001756D01*
X135398626Y-95813398D01*
X135438400Y-95613439D01*
X135438400Y-95409561D01*
X135398626Y-95209602D01*
X135320605Y-95021244D01*
X135207337Y-94851726D01*
X135063174Y-94707563D01*
X134893656Y-94594295D01*
X134705298Y-94516274D01*
X134505339Y-94476500D01*
X134301461Y-94476500D01*
X134101502Y-94516274D01*
X133913144Y-94594295D01*
X133743626Y-94707563D01*
X133599463Y-94851726D01*
X133486195Y-95021244D01*
X133408174Y-95209602D01*
X133368400Y-95409561D01*
X133368400Y-95613439D01*
X133408174Y-95813398D01*
X133447304Y-95907865D01*
X132910169Y-96445000D01*
X132840961Y-96445000D01*
X132641002Y-96484774D01*
X132452644Y-96562795D01*
X132283126Y-96676063D01*
X132138963Y-96820226D01*
X132025695Y-96989744D01*
X131947674Y-97178102D01*
X131907900Y-97378061D01*
X126348900Y-97378061D01*
X126348900Y-97348061D01*
X126309126Y-97148102D01*
X126231105Y-96959744D01*
X126117837Y-96790226D01*
X125973674Y-96646063D01*
X125804156Y-96532795D01*
X125615798Y-96454774D01*
X125558944Y-96443465D01*
X124970434Y-95854956D01*
X124942717Y-95821183D01*
X124807959Y-95710589D01*
X124654213Y-95628411D01*
X124487390Y-95577805D01*
X124357377Y-95565000D01*
X124357369Y-95565000D01*
X124313900Y-95560719D01*
X124270431Y-95565000D01*
X122952354Y-95565000D01*
X122904156Y-95532795D01*
X122715798Y-95454774D01*
X122515839Y-95415000D01*
X122311961Y-95415000D01*
X122112002Y-95454774D01*
X121923644Y-95532795D01*
X121754126Y-95646063D01*
X121609963Y-95790226D01*
X121496695Y-95959744D01*
X121418674Y-96148102D01*
X121378900Y-96348061D01*
X109277419Y-96348061D01*
X109295675Y-96303989D01*
X109348900Y-96036411D01*
X109348900Y-95763589D01*
X109295675Y-95496011D01*
X109191271Y-95243957D01*
X109039699Y-95017114D01*
X108846786Y-94824201D01*
X108619943Y-94672629D01*
X108367889Y-94568225D01*
X108100311Y-94515000D01*
X107827489Y-94515000D01*
X107559911Y-94568225D01*
X107307857Y-94672629D01*
X107081014Y-94824201D01*
X106888101Y-95017114D01*
X106736529Y-95243957D01*
X106632125Y-95496011D01*
X106578900Y-95763589D01*
X93873900Y-95763589D01*
X93873900Y-90883589D01*
X106578900Y-90883589D01*
X106578900Y-91156411D01*
X106632125Y-91423989D01*
X106736529Y-91676043D01*
X106888101Y-91902886D01*
X107081014Y-92095799D01*
X107307857Y-92247371D01*
X107559911Y-92351775D01*
X107827489Y-92405000D01*
X108100311Y-92405000D01*
X108367889Y-92351775D01*
X108376855Y-92348061D01*
X116478900Y-92348061D01*
X116478900Y-92551939D01*
X116518674Y-92751898D01*
X116596695Y-92940256D01*
X116709963Y-93109774D01*
X116854126Y-93253937D01*
X117023644Y-93367205D01*
X117212002Y-93445226D01*
X117411961Y-93485000D01*
X117615839Y-93485000D01*
X117815798Y-93445226D01*
X118004156Y-93367205D01*
X118173674Y-93253937D01*
X118317837Y-93109774D01*
X118431105Y-92940256D01*
X118509126Y-92751898D01*
X118520435Y-92695043D01*
X119488917Y-91726561D01*
X134574900Y-91726561D01*
X134574900Y-91930439D01*
X134614674Y-92130398D01*
X134692695Y-92318756D01*
X134805963Y-92488274D01*
X134950126Y-92632437D01*
X135119644Y-92745705D01*
X135308002Y-92823726D01*
X135507961Y-92863500D01*
X135711839Y-92863500D01*
X135911798Y-92823726D01*
X136100156Y-92745705D01*
X136269674Y-92632437D01*
X136413837Y-92488274D01*
X136527105Y-92318756D01*
X136605126Y-92130398D01*
X136644900Y-91930439D01*
X136644900Y-91861231D01*
X137701131Y-90805000D01*
X139875828Y-90805000D01*
X139875828Y-91050000D01*
X139888088Y-91174482D01*
X139911039Y-91250141D01*
X139888800Y-91321994D01*
X139878900Y-91418250D01*
X139983648Y-91522998D01*
X139878900Y-91522998D01*
X139878900Y-91582737D01*
X139804156Y-91532795D01*
X139615798Y-91454774D01*
X139415839Y-91415000D01*
X139211961Y-91415000D01*
X139012002Y-91454774D01*
X138823644Y-91532795D01*
X138654126Y-91646063D01*
X138509963Y-91790226D01*
X138396695Y-91959744D01*
X138318674Y-92148102D01*
X138296150Y-92261340D01*
X138123644Y-92332795D01*
X137954126Y-92446063D01*
X137809963Y-92590226D01*
X137696695Y-92759744D01*
X137618674Y-92948102D01*
X137578900Y-93148061D01*
X137578900Y-93351939D01*
X137618674Y-93551898D01*
X137696695Y-93740256D01*
X137809963Y-93909774D01*
X137950189Y-94050000D01*
X137809963Y-94190226D01*
X137696695Y-94359744D01*
X137618674Y-94548102D01*
X137578900Y-94748061D01*
X137578900Y-94951939D01*
X137618674Y-95151898D01*
X137696695Y-95340256D01*
X137809963Y-95509774D01*
X137954126Y-95653937D01*
X138123644Y-95767205D01*
X138312002Y-95845226D01*
X138511961Y-95885000D01*
X138715839Y-95885000D01*
X138915798Y-95845226D01*
X139104156Y-95767205D01*
X139273674Y-95653937D01*
X139317611Y-95610000D01*
X139875828Y-95610000D01*
X139875828Y-95850000D01*
X139888088Y-95974482D01*
X139910996Y-96050000D01*
X139888088Y-96125518D01*
X139875828Y-96250000D01*
X139875828Y-96380685D01*
X139804156Y-96332795D01*
X139615798Y-96254774D01*
X139415839Y-96215000D01*
X139211961Y-96215000D01*
X139012002Y-96254774D01*
X138823644Y-96332795D01*
X138654126Y-96446063D01*
X138509963Y-96590226D01*
X138396695Y-96759744D01*
X138318674Y-96948102D01*
X138278900Y-97148061D01*
X138278900Y-97351939D01*
X138318674Y-97551898D01*
X138396695Y-97740256D01*
X138509963Y-97909774D01*
X138654126Y-98053937D01*
X138823644Y-98167205D01*
X139012002Y-98245226D01*
X139211961Y-98285000D01*
X139415839Y-98285000D01*
X139615798Y-98245226D01*
X139804156Y-98167205D01*
X139878900Y-98117263D01*
X139878900Y-98177002D01*
X139983648Y-98177002D01*
X139878900Y-98281750D01*
X139888800Y-98378006D01*
X139911039Y-98449859D01*
X139888088Y-98525518D01*
X139875828Y-98650000D01*
X139875828Y-99050000D01*
X139888088Y-99174482D01*
X139924398Y-99294180D01*
X139983363Y-99404494D01*
X140062715Y-99501185D01*
X140159406Y-99580537D01*
X140269720Y-99639502D01*
X140389418Y-99675812D01*
X140513900Y-99688072D01*
X145513900Y-99688072D01*
X145638382Y-99675812D01*
X145758080Y-99639502D01*
X145868394Y-99580537D01*
X145875140Y-99575000D01*
X165400828Y-99575000D01*
X165413088Y-99699482D01*
X165449398Y-99819180D01*
X165508363Y-99929494D01*
X165587715Y-100026185D01*
X165684406Y-100105537D01*
X165794720Y-100164502D01*
X165914418Y-100200812D01*
X166038900Y-100213072D01*
X166228150Y-100210000D01*
X166386900Y-100051250D01*
X166386900Y-99264500D01*
X165562650Y-99264500D01*
X165403900Y-99423250D01*
X165400828Y-99575000D01*
X145875140Y-99575000D01*
X145965085Y-99501185D01*
X146044437Y-99404494D01*
X146103402Y-99294180D01*
X146139712Y-99174482D01*
X146151972Y-99050000D01*
X146151972Y-98650000D01*
X146139712Y-98525518D01*
X146116761Y-98449859D01*
X146139000Y-98378006D01*
X146148900Y-98281750D01*
X145990150Y-98123000D01*
X145872704Y-98123000D01*
X145868394Y-98119463D01*
X145758080Y-98060498D01*
X145723473Y-98050000D01*
X145758080Y-98039502D01*
X145868394Y-97980537D01*
X145872704Y-97977000D01*
X145990150Y-97977000D01*
X146148900Y-97818250D01*
X146139000Y-97721994D01*
X146116761Y-97650141D01*
X146139712Y-97574482D01*
X146151972Y-97450000D01*
X146151972Y-97335000D01*
X153523542Y-97335000D01*
X153589841Y-97389411D01*
X153743587Y-97471589D01*
X153910410Y-97522195D01*
X153998152Y-97530837D01*
X154030775Y-97548274D01*
X154178143Y-97592977D01*
X154331400Y-97608072D01*
X154626400Y-97608072D01*
X154779657Y-97592977D01*
X154902584Y-97555688D01*
X154909720Y-97559502D01*
X155029418Y-97595812D01*
X155153900Y-97608072D01*
X155163150Y-97605000D01*
X155321900Y-97446250D01*
X155321900Y-97179763D01*
X155352174Y-97123125D01*
X155396877Y-96975757D01*
X155411972Y-96822500D01*
X155411972Y-96777000D01*
X155575900Y-96777000D01*
X155575900Y-97446250D01*
X155734650Y-97605000D01*
X155743900Y-97608072D01*
X155868382Y-97595812D01*
X155988080Y-97559502D01*
X156098394Y-97500537D01*
X156195085Y-97421185D01*
X156274437Y-97324494D01*
X156315291Y-97248061D01*
X157178900Y-97248061D01*
X157178900Y-97451939D01*
X157218674Y-97651898D01*
X157296695Y-97840256D01*
X157409963Y-98009774D01*
X157554126Y-98153937D01*
X157723644Y-98267205D01*
X157912002Y-98345226D01*
X158111961Y-98385000D01*
X158315839Y-98385000D01*
X158515798Y-98345226D01*
X158704156Y-98267205D01*
X158873674Y-98153937D01*
X159017837Y-98009774D01*
X159131105Y-97840256D01*
X159209126Y-97651898D01*
X159248900Y-97451939D01*
X159248900Y-97389801D01*
X160053702Y-96585000D01*
X160115839Y-96585000D01*
X160315798Y-96545226D01*
X160504156Y-96467205D01*
X160673674Y-96353937D01*
X160817837Y-96209774D01*
X160931105Y-96040256D01*
X161009126Y-95851898D01*
X161048900Y-95651939D01*
X161048900Y-95448061D01*
X161009126Y-95248102D01*
X160931105Y-95059744D01*
X160817837Y-94890226D01*
X160673674Y-94746063D01*
X160504156Y-94632795D01*
X160315798Y-94554774D01*
X160115839Y-94515000D01*
X159911961Y-94515000D01*
X159712002Y-94554774D01*
X159523644Y-94632795D01*
X159354126Y-94746063D01*
X159209963Y-94890226D01*
X159096695Y-95059744D01*
X159018674Y-95248102D01*
X158978900Y-95448061D01*
X158978900Y-95510198D01*
X158174099Y-96315000D01*
X158111961Y-96315000D01*
X157912002Y-96354774D01*
X157723644Y-96432795D01*
X157554126Y-96546063D01*
X157409963Y-96690226D01*
X157296695Y-96859744D01*
X157218674Y-97048102D01*
X157178900Y-97248061D01*
X156315291Y-97248061D01*
X156333402Y-97214180D01*
X156369712Y-97094482D01*
X156381972Y-96970000D01*
X156378900Y-96935750D01*
X156220150Y-96777000D01*
X155575900Y-96777000D01*
X155411972Y-96777000D01*
X155411972Y-96477500D01*
X155396877Y-96324243D01*
X155363900Y-96215531D01*
X155363900Y-96084469D01*
X155396877Y-95975757D01*
X155411972Y-95822500D01*
X155411972Y-95777000D01*
X155575900Y-95777000D01*
X155575900Y-96523000D01*
X155652650Y-96523000D01*
X155734650Y-96605000D01*
X155743900Y-96608072D01*
X155868382Y-96595812D01*
X155988080Y-96559502D01*
X156056369Y-96523000D01*
X156220150Y-96523000D01*
X156378900Y-96364250D01*
X156381972Y-96330000D01*
X156369712Y-96205518D01*
X156352871Y-96150000D01*
X156369712Y-96094482D01*
X156381972Y-95970000D01*
X156378900Y-95935750D01*
X156220150Y-95777000D01*
X156056369Y-95777000D01*
X155988080Y-95740498D01*
X155868382Y-95704188D01*
X155743900Y-95691928D01*
X155734650Y-95695000D01*
X155652650Y-95777000D01*
X155575900Y-95777000D01*
X155411972Y-95777000D01*
X155411972Y-95503000D01*
X155575900Y-95503000D01*
X155575900Y-95523000D01*
X156220150Y-95523000D01*
X156378900Y-95364250D01*
X156381972Y-95330000D01*
X156369712Y-95205518D01*
X156333402Y-95085820D01*
X156274437Y-94975506D01*
X156195085Y-94878815D01*
X156098394Y-94799463D01*
X155988080Y-94740498D01*
X155868382Y-94704188D01*
X155743900Y-94691928D01*
X155734650Y-94695000D01*
X155596777Y-94832873D01*
X155613900Y-94746788D01*
X155613900Y-94523212D01*
X155570283Y-94303933D01*
X155484724Y-94097376D01*
X155363900Y-93916550D01*
X155363900Y-91334469D01*
X155396877Y-91225757D01*
X155411972Y-91072500D01*
X155411972Y-91027000D01*
X155575900Y-91027000D01*
X155575900Y-91696250D01*
X155734650Y-91855000D01*
X155743900Y-91858072D01*
X155868382Y-91845812D01*
X155988080Y-91809502D01*
X156098394Y-91750537D01*
X156195085Y-91671185D01*
X156274437Y-91574494D01*
X156333402Y-91464180D01*
X156369712Y-91344482D01*
X156381972Y-91220000D01*
X156378900Y-91185750D01*
X156220150Y-91027000D01*
X155575900Y-91027000D01*
X155411972Y-91027000D01*
X155411972Y-90727500D01*
X155396877Y-90574243D01*
X155352174Y-90426875D01*
X155321900Y-90370237D01*
X155321900Y-90103750D01*
X155575900Y-90103750D01*
X155575900Y-90773000D01*
X156220150Y-90773000D01*
X156378900Y-90614250D01*
X156381972Y-90580000D01*
X156369712Y-90455518D01*
X156333402Y-90335820D01*
X156274437Y-90225506D01*
X156195085Y-90128815D01*
X156098394Y-90049463D01*
X155988080Y-89990498D01*
X155868382Y-89954188D01*
X155743900Y-89941928D01*
X155734650Y-89945000D01*
X155575900Y-90103750D01*
X155321900Y-90103750D01*
X155163150Y-89945000D01*
X155153900Y-89941928D01*
X155029418Y-89954188D01*
X154909720Y-89990498D01*
X154902584Y-89994312D01*
X154779657Y-89957023D01*
X154626400Y-89941928D01*
X154331400Y-89941928D01*
X154178143Y-89957023D01*
X154030775Y-90001726D01*
X154005941Y-90015000D01*
X146151972Y-90015000D01*
X146151972Y-89850000D01*
X146139712Y-89725518D01*
X146116761Y-89649859D01*
X146139000Y-89578006D01*
X146148900Y-89481750D01*
X145990150Y-89323000D01*
X145872704Y-89323000D01*
X145868394Y-89319463D01*
X145758080Y-89260498D01*
X145723473Y-89250000D01*
X145758080Y-89239502D01*
X145868394Y-89180537D01*
X145872704Y-89177000D01*
X145990150Y-89177000D01*
X146148900Y-89018250D01*
X146144452Y-88975000D01*
X165400828Y-88975000D01*
X165413088Y-89099482D01*
X165449398Y-89219180D01*
X165508363Y-89329494D01*
X165587715Y-89426185D01*
X165684406Y-89505537D01*
X165794720Y-89564502D01*
X165914418Y-89600812D01*
X166038900Y-89613072D01*
X166228150Y-89610000D01*
X166386900Y-89451250D01*
X166386900Y-88664500D01*
X165562650Y-88664500D01*
X165403900Y-88823250D01*
X165400828Y-88975000D01*
X146144452Y-88975000D01*
X146139000Y-88921994D01*
X146116761Y-88850141D01*
X146139712Y-88774482D01*
X146151972Y-88650000D01*
X146151972Y-88250000D01*
X146139712Y-88125518D01*
X146103402Y-88005820D01*
X146044437Y-87895506D01*
X145965085Y-87798815D01*
X145868394Y-87719463D01*
X145758080Y-87660498D01*
X145638382Y-87624188D01*
X145513900Y-87611928D01*
X140513900Y-87611928D01*
X140389418Y-87624188D01*
X140269720Y-87660498D01*
X140159406Y-87719463D01*
X140062715Y-87798815D01*
X139983363Y-87895506D01*
X139924398Y-88005820D01*
X139888088Y-88125518D01*
X139875828Y-88250000D01*
X139875828Y-88650000D01*
X139888088Y-88774482D01*
X139911039Y-88850141D01*
X139888800Y-88921994D01*
X139878900Y-89018250D01*
X140037650Y-89177000D01*
X140155096Y-89177000D01*
X140159406Y-89180537D01*
X140269720Y-89239502D01*
X140304327Y-89250000D01*
X140269720Y-89260498D01*
X140205172Y-89295000D01*
X137425488Y-89295000D01*
X137388400Y-89291347D01*
X137351312Y-89295000D01*
X137351310Y-89295000D01*
X137240394Y-89305924D01*
X137098076Y-89349096D01*
X136966914Y-89419203D01*
X136931751Y-89448061D01*
X136851951Y-89513551D01*
X136828305Y-89542364D01*
X135577169Y-90793500D01*
X135507961Y-90793500D01*
X135308002Y-90833274D01*
X135119644Y-90911295D01*
X134950126Y-91024563D01*
X134805963Y-91168726D01*
X134692695Y-91338244D01*
X134614674Y-91526602D01*
X134574900Y-91726561D01*
X119488917Y-91726561D01*
X121080479Y-90135000D01*
X122975446Y-90135000D01*
X123023644Y-90167205D01*
X123212002Y-90245226D01*
X123411961Y-90285000D01*
X123615839Y-90285000D01*
X123815798Y-90245226D01*
X124004156Y-90167205D01*
X124173674Y-90053937D01*
X124317837Y-89909774D01*
X124431105Y-89740256D01*
X124509126Y-89551898D01*
X124548900Y-89351939D01*
X124548900Y-89148061D01*
X124509126Y-88948102D01*
X124431105Y-88759744D01*
X124317837Y-88590226D01*
X124173674Y-88446063D01*
X124004156Y-88332795D01*
X123815798Y-88254774D01*
X123615839Y-88215000D01*
X123411961Y-88215000D01*
X123212002Y-88254774D01*
X123023644Y-88332795D01*
X122975446Y-88365000D01*
X120757365Y-88365000D01*
X120713899Y-88360719D01*
X120670433Y-88365000D01*
X120670423Y-88365000D01*
X120540410Y-88377805D01*
X120373587Y-88428411D01*
X120219841Y-88510589D01*
X120214466Y-88515000D01*
X120118853Y-88593468D01*
X120118851Y-88593470D01*
X120085083Y-88621183D01*
X120057370Y-88654951D01*
X117268857Y-91443465D01*
X117212002Y-91454774D01*
X117023644Y-91532795D01*
X116854126Y-91646063D01*
X116709963Y-91790226D01*
X116596695Y-91959744D01*
X116518674Y-92148102D01*
X116478900Y-92348061D01*
X108376855Y-92348061D01*
X108619943Y-92247371D01*
X108846786Y-92095799D01*
X109039699Y-91902886D01*
X109191271Y-91676043D01*
X109295675Y-91423989D01*
X109348900Y-91156411D01*
X109348900Y-90883589D01*
X109295675Y-90616011D01*
X109191271Y-90363957D01*
X109039699Y-90137114D01*
X108846786Y-89944201D01*
X108619943Y-89792629D01*
X108367889Y-89688225D01*
X108100311Y-89635000D01*
X107827489Y-89635000D01*
X107559911Y-89688225D01*
X107307857Y-89792629D01*
X107081014Y-89944201D01*
X106888101Y-90137114D01*
X106736529Y-90363957D01*
X106632125Y-90616011D01*
X106578900Y-90883589D01*
X93873900Y-90883589D01*
X93873900Y-87662561D01*
X117178900Y-87662561D01*
X117178900Y-87866439D01*
X117218674Y-88066398D01*
X117296695Y-88254756D01*
X117409963Y-88424274D01*
X117554126Y-88568437D01*
X117723644Y-88681705D01*
X117912002Y-88759726D01*
X118111961Y-88799500D01*
X118315839Y-88799500D01*
X118515798Y-88759726D01*
X118704156Y-88681705D01*
X118873674Y-88568437D01*
X118917611Y-88524500D01*
X119951578Y-88524500D01*
X119988900Y-88528176D01*
X120026222Y-88524500D01*
X120026233Y-88524500D01*
X120137886Y-88513503D01*
X120281147Y-88470046D01*
X120413176Y-88399474D01*
X120467368Y-88355000D01*
X120535339Y-88355000D01*
X120735298Y-88315226D01*
X120923656Y-88237205D01*
X121093174Y-88123937D01*
X121237337Y-87979774D01*
X121350605Y-87810256D01*
X121428626Y-87621898D01*
X121468400Y-87421939D01*
X121468400Y-87218061D01*
X121428626Y-87018102D01*
X121358193Y-86848061D01*
X164178900Y-86848061D01*
X164178900Y-87051939D01*
X164218674Y-87251898D01*
X164296695Y-87440256D01*
X164409963Y-87609774D01*
X164554126Y-87753937D01*
X164723644Y-87867205D01*
X164912002Y-87945226D01*
X165111961Y-87985000D01*
X165315839Y-87985000D01*
X165416272Y-87965023D01*
X165413088Y-87975518D01*
X165400828Y-88100000D01*
X165403900Y-88251750D01*
X165562650Y-88410500D01*
X166386900Y-88410500D01*
X166386900Y-88390500D01*
X166640900Y-88390500D01*
X166640900Y-88410500D01*
X166660900Y-88410500D01*
X166660900Y-88664500D01*
X166640900Y-88664500D01*
X166640900Y-89451250D01*
X166799650Y-89610000D01*
X166988900Y-89613072D01*
X167113382Y-89600812D01*
X167233080Y-89564502D01*
X167343394Y-89505537D01*
X167425828Y-89437885D01*
X167425828Y-90349696D01*
X167438088Y-90474178D01*
X167474398Y-90593876D01*
X167533363Y-90704190D01*
X167612715Y-90800881D01*
X167709406Y-90880233D01*
X167819720Y-90939198D01*
X167939418Y-90975508D01*
X167953900Y-90976934D01*
X167953901Y-96122458D01*
X167939418Y-96123884D01*
X167819720Y-96160194D01*
X167709406Y-96219159D01*
X167612715Y-96298511D01*
X167533363Y-96395202D01*
X167474398Y-96505516D01*
X167438088Y-96625214D01*
X167425828Y-96749696D01*
X167425828Y-96764696D01*
X167398018Y-96764696D01*
X167376015Y-96737885D01*
X167246175Y-96631329D01*
X167098042Y-96552150D01*
X166937308Y-96503392D01*
X166770150Y-96486928D01*
X166257650Y-96486928D01*
X166090492Y-96503392D01*
X165929758Y-96552150D01*
X165781625Y-96631329D01*
X165651785Y-96737885D01*
X165545229Y-96867725D01*
X165466050Y-97015858D01*
X165417292Y-97176592D01*
X165400828Y-97343750D01*
X165400828Y-97781250D01*
X165417292Y-97948408D01*
X165466050Y-98109142D01*
X165545229Y-98257275D01*
X165563000Y-98278930D01*
X165508363Y-98345506D01*
X165449398Y-98455820D01*
X165413088Y-98575518D01*
X165400828Y-98700000D01*
X165403900Y-98851750D01*
X165562650Y-99010500D01*
X166386900Y-99010500D01*
X166386900Y-98990500D01*
X166640900Y-98990500D01*
X166640900Y-99010500D01*
X167465150Y-99010500D01*
X167623900Y-98851750D01*
X167625726Y-98761559D01*
X167709406Y-98830233D01*
X167819720Y-98889198D01*
X167939418Y-98925508D01*
X168002050Y-98931677D01*
X167978900Y-99048061D01*
X167978900Y-99169995D01*
X167939418Y-99173884D01*
X167819720Y-99210194D01*
X167709406Y-99269159D01*
X167612715Y-99348511D01*
X167584068Y-99383418D01*
X167465150Y-99264500D01*
X166640900Y-99264500D01*
X166640900Y-100051250D01*
X166799650Y-100210000D01*
X166988900Y-100213072D01*
X167113382Y-100200812D01*
X167233080Y-100164502D01*
X167343394Y-100105537D01*
X167425828Y-100037885D01*
X167425828Y-101349696D01*
X167438088Y-101474178D01*
X167474398Y-101593876D01*
X167533363Y-101704190D01*
X167612715Y-101800881D01*
X167709406Y-101880233D01*
X167819720Y-101939198D01*
X167939418Y-101975508D01*
X167953900Y-101976934D01*
X167953901Y-107122458D01*
X167939418Y-107123884D01*
X167819720Y-107160194D01*
X167709406Y-107219159D01*
X167612715Y-107298511D01*
X167533363Y-107395202D01*
X167474398Y-107505516D01*
X167438088Y-107625214D01*
X167425828Y-107749696D01*
X167425828Y-107764696D01*
X167398018Y-107764696D01*
X167376015Y-107737885D01*
X167246175Y-107631329D01*
X167098042Y-107552150D01*
X166937308Y-107503392D01*
X166770150Y-107486928D01*
X166257650Y-107486928D01*
X166090492Y-107503392D01*
X165929758Y-107552150D01*
X165781625Y-107631329D01*
X165651785Y-107737885D01*
X165545229Y-107867725D01*
X165466050Y-108015858D01*
X165417292Y-108176592D01*
X165400828Y-108343750D01*
X165400828Y-108781250D01*
X165417292Y-108948408D01*
X165466050Y-109109142D01*
X165545229Y-109257275D01*
X165563000Y-109278930D01*
X165508363Y-109345506D01*
X165449398Y-109455820D01*
X165413088Y-109575518D01*
X165400828Y-109700000D01*
X165403900Y-109851750D01*
X165562650Y-110010500D01*
X166386900Y-110010500D01*
X166386900Y-109990500D01*
X166640900Y-109990500D01*
X166640900Y-110010500D01*
X167465150Y-110010500D01*
X167623900Y-109851750D01*
X167625726Y-109761559D01*
X167709406Y-109830233D01*
X167819720Y-109889198D01*
X167939418Y-109925508D01*
X168063900Y-109937768D01*
X169363900Y-109937768D01*
X169488382Y-109925508D01*
X169608080Y-109889198D01*
X169718394Y-109830233D01*
X169815085Y-109750881D01*
X169894437Y-109654190D01*
X169953402Y-109543876D01*
X169989712Y-109424178D01*
X170001972Y-109299696D01*
X170001972Y-107749696D01*
X169989712Y-107625214D01*
X169953402Y-107505516D01*
X169894437Y-107395202D01*
X169815085Y-107298511D01*
X169718394Y-107219159D01*
X169608080Y-107160194D01*
X169488382Y-107123884D01*
X169473900Y-107122458D01*
X169473900Y-101976934D01*
X169488382Y-101975508D01*
X169608080Y-101939198D01*
X169718394Y-101880233D01*
X169815085Y-101800881D01*
X169894437Y-101704190D01*
X169953402Y-101593876D01*
X169989712Y-101474178D01*
X170001972Y-101349696D01*
X170001972Y-99799696D01*
X169989712Y-99675214D01*
X169958815Y-99573359D01*
X170009126Y-99451898D01*
X170048900Y-99251939D01*
X170048900Y-99048061D01*
X170009126Y-98848102D01*
X169931105Y-98659744D01*
X169909084Y-98626787D01*
X169953402Y-98543876D01*
X169989712Y-98424178D01*
X170001972Y-98299696D01*
X170001972Y-96749696D01*
X169989712Y-96625214D01*
X169953402Y-96505516D01*
X169894437Y-96395202D01*
X169815085Y-96298511D01*
X169718394Y-96219159D01*
X169608080Y-96160194D01*
X169488382Y-96123884D01*
X169473900Y-96122458D01*
X169473900Y-90976934D01*
X169488382Y-90975508D01*
X169608080Y-90939198D01*
X169718394Y-90880233D01*
X169815085Y-90800881D01*
X169894437Y-90704190D01*
X169953402Y-90593876D01*
X169959274Y-90574520D01*
X170011961Y-90585000D01*
X170215839Y-90585000D01*
X170415798Y-90545226D01*
X170604156Y-90467205D01*
X170773674Y-90353937D01*
X170917837Y-90209774D01*
X171031105Y-90040256D01*
X171109126Y-89851898D01*
X171148900Y-89651939D01*
X171148900Y-89448061D01*
X171109126Y-89248102D01*
X171031105Y-89059744D01*
X170917837Y-88890226D01*
X170773674Y-88746063D01*
X170604156Y-88632795D01*
X170415798Y-88554774D01*
X170215839Y-88515000D01*
X170011961Y-88515000D01*
X169939454Y-88529422D01*
X169894437Y-88445202D01*
X169815085Y-88348511D01*
X169718394Y-88269159D01*
X169635495Y-88224848D01*
X169718394Y-88180537D01*
X169815085Y-88101185D01*
X169894437Y-88004494D01*
X169953402Y-87894180D01*
X169989712Y-87774482D01*
X170001972Y-87650000D01*
X170001972Y-86100000D01*
X169989712Y-85975518D01*
X169953402Y-85855820D01*
X169894437Y-85745506D01*
X169815085Y-85648815D01*
X169718394Y-85569463D01*
X169608080Y-85510498D01*
X169488382Y-85474188D01*
X169473900Y-85472762D01*
X169473900Y-80327238D01*
X169488382Y-80325812D01*
X169608080Y-80289502D01*
X169718394Y-80230537D01*
X169815085Y-80151185D01*
X169894437Y-80054494D01*
X169953402Y-79944180D01*
X169989712Y-79824482D01*
X170001972Y-79700000D01*
X170001972Y-78728363D01*
X170178900Y-78728363D01*
X170178900Y-78971637D01*
X170226360Y-79210236D01*
X170319457Y-79434992D01*
X170454613Y-79637267D01*
X170626633Y-79809287D01*
X170828908Y-79944443D01*
X171053664Y-80037540D01*
X171292263Y-80085000D01*
X171535537Y-80085000D01*
X171774136Y-80037540D01*
X171900979Y-79985000D01*
X171996217Y-79985000D01*
X172033363Y-80054494D01*
X172112715Y-80151185D01*
X172209406Y-80230537D01*
X172319720Y-80289502D01*
X172439418Y-80325812D01*
X172563900Y-80338072D01*
X173296841Y-80338072D01*
X173978900Y-81020132D01*
X173978901Y-85473254D01*
X173863900Y-85461928D01*
X172563900Y-85461928D01*
X172439418Y-85474188D01*
X172319720Y-85510498D01*
X172209406Y-85569463D01*
X172112715Y-85648815D01*
X172033363Y-85745506D01*
X171974398Y-85855820D01*
X171938088Y-85975518D01*
X171925828Y-86100000D01*
X171925828Y-87650000D01*
X171938088Y-87774482D01*
X171974398Y-87894180D01*
X172033363Y-88004494D01*
X172112715Y-88101185D01*
X172209406Y-88180537D01*
X172292305Y-88224848D01*
X172209406Y-88269159D01*
X172112715Y-88348511D01*
X172033363Y-88445202D01*
X171974398Y-88555516D01*
X171938088Y-88675214D01*
X171925828Y-88799696D01*
X171925828Y-90349696D01*
X171938088Y-90474178D01*
X171974398Y-90593876D01*
X172033363Y-90704190D01*
X172112715Y-90800881D01*
X172209406Y-90880233D01*
X172319720Y-90939198D01*
X172439418Y-90975508D01*
X172563900Y-90987768D01*
X173863900Y-90987768D01*
X173978900Y-90976442D01*
X173978901Y-96122950D01*
X173863900Y-96111624D01*
X172563900Y-96111624D01*
X172439418Y-96123884D01*
X172319720Y-96160194D01*
X172209406Y-96219159D01*
X172112715Y-96298511D01*
X172033363Y-96395202D01*
X171974398Y-96505516D01*
X171938088Y-96625214D01*
X171925828Y-96749696D01*
X171925828Y-98299696D01*
X171938088Y-98424178D01*
X171974398Y-98543876D01*
X172033363Y-98654190D01*
X172112715Y-98750881D01*
X172209406Y-98830233D01*
X172319720Y-98889198D01*
X172439418Y-98925508D01*
X172563900Y-98937768D01*
X173863900Y-98937768D01*
X173978900Y-98926442D01*
X173978901Y-99172950D01*
X173863900Y-99161624D01*
X172563900Y-99161624D01*
X172439418Y-99173884D01*
X172395788Y-99187119D01*
X172198892Y-99055557D01*
X171974136Y-98962460D01*
X171735537Y-98915000D01*
X171492263Y-98915000D01*
X171253664Y-98962460D01*
X171028908Y-99055557D01*
X170826633Y-99190713D01*
X170654613Y-99362733D01*
X170519457Y-99565008D01*
X170426360Y-99789764D01*
X170378900Y-100028363D01*
X170378900Y-100271637D01*
X170426360Y-100510236D01*
X170519457Y-100734992D01*
X170654613Y-100937267D01*
X170826633Y-101109287D01*
X171028908Y-101244443D01*
X171253664Y-101337540D01*
X171492263Y-101385000D01*
X171735537Y-101385000D01*
X171925828Y-101347149D01*
X171925828Y-101349696D01*
X171938088Y-101474178D01*
X171974398Y-101593876D01*
X172033363Y-101704190D01*
X172112715Y-101800881D01*
X172209406Y-101880233D01*
X172319720Y-101939198D01*
X172439418Y-101975508D01*
X172563900Y-101987768D01*
X173863900Y-101987768D01*
X173978900Y-101976442D01*
X173978901Y-105779867D01*
X172647145Y-107111624D01*
X172563900Y-107111624D01*
X172439418Y-107123884D01*
X172319720Y-107160194D01*
X172209406Y-107219159D01*
X172112715Y-107298511D01*
X172033363Y-107395202D01*
X171974398Y-107505516D01*
X171938088Y-107625214D01*
X171925828Y-107749696D01*
X171925828Y-109299696D01*
X171938088Y-109424178D01*
X171974398Y-109543876D01*
X172033363Y-109654190D01*
X172112715Y-109750881D01*
X172209406Y-109830233D01*
X172319720Y-109889198D01*
X172439418Y-109925508D01*
X172563900Y-109937768D01*
X173863900Y-109937768D01*
X173988382Y-109925508D01*
X174108080Y-109889198D01*
X174218394Y-109830233D01*
X174315085Y-109750881D01*
X174394437Y-109654190D01*
X174453402Y-109543876D01*
X174489712Y-109424178D01*
X174501972Y-109299696D01*
X174501972Y-108467059D01*
X175877041Y-107091991D01*
X175920349Y-107056449D01*
X176062184Y-106883623D01*
X176167576Y-106686447D01*
X176232477Y-106472499D01*
X176248900Y-106305752D01*
X176254391Y-106250000D01*
X176248900Y-106194248D01*
X176248900Y-100880437D01*
X176254390Y-100824695D01*
X176248900Y-100768953D01*
X176248900Y-97505752D01*
X176254391Y-97450000D01*
X176248900Y-97394248D01*
X176248900Y-89705752D01*
X176254391Y-89650000D01*
X176248900Y-89594248D01*
X176248900Y-86805752D01*
X176254391Y-86750000D01*
X176248900Y-86694248D01*
X176248900Y-80605751D01*
X176254391Y-80549999D01*
X176232477Y-80327501D01*
X176167576Y-80113553D01*
X176149440Y-80079623D01*
X176062184Y-79916377D01*
X175920349Y-79743551D01*
X175877040Y-79708009D01*
X174501972Y-78332941D01*
X174501972Y-78150000D01*
X174489712Y-78025518D01*
X174453402Y-77905820D01*
X174394437Y-77795506D01*
X174315085Y-77698815D01*
X174218394Y-77619463D01*
X174108080Y-77560498D01*
X173988382Y-77524188D01*
X173863900Y-77511928D01*
X172563900Y-77511928D01*
X172439418Y-77524188D01*
X172319720Y-77560498D01*
X172209406Y-77619463D01*
X172112715Y-77698815D01*
X172099432Y-77715000D01*
X171900979Y-77715000D01*
X171774136Y-77662460D01*
X171535537Y-77615000D01*
X171292263Y-77615000D01*
X171053664Y-77662460D01*
X170828908Y-77755557D01*
X170626633Y-77890713D01*
X170454613Y-78062733D01*
X170319457Y-78265008D01*
X170226360Y-78489764D01*
X170178900Y-78728363D01*
X170001972Y-78728363D01*
X170001972Y-78150000D01*
X169989712Y-78025518D01*
X169953402Y-77905820D01*
X169894437Y-77795506D01*
X169815085Y-77698815D01*
X169718394Y-77619463D01*
X169608080Y-77560498D01*
X169488382Y-77524188D01*
X169363900Y-77511928D01*
X168063900Y-77511928D01*
X167939418Y-77524188D01*
X167819720Y-77560498D01*
X167709406Y-77619463D01*
X167612715Y-77698815D01*
X167533363Y-77795506D01*
X167474398Y-77905820D01*
X167438088Y-78025518D01*
X167425828Y-78150000D01*
X167425828Y-79700000D01*
X167438088Y-79824482D01*
X167474398Y-79944180D01*
X167533363Y-80054494D01*
X167612715Y-80151185D01*
X167709406Y-80230537D01*
X167819720Y-80289502D01*
X167939418Y-80325812D01*
X167953900Y-80327238D01*
X167953901Y-85472762D01*
X167939418Y-85474188D01*
X167819720Y-85510498D01*
X167709406Y-85569463D01*
X167612715Y-85648815D01*
X167533363Y-85745506D01*
X167474398Y-85855820D01*
X167438088Y-85975518D01*
X167425828Y-86100000D01*
X167425828Y-86198583D01*
X167376015Y-86137885D01*
X167246175Y-86031329D01*
X167098042Y-85952150D01*
X166937308Y-85903392D01*
X166770150Y-85886928D01*
X166257650Y-85886928D01*
X166090492Y-85903392D01*
X165929758Y-85952150D01*
X165781625Y-86031329D01*
X165745873Y-86060669D01*
X165704156Y-86032795D01*
X165515798Y-85954774D01*
X165315839Y-85915000D01*
X165111961Y-85915000D01*
X164912002Y-85954774D01*
X164723644Y-86032795D01*
X164554126Y-86146063D01*
X164409963Y-86290226D01*
X164296695Y-86459744D01*
X164218674Y-86648102D01*
X164178900Y-86848061D01*
X121358193Y-86848061D01*
X121350605Y-86829744D01*
X121237337Y-86660226D01*
X121093174Y-86516063D01*
X120923656Y-86402795D01*
X120735298Y-86324774D01*
X120535339Y-86285000D01*
X120331461Y-86285000D01*
X120131502Y-86324774D01*
X119943144Y-86402795D01*
X119773626Y-86516063D01*
X119629463Y-86660226D01*
X119516195Y-86829744D01*
X119443808Y-87004500D01*
X118917611Y-87004500D01*
X118873674Y-86960563D01*
X118704156Y-86847295D01*
X118515798Y-86769274D01*
X118315839Y-86729500D01*
X118111961Y-86729500D01*
X117912002Y-86769274D01*
X117723644Y-86847295D01*
X117554126Y-86960563D01*
X117409963Y-87104726D01*
X117296695Y-87274244D01*
X117218674Y-87462602D01*
X117178900Y-87662561D01*
X93873900Y-87662561D01*
X93873900Y-76810000D01*
X99246319Y-76810000D01*
X99276653Y-76807012D01*
X99301643Y-76807187D01*
X99310814Y-76806287D01*
X100087202Y-76724685D01*
X100145771Y-76712662D01*
X100204557Y-76701449D01*
X100213379Y-76698785D01*
X100959129Y-76467937D01*
X101014259Y-76444762D01*
X101069738Y-76422348D01*
X101077874Y-76418021D01*
X101764584Y-76046718D01*
X101814168Y-76013273D01*
X101864231Y-75980513D01*
X101871372Y-75974689D01*
X102472883Y-75477076D01*
X102515040Y-75434624D01*
X102557773Y-75392777D01*
X102563641Y-75385682D01*
X102563647Y-75385676D01*
X102563651Y-75385669D01*
X103057048Y-74780706D01*
X103090130Y-74730913D01*
X103123948Y-74681524D01*
X103128330Y-74673417D01*
X103494830Y-73984133D01*
X103517629Y-73928818D01*
X103517931Y-73928113D01*
X103428900Y-74375701D01*
X103428900Y-74924299D01*
X103535926Y-75462354D01*
X103745865Y-75969192D01*
X104050650Y-76425334D01*
X104438566Y-76813250D01*
X104894708Y-77118035D01*
X105401546Y-77327974D01*
X105939601Y-77435000D01*
X106488199Y-77435000D01*
X107026254Y-77327974D01*
X107533092Y-77118035D01*
X107989234Y-76813250D01*
X108377150Y-76425334D01*
X108681935Y-75969192D01*
X108891874Y-75462354D01*
X108998900Y-74924299D01*
X108998900Y-74375701D01*
X108922252Y-73990363D01*
X117420400Y-73990363D01*
X117420400Y-74233637D01*
X117467860Y-74472236D01*
X117520400Y-74599079D01*
X117520401Y-78958919D01*
X117467860Y-79085764D01*
X117420400Y-79324363D01*
X117420400Y-79567637D01*
X117467860Y-79806236D01*
X117560957Y-80030992D01*
X117696113Y-80233267D01*
X117868133Y-80405287D01*
X118070408Y-80540443D01*
X118295164Y-80633540D01*
X118533763Y-80681000D01*
X118777037Y-80681000D01*
X119015636Y-80633540D01*
X119240392Y-80540443D01*
X119442667Y-80405287D01*
X119614687Y-80233267D01*
X119749843Y-80030992D01*
X119842940Y-79806236D01*
X119890400Y-79567637D01*
X119890400Y-79324363D01*
X119842940Y-79085764D01*
X119790400Y-78958921D01*
X119790400Y-78788212D01*
X120828900Y-78788212D01*
X120828900Y-79011788D01*
X120872517Y-79231067D01*
X120958076Y-79437624D01*
X121082288Y-79623520D01*
X121240380Y-79781612D01*
X121426276Y-79905824D01*
X121632833Y-79991383D01*
X121852112Y-80035000D01*
X121953901Y-80035000D01*
X121953901Y-80196288D01*
X121909963Y-80240226D01*
X121796695Y-80409744D01*
X121718674Y-80598102D01*
X121678900Y-80798061D01*
X121678900Y-81001939D01*
X121718674Y-81201898D01*
X121796695Y-81390256D01*
X121909963Y-81559774D01*
X122054126Y-81703937D01*
X122223644Y-81817205D01*
X122412002Y-81895226D01*
X122611961Y-81935000D01*
X122815839Y-81935000D01*
X123015798Y-81895226D01*
X123204156Y-81817205D01*
X123373674Y-81703937D01*
X123517837Y-81559774D01*
X123631105Y-81390256D01*
X123709126Y-81201898D01*
X123748900Y-81001939D01*
X123748900Y-80798061D01*
X123709126Y-80598102D01*
X123668491Y-80500000D01*
X135025828Y-80500000D01*
X135028900Y-81114250D01*
X135187650Y-81273000D01*
X135495558Y-81273000D01*
X135494041Y-81343807D01*
X135491684Y-81346164D01*
X135492837Y-81400000D01*
X135491684Y-81453836D01*
X135494041Y-81456193D01*
X135495558Y-81527000D01*
X135187650Y-81527000D01*
X135028900Y-81685750D01*
X135025828Y-82300000D01*
X135038088Y-82424482D01*
X135074398Y-82544180D01*
X135133363Y-82654494D01*
X135212715Y-82751185D01*
X135309406Y-82830537D01*
X135419720Y-82889502D01*
X135539418Y-82925812D01*
X135663900Y-82938072D01*
X136178150Y-82935000D01*
X136240316Y-82872834D01*
X136332074Y-82834827D01*
X136333251Y-82779899D01*
X136336900Y-82776250D01*
X136336900Y-82470484D01*
X136417736Y-82472216D01*
X136463900Y-82426052D01*
X136510064Y-82472216D01*
X136590900Y-82470484D01*
X136590900Y-82776250D01*
X136594549Y-82779899D01*
X136595726Y-82834827D01*
X136687244Y-82872594D01*
X136749650Y-82935000D01*
X137263900Y-82938072D01*
X137388382Y-82925812D01*
X137508080Y-82889502D01*
X137618394Y-82830537D01*
X137715085Y-82751185D01*
X137794437Y-82654494D01*
X137853402Y-82544180D01*
X137889712Y-82424482D01*
X137901972Y-82300000D01*
X137898900Y-81685750D01*
X137740150Y-81527000D01*
X137432242Y-81527000D01*
X137433759Y-81456193D01*
X137436116Y-81453836D01*
X137434963Y-81400000D01*
X137436116Y-81346164D01*
X137433759Y-81343807D01*
X137432242Y-81273000D01*
X137740150Y-81273000D01*
X137898900Y-81114250D01*
X137901972Y-80500000D01*
X137889712Y-80375518D01*
X137853402Y-80255820D01*
X137794437Y-80145506D01*
X137715085Y-80048815D01*
X137618394Y-79969463D01*
X137508080Y-79910498D01*
X137388382Y-79874188D01*
X137263900Y-79861928D01*
X136749650Y-79865000D01*
X136687484Y-79927166D01*
X136595726Y-79965173D01*
X136594549Y-80020101D01*
X136590900Y-80023750D01*
X136590900Y-80329516D01*
X136510064Y-80327784D01*
X136463900Y-80373948D01*
X136417736Y-80327784D01*
X136336900Y-80329516D01*
X136336900Y-80023750D01*
X136333251Y-80020101D01*
X136332074Y-79965173D01*
X136240556Y-79927406D01*
X136178150Y-79865000D01*
X135663900Y-79861928D01*
X135539418Y-79874188D01*
X135419720Y-79910498D01*
X135309406Y-79969463D01*
X135212715Y-80048815D01*
X135133363Y-80145506D01*
X135074398Y-80255820D01*
X135038088Y-80375518D01*
X135025828Y-80500000D01*
X123668491Y-80500000D01*
X123631105Y-80409744D01*
X123517837Y-80240226D01*
X123473900Y-80196289D01*
X123473900Y-79687322D01*
X123477576Y-79649999D01*
X123473900Y-79612676D01*
X123473900Y-79612667D01*
X123462903Y-79501014D01*
X123419446Y-79357753D01*
X123348874Y-79225724D01*
X123253901Y-79109999D01*
X123224902Y-79086201D01*
X123098900Y-78960198D01*
X123098900Y-78788212D01*
X123055283Y-78568933D01*
X122969724Y-78362376D01*
X122845512Y-78176480D01*
X122687420Y-78018388D01*
X122501524Y-77894176D01*
X122294967Y-77808617D01*
X122075688Y-77765000D01*
X121852112Y-77765000D01*
X121632833Y-77808617D01*
X121426276Y-77894176D01*
X121240380Y-78018388D01*
X121082288Y-78176480D01*
X120958076Y-78362376D01*
X120872517Y-78568933D01*
X120828900Y-78788212D01*
X119790400Y-78788212D01*
X119790400Y-74599079D01*
X119842940Y-74472236D01*
X119890400Y-74233637D01*
X119890400Y-73990363D01*
X119842940Y-73751764D01*
X119749843Y-73527008D01*
X119614687Y-73324733D01*
X119442667Y-73152713D01*
X119240392Y-73017557D01*
X119015636Y-72924460D01*
X118777037Y-72877000D01*
X118533763Y-72877000D01*
X118295164Y-72924460D01*
X118070408Y-73017557D01*
X117868133Y-73152713D01*
X117696113Y-73324733D01*
X117560957Y-73527008D01*
X117467860Y-73751764D01*
X117420400Y-73990363D01*
X108922252Y-73990363D01*
X108891874Y-73837646D01*
X108681935Y-73330808D01*
X108377150Y-72874666D01*
X107989234Y-72486750D01*
X107533092Y-72181965D01*
X107026254Y-71972026D01*
X106488199Y-71865000D01*
X105939601Y-71865000D01*
X105401546Y-71972026D01*
X104894708Y-72181965D01*
X104438566Y-72486750D01*
X104050650Y-72874666D01*
X103745865Y-73330808D01*
X103595905Y-73692843D01*
X103769552Y-73117698D01*
X103781177Y-73058989D01*
X103793608Y-73000506D01*
X103794571Y-72991341D01*
X103870750Y-72214404D01*
X103870750Y-72214402D01*
X103873900Y-72182419D01*
X103873900Y-71000500D01*
X120561815Y-71000500D01*
X120590487Y-71291611D01*
X120675401Y-71571534D01*
X120813294Y-71829514D01*
X120998866Y-72055634D01*
X121224986Y-72241206D01*
X121279791Y-72270500D01*
X121224986Y-72299794D01*
X120998866Y-72485366D01*
X120813294Y-72711486D01*
X120675401Y-72969466D01*
X120590487Y-73249389D01*
X120561815Y-73540500D01*
X120590487Y-73831611D01*
X120675401Y-74111534D01*
X120813294Y-74369514D01*
X120998866Y-74595634D01*
X121224986Y-74781206D01*
X121482966Y-74919099D01*
X121762889Y-75004013D01*
X121981050Y-75025500D01*
X122126950Y-75025500D01*
X122345111Y-75004013D01*
X122625034Y-74919099D01*
X122883014Y-74781206D01*
X123109134Y-74595634D01*
X123294706Y-74369514D01*
X123324000Y-74314709D01*
X123353294Y-74369514D01*
X123538866Y-74595634D01*
X123764986Y-74781206D01*
X124022966Y-74919099D01*
X124302889Y-75004013D01*
X124521050Y-75025500D01*
X124666950Y-75025500D01*
X124885111Y-75004013D01*
X125165034Y-74919099D01*
X125423014Y-74781206D01*
X125649134Y-74595634D01*
X125834706Y-74369514D01*
X125864000Y-74314709D01*
X125893294Y-74369514D01*
X126078866Y-74595634D01*
X126304986Y-74781206D01*
X126562966Y-74919099D01*
X126842889Y-75004013D01*
X127061050Y-75025500D01*
X127206950Y-75025500D01*
X127425111Y-75004013D01*
X127705034Y-74919099D01*
X127963014Y-74781206D01*
X128189134Y-74595634D01*
X128374706Y-74369514D01*
X128404000Y-74314709D01*
X128433294Y-74369514D01*
X128618866Y-74595634D01*
X128844986Y-74781206D01*
X129102966Y-74919099D01*
X129382889Y-75004013D01*
X129601050Y-75025500D01*
X129746950Y-75025500D01*
X129965111Y-75004013D01*
X130245034Y-74919099D01*
X130503014Y-74781206D01*
X130729134Y-74595634D01*
X130753607Y-74565813D01*
X130774498Y-74634680D01*
X130833463Y-74744994D01*
X130912815Y-74841685D01*
X131009506Y-74921037D01*
X131119820Y-74980002D01*
X131239518Y-75016312D01*
X131364000Y-75028572D01*
X133064000Y-75028572D01*
X133188482Y-75016312D01*
X133308180Y-74980002D01*
X133418494Y-74921037D01*
X133515185Y-74841685D01*
X133594537Y-74744994D01*
X133653502Y-74634680D01*
X133689812Y-74514982D01*
X133702072Y-74390500D01*
X133702072Y-72690500D01*
X133689812Y-72566018D01*
X133653502Y-72446320D01*
X133594537Y-72336006D01*
X133515185Y-72239315D01*
X133418494Y-72159963D01*
X133308180Y-72100998D01*
X133239313Y-72080107D01*
X133269134Y-72055634D01*
X133454706Y-71829514D01*
X133572038Y-71610000D01*
X138721815Y-71610000D01*
X138750487Y-71901111D01*
X138835401Y-72181034D01*
X138973294Y-72439014D01*
X139158866Y-72665134D01*
X139188687Y-72689607D01*
X139119820Y-72710498D01*
X139009506Y-72769463D01*
X138912815Y-72848815D01*
X138833463Y-72945506D01*
X138774498Y-73055820D01*
X138738188Y-73175518D01*
X138725928Y-73300000D01*
X138725928Y-75000000D01*
X138738188Y-75124482D01*
X138774498Y-75244180D01*
X138833463Y-75354494D01*
X138912815Y-75451185D01*
X139009506Y-75530537D01*
X139119820Y-75589502D01*
X139239518Y-75625812D01*
X139364000Y-75638072D01*
X141064000Y-75638072D01*
X141188482Y-75625812D01*
X141308180Y-75589502D01*
X141418494Y-75530537D01*
X141515185Y-75451185D01*
X141594537Y-75354494D01*
X141653502Y-75244180D01*
X141689812Y-75124482D01*
X141702072Y-75000000D01*
X141702072Y-74375701D01*
X175428900Y-74375701D01*
X175428900Y-74924299D01*
X175535926Y-75462354D01*
X175745865Y-75969192D01*
X176050650Y-76425334D01*
X176438566Y-76813250D01*
X176894708Y-77118035D01*
X177401546Y-77327974D01*
X177939601Y-77435000D01*
X178488199Y-77435000D01*
X179026254Y-77327974D01*
X179533092Y-77118035D01*
X179989234Y-76813250D01*
X180377150Y-76425334D01*
X180681935Y-75969192D01*
X180891874Y-75462354D01*
X180998900Y-74924299D01*
X180998900Y-74375701D01*
X180891874Y-73837646D01*
X180681935Y-73330808D01*
X180377150Y-72874666D01*
X179989234Y-72486750D01*
X179533092Y-72181965D01*
X179026254Y-71972026D01*
X178488199Y-71865000D01*
X177939601Y-71865000D01*
X177401546Y-71972026D01*
X176894708Y-72181965D01*
X176438566Y-72486750D01*
X176050650Y-72874666D01*
X175745865Y-73330808D01*
X175535926Y-73837646D01*
X175428900Y-74375701D01*
X141702072Y-74375701D01*
X141702072Y-73300000D01*
X141689812Y-73175518D01*
X141653502Y-73055820D01*
X141594537Y-72945506D01*
X141515185Y-72848815D01*
X141418494Y-72769463D01*
X141308180Y-72710498D01*
X141239313Y-72689607D01*
X141269134Y-72665134D01*
X141454706Y-72439014D01*
X141592599Y-72181034D01*
X141677513Y-71901111D01*
X141706185Y-71610000D01*
X141677513Y-71318889D01*
X141592599Y-71038966D01*
X141454706Y-70780986D01*
X141269134Y-70554866D01*
X141043014Y-70369294D01*
X140785034Y-70231401D01*
X140505111Y-70146487D01*
X140286950Y-70125000D01*
X140141050Y-70125000D01*
X139922889Y-70146487D01*
X139642966Y-70231401D01*
X139384986Y-70369294D01*
X139158866Y-70554866D01*
X138973294Y-70780986D01*
X138835401Y-71038966D01*
X138750487Y-71318889D01*
X138721815Y-71610000D01*
X133572038Y-71610000D01*
X133592599Y-71571534D01*
X133677513Y-71291611D01*
X133706185Y-71000500D01*
X133677513Y-70709389D01*
X133592599Y-70429466D01*
X133454706Y-70171486D01*
X133269134Y-69945366D01*
X133043014Y-69759794D01*
X132785034Y-69621901D01*
X132505111Y-69536987D01*
X132286950Y-69515500D01*
X132141050Y-69515500D01*
X131922889Y-69536987D01*
X131642966Y-69621901D01*
X131384986Y-69759794D01*
X131158866Y-69945366D01*
X130973294Y-70171486D01*
X130938799Y-70236023D01*
X130869178Y-70119145D01*
X130674269Y-69902912D01*
X130440920Y-69728859D01*
X130178099Y-69603675D01*
X130030890Y-69559024D01*
X129801000Y-69680345D01*
X129801000Y-70873500D01*
X129821000Y-70873500D01*
X129821000Y-71127500D01*
X129801000Y-71127500D01*
X129801000Y-71147500D01*
X129547000Y-71147500D01*
X129547000Y-71127500D01*
X129527000Y-71127500D01*
X129527000Y-70873500D01*
X129547000Y-70873500D01*
X129547000Y-69680345D01*
X129317110Y-69559024D01*
X129169901Y-69603675D01*
X128907080Y-69728859D01*
X128673731Y-69902912D01*
X128478822Y-70119145D01*
X128409201Y-70236023D01*
X128374706Y-70171486D01*
X128189134Y-69945366D01*
X127963014Y-69759794D01*
X127705034Y-69621901D01*
X127425111Y-69536987D01*
X127206950Y-69515500D01*
X127061050Y-69515500D01*
X126842889Y-69536987D01*
X126562966Y-69621901D01*
X126304986Y-69759794D01*
X126078866Y-69945366D01*
X125893294Y-70171486D01*
X125864000Y-70226291D01*
X125834706Y-70171486D01*
X125649134Y-69945366D01*
X125423014Y-69759794D01*
X125165034Y-69621901D01*
X124885111Y-69536987D01*
X124666950Y-69515500D01*
X124521050Y-69515500D01*
X124302889Y-69536987D01*
X124022966Y-69621901D01*
X123764986Y-69759794D01*
X123538866Y-69945366D01*
X123353294Y-70171486D01*
X123324000Y-70226291D01*
X123294706Y-70171486D01*
X123109134Y-69945366D01*
X122883014Y-69759794D01*
X122625034Y-69621901D01*
X122345111Y-69536987D01*
X122126950Y-69515500D01*
X121981050Y-69515500D01*
X121762889Y-69536987D01*
X121482966Y-69621901D01*
X121224986Y-69759794D01*
X120998866Y-69945366D01*
X120813294Y-70171486D01*
X120675401Y-70429466D01*
X120590487Y-70709389D01*
X120561815Y-71000500D01*
X103873900Y-71000500D01*
X103873900Y-66310000D01*
X180553900Y-66310000D01*
X180553901Y-71182419D01*
G36*
X153593901Y-93916549D02*
G01*
X153473076Y-94097376D01*
X153387517Y-94303933D01*
X153343900Y-94523212D01*
X153343900Y-94746788D01*
X153347523Y-94765000D01*
X146151972Y-94765000D01*
X146151972Y-94650000D01*
X146139712Y-94525518D01*
X146116804Y-94450000D01*
X146139712Y-94374482D01*
X146151972Y-94250000D01*
X146151972Y-93850000D01*
X146139712Y-93725518D01*
X146116804Y-93650000D01*
X146139712Y-93574482D01*
X146151972Y-93450000D01*
X146151972Y-93050000D01*
X146139712Y-92925518D01*
X146116804Y-92850000D01*
X146139712Y-92774482D01*
X146151972Y-92650000D01*
X146151972Y-92250000D01*
X146139712Y-92125518D01*
X146116761Y-92049859D01*
X146139000Y-91978006D01*
X146148900Y-91881750D01*
X146052150Y-91785000D01*
X153593900Y-91785000D01*
X153593901Y-93916549D01*
X153593901Y-93916549D01*
G37*
X153593901Y-93916549D02*
X153473076Y-94097376D01*
X153387517Y-94303933D01*
X153343900Y-94523212D01*
X153343900Y-94746788D01*
X153347523Y-94765000D01*
X146151972Y-94765000D01*
X146151972Y-94650000D01*
X146139712Y-94525518D01*
X146116804Y-94450000D01*
X146139712Y-94374482D01*
X146151972Y-94250000D01*
X146151972Y-93850000D01*
X146139712Y-93725518D01*
X146116804Y-93650000D01*
X146139712Y-93574482D01*
X146151972Y-93450000D01*
X146151972Y-93050000D01*
X146139712Y-92925518D01*
X146116804Y-92850000D01*
X146139712Y-92774482D01*
X146151972Y-92650000D01*
X146151972Y-92250000D01*
X146139712Y-92125518D01*
X146116761Y-92049859D01*
X146139000Y-91978006D01*
X146148900Y-91881750D01*
X146052150Y-91785000D01*
X153593900Y-91785000D01*
X153593901Y-93916549D01*
G36*
X136510064Y-81172216D02*
G01*
X136590900Y-81170484D01*
X136590900Y-81273000D01*
X136595558Y-81273000D01*
X136594041Y-81343807D01*
X136591684Y-81346164D01*
X136592837Y-81400000D01*
X136591684Y-81453836D01*
X136594041Y-81456193D01*
X136595558Y-81527000D01*
X136590900Y-81527000D01*
X136590900Y-81629516D01*
X136510064Y-81627784D01*
X136463900Y-81673948D01*
X136417736Y-81627784D01*
X136336900Y-81629516D01*
X136336900Y-81527000D01*
X136332242Y-81527000D01*
X136333759Y-81456193D01*
X136336116Y-81453836D01*
X136334963Y-81400000D01*
X136336116Y-81346164D01*
X136333759Y-81343807D01*
X136332242Y-81273000D01*
X136336900Y-81273000D01*
X136336900Y-81170484D01*
X136417736Y-81172216D01*
X136463900Y-81126052D01*
X136510064Y-81172216D01*
X136510064Y-81172216D01*
G37*
X136510064Y-81172216D02*
X136590900Y-81170484D01*
X136590900Y-81273000D01*
X136595558Y-81273000D01*
X136594041Y-81343807D01*
X136591684Y-81346164D01*
X136592837Y-81400000D01*
X136591684Y-81453836D01*
X136594041Y-81456193D01*
X136595558Y-81527000D01*
X136590900Y-81527000D01*
X136590900Y-81629516D01*
X136510064Y-81627784D01*
X136463900Y-81673948D01*
X136417736Y-81627784D01*
X136336900Y-81629516D01*
X136336900Y-81527000D01*
X136332242Y-81527000D01*
X136333759Y-81456193D01*
X136336116Y-81453836D01*
X136334963Y-81400000D01*
X136336116Y-81346164D01*
X136333759Y-81343807D01*
X136332242Y-81273000D01*
X136336900Y-81273000D01*
X136336900Y-81170484D01*
X136417736Y-81172216D01*
X136463900Y-81126052D01*
X136510064Y-81172216D01*
M02*
