%TF.GenerationSoftware,KiCad,Pcbnew,(5.1.4)-1*%
%TF.CreationDate,2020-03-29T09:51:50+13:00*%
%TF.ProjectId,clock,636c6f63-6b2e-46b6-9963-61645f706362,rev?*%
%TF.SameCoordinates,Original*%
%TF.FileFunction,Legend,Bot*%
%TF.FilePolarity,Positive*%
%FSLAX46Y46*%
G04 Gerber Fmt 4.6, Leading zero omitted, Abs format (unit mm)*
G04 Created by KiCad (PCBNEW (5.1.4)-1) date 2020-03-29 09:51:50*
%MOMM*%
%LPD*%
G04 APERTURE LIST*
%ADD10C,0.200000*%
%ADD11C,0.150000*%
%ADD12C,0.050000*%
%ADD13C,0.010000*%
%ADD14C,0.120000*%
%ADD15C,0.254000*%
%ADD16C,0.101600*%
G04 APERTURE END LIST*
D10*
X185796042Y-78765714D02*
X185867471Y-78980000D01*
X185867471Y-79337142D01*
X185796042Y-79480000D01*
X185724614Y-79551428D01*
X185581757Y-79622857D01*
X185438900Y-79622857D01*
X185296042Y-79551428D01*
X185224614Y-79480000D01*
X185153185Y-79337142D01*
X185081757Y-79051428D01*
X185010328Y-78908571D01*
X184938900Y-78837142D01*
X184796042Y-78765714D01*
X184653185Y-78765714D01*
X184510328Y-78837142D01*
X184438900Y-78908571D01*
X184367471Y-79051428D01*
X184367471Y-79408571D01*
X184438900Y-79622857D01*
X184367471Y-80051428D02*
X184367471Y-80908571D01*
X185867471Y-80480000D02*
X184367471Y-80480000D01*
X185867471Y-81408571D02*
X184367471Y-81408571D01*
X185438900Y-81908571D01*
X184367471Y-82408571D01*
X185867471Y-82408571D01*
X184367471Y-82980000D02*
X184367471Y-83908571D01*
X184938900Y-83408571D01*
X184938900Y-83622857D01*
X185010328Y-83765714D01*
X185081757Y-83837142D01*
X185224614Y-83908571D01*
X185581757Y-83908571D01*
X185724614Y-83837142D01*
X185796042Y-83765714D01*
X185867471Y-83622857D01*
X185867471Y-83194285D01*
X185796042Y-83051428D01*
X185724614Y-82980000D01*
X184510328Y-84480000D02*
X184438900Y-84551428D01*
X184367471Y-84694285D01*
X184367471Y-85051428D01*
X184438900Y-85194285D01*
X184510328Y-85265714D01*
X184653185Y-85337142D01*
X184796042Y-85337142D01*
X185010328Y-85265714D01*
X185867471Y-84408571D01*
X185867471Y-85337142D01*
X185081757Y-86480000D02*
X185081757Y-85980000D01*
X185867471Y-85980000D02*
X184367471Y-85980000D01*
X184367471Y-86694285D01*
X185867471Y-88051428D02*
X185867471Y-87194285D01*
X185867471Y-87622857D02*
X184367471Y-87622857D01*
X184581757Y-87480000D01*
X184724614Y-87337142D01*
X184796042Y-87194285D01*
X184367471Y-88980000D02*
X184367471Y-89122857D01*
X184438900Y-89265714D01*
X184510328Y-89337142D01*
X184653185Y-89408571D01*
X184938900Y-89480000D01*
X185296042Y-89480000D01*
X185581757Y-89408571D01*
X185724614Y-89337142D01*
X185796042Y-89265714D01*
X185867471Y-89122857D01*
X185867471Y-88980000D01*
X185796042Y-88837142D01*
X185724614Y-88765714D01*
X185581757Y-88694285D01*
X185296042Y-88622857D01*
X184938900Y-88622857D01*
X184653185Y-88694285D01*
X184510328Y-88765714D01*
X184438900Y-88837142D01*
X184367471Y-88980000D01*
X184367471Y-89980000D02*
X184367471Y-90908571D01*
X184938900Y-90408571D01*
X184938900Y-90622857D01*
X185010328Y-90765714D01*
X185081757Y-90837142D01*
X185224614Y-90908571D01*
X185581757Y-90908571D01*
X185724614Y-90837142D01*
X185796042Y-90765714D01*
X185867471Y-90622857D01*
X185867471Y-90194285D01*
X185796042Y-90051428D01*
X185724614Y-89980000D01*
X185867471Y-92694285D02*
X184367471Y-92694285D01*
X184367471Y-93265714D01*
X184438900Y-93408571D01*
X184510328Y-93480000D01*
X184653185Y-93551428D01*
X184867471Y-93551428D01*
X185010328Y-93480000D01*
X185081757Y-93408571D01*
X185153185Y-93265714D01*
X185153185Y-92694285D01*
X185867471Y-94408571D02*
X185796042Y-94265714D01*
X185724614Y-94194285D01*
X185581757Y-94122857D01*
X185153185Y-94122857D01*
X185010328Y-94194285D01*
X184938900Y-94265714D01*
X184867471Y-94408571D01*
X184867471Y-94622857D01*
X184938900Y-94765714D01*
X185010328Y-94837142D01*
X185153185Y-94908571D01*
X185581757Y-94908571D01*
X185724614Y-94837142D01*
X185796042Y-94765714D01*
X185867471Y-94622857D01*
X185867471Y-94408571D01*
X184867471Y-95408571D02*
X185867471Y-95694285D01*
X185153185Y-95980000D01*
X185867471Y-96265714D01*
X184867471Y-96551428D01*
X185796042Y-97694285D02*
X185867471Y-97551428D01*
X185867471Y-97265714D01*
X185796042Y-97122857D01*
X185653185Y-97051428D01*
X185081757Y-97051428D01*
X184938900Y-97122857D01*
X184867471Y-97265714D01*
X184867471Y-97551428D01*
X184938900Y-97694285D01*
X185081757Y-97765714D01*
X185224614Y-97765714D01*
X185367471Y-97051428D01*
X185867471Y-98408571D02*
X184867471Y-98408571D01*
X185153185Y-98408571D02*
X185010328Y-98480000D01*
X184938900Y-98551428D01*
X184867471Y-98694285D01*
X184867471Y-98837142D01*
X185796042Y-99908571D02*
X185867471Y-99765714D01*
X185867471Y-99480000D01*
X185796042Y-99337142D01*
X185653185Y-99265714D01*
X185081757Y-99265714D01*
X184938900Y-99337142D01*
X184867471Y-99480000D01*
X184867471Y-99765714D01*
X184938900Y-99908571D01*
X185081757Y-99980000D01*
X185224614Y-99980000D01*
X185367471Y-99265714D01*
X185867471Y-101265714D02*
X184367471Y-101265714D01*
X185796042Y-101265714D02*
X185867471Y-101122857D01*
X185867471Y-100837142D01*
X185796042Y-100694285D01*
X185724614Y-100622857D01*
X185581757Y-100551428D01*
X185153185Y-100551428D01*
X185010328Y-100622857D01*
X184938900Y-100694285D01*
X184867471Y-100837142D01*
X184867471Y-101122857D01*
X184938900Y-101265714D01*
X187888900Y-78765714D02*
X187888900Y-79480000D01*
X188317471Y-78622857D02*
X186817471Y-79122857D01*
X188317471Y-79622857D01*
X188317471Y-80337142D02*
X188246042Y-80194285D01*
X188103185Y-80122857D01*
X186817471Y-80122857D01*
X188317471Y-81551428D02*
X187531757Y-81551428D01*
X187388900Y-81480000D01*
X187317471Y-81337142D01*
X187317471Y-81051428D01*
X187388900Y-80908571D01*
X188246042Y-81551428D02*
X188317471Y-81408571D01*
X188317471Y-81051428D01*
X188246042Y-80908571D01*
X188103185Y-80837142D01*
X187960328Y-80837142D01*
X187817471Y-80908571D01*
X187746042Y-81051428D01*
X187746042Y-81408571D01*
X187674614Y-81551428D01*
X188317471Y-82265714D02*
X187317471Y-82265714D01*
X187603185Y-82265714D02*
X187460328Y-82337142D01*
X187388900Y-82408571D01*
X187317471Y-82551428D01*
X187317471Y-82694285D01*
X188317471Y-83194285D02*
X187317471Y-83194285D01*
X187460328Y-83194285D02*
X187388900Y-83265714D01*
X187317471Y-83408571D01*
X187317471Y-83622857D01*
X187388900Y-83765714D01*
X187531757Y-83837142D01*
X188317471Y-83837142D01*
X187531757Y-83837142D02*
X187388900Y-83908571D01*
X187317471Y-84051428D01*
X187317471Y-84265714D01*
X187388900Y-84408571D01*
X187531757Y-84480000D01*
X188317471Y-84480000D01*
X188174614Y-87194285D02*
X188246042Y-87122857D01*
X188317471Y-86908571D01*
X188317471Y-86765714D01*
X188246042Y-86551428D01*
X188103185Y-86408571D01*
X187960328Y-86337142D01*
X187674614Y-86265714D01*
X187460328Y-86265714D01*
X187174614Y-86337142D01*
X187031757Y-86408571D01*
X186888900Y-86551428D01*
X186817471Y-86765714D01*
X186817471Y-86908571D01*
X186888900Y-87122857D01*
X186960328Y-87194285D01*
X188317471Y-88051428D02*
X188246042Y-87908571D01*
X188103185Y-87837142D01*
X186817471Y-87837142D01*
X188317471Y-88837142D02*
X188246042Y-88694285D01*
X188174614Y-88622857D01*
X188031757Y-88551428D01*
X187603185Y-88551428D01*
X187460328Y-88622857D01*
X187388900Y-88694285D01*
X187317471Y-88837142D01*
X187317471Y-89051428D01*
X187388900Y-89194285D01*
X187460328Y-89265714D01*
X187603185Y-89337142D01*
X188031757Y-89337142D01*
X188174614Y-89265714D01*
X188246042Y-89194285D01*
X188317471Y-89051428D01*
X188317471Y-88837142D01*
X188246042Y-90622857D02*
X188317471Y-90480000D01*
X188317471Y-90194285D01*
X188246042Y-90051428D01*
X188174614Y-89980000D01*
X188031757Y-89908571D01*
X187603185Y-89908571D01*
X187460328Y-89980000D01*
X187388900Y-90051428D01*
X187317471Y-90194285D01*
X187317471Y-90480000D01*
X187388900Y-90622857D01*
X188317471Y-91265714D02*
X186817471Y-91265714D01*
X187746042Y-91408571D02*
X188317471Y-91837142D01*
X187317471Y-91837142D02*
X187888900Y-91265714D01*
D11*
X171666280Y-109230952D02*
X172380566Y-109230952D01*
X172523423Y-109183333D01*
X172618661Y-109088095D01*
X172666280Y-108945238D01*
X172666280Y-108850000D01*
X172666280Y-110183333D02*
X172666280Y-109707142D01*
X171666280Y-109707142D01*
X172571042Y-111088095D02*
X172618661Y-111040476D01*
X172666280Y-110897619D01*
X172666280Y-110802380D01*
X172618661Y-110659523D01*
X172523423Y-110564285D01*
X172428185Y-110516666D01*
X172237709Y-110469047D01*
X172094852Y-110469047D01*
X171904376Y-110516666D01*
X171809138Y-110564285D01*
X171713900Y-110659523D01*
X171666280Y-110802380D01*
X171666280Y-110897619D01*
X171713900Y-111040476D01*
X171761519Y-111088095D01*
X171666280Y-111802380D02*
X172380566Y-111802380D01*
X172523423Y-111754761D01*
X172618661Y-111659523D01*
X172666280Y-111516666D01*
X172666280Y-111421428D01*
X172666280Y-112754761D02*
X172666280Y-112278571D01*
X171666280Y-112278571D01*
X172571042Y-113659523D02*
X172618661Y-113611904D01*
X172666280Y-113469047D01*
X172666280Y-113373809D01*
X172618661Y-113230952D01*
X172523423Y-113135714D01*
X172428185Y-113088095D01*
X172237709Y-113040476D01*
X172094852Y-113040476D01*
X171904376Y-113088095D01*
X171809138Y-113135714D01*
X171713900Y-113230952D01*
X171666280Y-113373809D01*
X171666280Y-113469047D01*
X171713900Y-113611904D01*
X171761519Y-113659523D01*
X171666280Y-114373809D02*
X172380566Y-114373809D01*
X172523423Y-114326190D01*
X172618661Y-114230952D01*
X172666280Y-114088095D01*
X172666280Y-113992857D01*
X172666280Y-115326190D02*
X172666280Y-114850000D01*
X171666280Y-114850000D01*
X172571042Y-116230952D02*
X172618661Y-116183333D01*
X172666280Y-116040476D01*
X172666280Y-115945238D01*
X172618661Y-115802380D01*
X172523423Y-115707142D01*
X172428185Y-115659523D01*
X172237709Y-115611904D01*
X172094852Y-115611904D01*
X171904376Y-115659523D01*
X171809138Y-115707142D01*
X171713900Y-115802380D01*
X171666280Y-115945238D01*
X171666280Y-116040476D01*
X171713900Y-116183333D01*
X171761519Y-116230952D01*
X171666280Y-116945238D02*
X172380566Y-116945238D01*
X172523423Y-116897619D01*
X172618661Y-116802380D01*
X172666280Y-116659523D01*
X172666280Y-116564285D01*
X172666280Y-117897619D02*
X172666280Y-117421428D01*
X171666280Y-117421428D01*
X172571042Y-118802380D02*
X172618661Y-118754761D01*
X172666280Y-118611904D01*
X172666280Y-118516666D01*
X172618661Y-118373809D01*
X172523423Y-118278571D01*
X172428185Y-118230952D01*
X172237709Y-118183333D01*
X172094852Y-118183333D01*
X171904376Y-118230952D01*
X171809138Y-118278571D01*
X171713900Y-118373809D01*
X171666280Y-118516666D01*
X171666280Y-118611904D01*
X171713900Y-118754761D01*
X171761519Y-118802380D01*
X157016947Y-73183261D02*
X156874090Y-73230880D01*
X156635995Y-73230880D01*
X156540757Y-73183261D01*
X156493138Y-73135642D01*
X156445519Y-73040404D01*
X156445519Y-72945166D01*
X156493138Y-72849928D01*
X156540757Y-72802309D01*
X156635995Y-72754690D01*
X156826471Y-72707071D01*
X156921709Y-72659452D01*
X156969328Y-72611833D01*
X157016947Y-72516595D01*
X157016947Y-72421357D01*
X156969328Y-72326119D01*
X156921709Y-72278500D01*
X156826471Y-72230880D01*
X156588376Y-72230880D01*
X156445519Y-72278500D01*
X156016947Y-73230880D02*
X156016947Y-72230880D01*
X155635995Y-72230880D01*
X155540757Y-72278500D01*
X155493138Y-72326119D01*
X155445519Y-72421357D01*
X155445519Y-72564214D01*
X155493138Y-72659452D01*
X155540757Y-72707071D01*
X155635995Y-72754690D01*
X156016947Y-72754690D01*
X155016947Y-72707071D02*
X154683614Y-72707071D01*
X154540757Y-73230880D02*
X155016947Y-73230880D01*
X155016947Y-72230880D01*
X154540757Y-72230880D01*
X154159804Y-72945166D02*
X153683614Y-72945166D01*
X154255042Y-73230880D02*
X153921709Y-72230880D01*
X153588376Y-73230880D01*
X153255042Y-73230880D02*
X153255042Y-72230880D01*
X152683614Y-73230880D02*
X153112185Y-72659452D01*
X152683614Y-72230880D02*
X153255042Y-72802309D01*
X152255042Y-72707071D02*
X151921709Y-72707071D01*
X151778852Y-73230880D02*
X152255042Y-73230880D01*
X152255042Y-72230880D01*
X151778852Y-72230880D01*
X150778852Y-73230880D02*
X151112185Y-72754690D01*
X151350280Y-73230880D02*
X151350280Y-72230880D01*
X150969328Y-72230880D01*
X150874090Y-72278500D01*
X150826471Y-72326119D01*
X150778852Y-72421357D01*
X150778852Y-72564214D01*
X150826471Y-72659452D01*
X150874090Y-72707071D01*
X150969328Y-72754690D01*
X151350280Y-72754690D01*
D12*
X103213900Y-66150000D02*
G75*
G02X103713900Y-65650000I500000J0D01*
G01*
X93713900Y-76150000D02*
G75*
G03X93213900Y-76650000I0J-500000D01*
G01*
X93713900Y-111150000D02*
G75*
G02X93213900Y-110650000I0J500000D01*
G01*
X103713900Y-120650000D02*
G75*
G02X103213900Y-120150000I0J500000D01*
G01*
X181213900Y-120150000D02*
G75*
G02X180713900Y-120650000I-500000J0D01*
G01*
X191213900Y-110650000D02*
G75*
G02X190713900Y-111150000I-500000J0D01*
G01*
X191213900Y-76650000D02*
G75*
G03X190713900Y-76150000I-500000J0D01*
G01*
X180713900Y-65650000D02*
G75*
G02X181213900Y-66150000I0J-500000D01*
G01*
X93713900Y-111150000D02*
X99213900Y-111150000D01*
X103213900Y-120150000D02*
X103213900Y-115150000D01*
X181213900Y-71150000D02*
G75*
G03X186213900Y-76150000I5000000J0D01*
G01*
X181213900Y-116150000D02*
G75*
G02X186213900Y-111150000I5000000J0D01*
G01*
X103213900Y-115150000D02*
G75*
G03X99213900Y-111150000I-4000000J0D01*
G01*
X103213900Y-72150000D02*
G75*
G02X99213900Y-76150000I-4000000J0D01*
G01*
X181213900Y-66150000D02*
X181213900Y-71150000D01*
X103713900Y-65650000D02*
X180713900Y-65650000D01*
X103213900Y-72150000D02*
X103213900Y-66150000D01*
X181213900Y-120150000D02*
X181213900Y-116150000D01*
X103713900Y-120650000D02*
X180713900Y-120650000D01*
X190713900Y-111150000D02*
X186213900Y-111150000D01*
X191213900Y-76650000D02*
X191213900Y-110650000D01*
X186213900Y-76150000D02*
X190713900Y-76150000D01*
X93213900Y-76650000D02*
X93213900Y-110650000D01*
X99213900Y-76150000D02*
X93713900Y-76150000D01*
D13*
G36*
X175474067Y-99174860D02*
G01*
X175520098Y-99285943D01*
X175590803Y-99412274D01*
X175670224Y-99525414D01*
X175749636Y-99615585D01*
X175820315Y-99673008D01*
X175873538Y-99687902D01*
X175877581Y-99686669D01*
X175914866Y-99665695D01*
X175920262Y-99635457D01*
X175890359Y-99585017D01*
X175821747Y-99503436D01*
X175819748Y-99501177D01*
X175709593Y-99352773D01*
X175626280Y-99192588D01*
X175578093Y-99038643D01*
X175569486Y-98956676D01*
X175582435Y-98855238D01*
X175616335Y-98732983D01*
X175644848Y-98659462D01*
X175692757Y-98531249D01*
X175702886Y-98448822D01*
X175675223Y-98412398D01*
X175660209Y-98410471D01*
X175632595Y-98435210D01*
X175588741Y-98500248D01*
X175537870Y-98591813D01*
X175535107Y-98597236D01*
X175458276Y-98796718D01*
X175437994Y-98986304D01*
X175474067Y-99174860D01*
X175474067Y-99174860D01*
G37*
X175474067Y-99174860D02*
X175520098Y-99285943D01*
X175590803Y-99412274D01*
X175670224Y-99525414D01*
X175749636Y-99615585D01*
X175820315Y-99673008D01*
X175873538Y-99687902D01*
X175877581Y-99686669D01*
X175914866Y-99665695D01*
X175920262Y-99635457D01*
X175890359Y-99585017D01*
X175821747Y-99503436D01*
X175819748Y-99501177D01*
X175709593Y-99352773D01*
X175626280Y-99192588D01*
X175578093Y-99038643D01*
X175569486Y-98956676D01*
X175582435Y-98855238D01*
X175616335Y-98732983D01*
X175644848Y-98659462D01*
X175692757Y-98531249D01*
X175702886Y-98448822D01*
X175675223Y-98412398D01*
X175660209Y-98410471D01*
X175632595Y-98435210D01*
X175588741Y-98500248D01*
X175537870Y-98591813D01*
X175535107Y-98597236D01*
X175458276Y-98796718D01*
X175437994Y-98986304D01*
X175474067Y-99174860D01*
G36*
X175742373Y-99147777D02*
G01*
X175804116Y-99222347D01*
X175899599Y-99268491D01*
X175972606Y-99277059D01*
X176084863Y-99253776D01*
X176172077Y-99191929D01*
X176220366Y-99103520D01*
X176225697Y-99058243D01*
X176216362Y-98975078D01*
X176196523Y-98914919D01*
X176125936Y-98848415D01*
X176022879Y-98815448D01*
X175954242Y-98819163D01*
X175954242Y-98883811D01*
X176044189Y-98893350D01*
X176046704Y-98894273D01*
X176127758Y-98941997D01*
X176161565Y-99015036D01*
X176164489Y-99067883D01*
X176162061Y-99120010D01*
X176152411Y-99114549D01*
X176136028Y-99075353D01*
X176092135Y-99028083D01*
X176092135Y-99157530D01*
X176107076Y-99172471D01*
X176092135Y-99187412D01*
X176077194Y-99172471D01*
X176092135Y-99157530D01*
X176092135Y-99028083D01*
X176087717Y-99023325D01*
X176016054Y-99007645D01*
X175947815Y-99032123D01*
X175933151Y-99046473D01*
X175917306Y-99099383D01*
X175959082Y-99153232D01*
X176002488Y-99181587D01*
X176041282Y-99206494D01*
X176027334Y-99215105D01*
X175986725Y-99216386D01*
X175887936Y-99195479D01*
X175815771Y-99139436D01*
X175780167Y-99062201D01*
X175791064Y-98977720D01*
X175802083Y-98957312D01*
X175864030Y-98907582D01*
X175954242Y-98883811D01*
X175954242Y-98819163D01*
X175907748Y-98821680D01*
X175884487Y-98828320D01*
X175785430Y-98885050D01*
X175730447Y-98965973D01*
X175716956Y-99057934D01*
X175742373Y-99147777D01*
X175742373Y-99147777D01*
G37*
X175742373Y-99147777D02*
X175804116Y-99222347D01*
X175899599Y-99268491D01*
X175972606Y-99277059D01*
X176084863Y-99253776D01*
X176172077Y-99191929D01*
X176220366Y-99103520D01*
X176225697Y-99058243D01*
X176216362Y-98975078D01*
X176196523Y-98914919D01*
X176125936Y-98848415D01*
X176022879Y-98815448D01*
X175954242Y-98819163D01*
X175954242Y-98883811D01*
X176044189Y-98893350D01*
X176046704Y-98894273D01*
X176127758Y-98941997D01*
X176161565Y-99015036D01*
X176164489Y-99067883D01*
X176162061Y-99120010D01*
X176152411Y-99114549D01*
X176136028Y-99075353D01*
X176092135Y-99028083D01*
X176092135Y-99157530D01*
X176107076Y-99172471D01*
X176092135Y-99187412D01*
X176077194Y-99172471D01*
X176092135Y-99157530D01*
X176092135Y-99028083D01*
X176087717Y-99023325D01*
X176016054Y-99007645D01*
X175947815Y-99032123D01*
X175933151Y-99046473D01*
X175917306Y-99099383D01*
X175959082Y-99153232D01*
X176002488Y-99181587D01*
X176041282Y-99206494D01*
X176027334Y-99215105D01*
X175986725Y-99216386D01*
X175887936Y-99195479D01*
X175815771Y-99139436D01*
X175780167Y-99062201D01*
X175791064Y-98977720D01*
X175802083Y-98957312D01*
X175864030Y-98907582D01*
X175954242Y-98883811D01*
X175954242Y-98819163D01*
X175907748Y-98821680D01*
X175884487Y-98828320D01*
X175785430Y-98885050D01*
X175730447Y-98965973D01*
X175716956Y-99057934D01*
X175742373Y-99147777D01*
G36*
X171227437Y-85372535D02*
G01*
X171291614Y-85540716D01*
X171403679Y-85739312D01*
X171549614Y-85949098D01*
X171858479Y-86332016D01*
X172207532Y-86712230D01*
X172587642Y-87082114D01*
X172989679Y-87434045D01*
X173404513Y-87760398D01*
X173823013Y-88053548D01*
X174236050Y-88305872D01*
X174593063Y-88490584D01*
X174855300Y-88613472D01*
X174831247Y-88902619D01*
X174821977Y-89058243D01*
X174815348Y-89262408D01*
X174811281Y-89503952D01*
X174809695Y-89771715D01*
X174810510Y-90054535D01*
X174813646Y-90341249D01*
X174819024Y-90620697D01*
X174826562Y-90881718D01*
X174836181Y-91113148D01*
X174847801Y-91303828D01*
X174848536Y-91313412D01*
X174893264Y-91805369D01*
X174949238Y-92280645D01*
X175015344Y-92734171D01*
X175090469Y-93160874D01*
X175173499Y-93555686D01*
X175263321Y-93913534D01*
X175358822Y-94229349D01*
X175458888Y-94498060D01*
X175562405Y-94714597D01*
X175614217Y-94800368D01*
X175659408Y-94875065D01*
X175685864Y-94931190D01*
X175688723Y-94944020D01*
X175675987Y-94981841D01*
X175641435Y-95060759D01*
X175590559Y-95168711D01*
X175537371Y-95276691D01*
X175298846Y-95794344D01*
X175106874Y-96302182D01*
X174961556Y-96797425D01*
X174862992Y-97277296D01*
X174811283Y-97739015D01*
X174806529Y-98179803D01*
X174848830Y-98596882D01*
X174938287Y-98987473D01*
X175075000Y-99348798D01*
X175259070Y-99678078D01*
X175372749Y-99834723D01*
X175516125Y-100002103D01*
X175656010Y-100131258D01*
X175812395Y-100238925D01*
X175938917Y-100308688D01*
X176114824Y-100399023D01*
X176396178Y-100921276D01*
X176587770Y-101274651D01*
X176754250Y-101576696D01*
X176896986Y-101829660D01*
X177017347Y-102035792D01*
X177116702Y-102197341D01*
X177196419Y-102316555D01*
X177257866Y-102395683D01*
X177302413Y-102436972D01*
X177323315Y-102444589D01*
X177360348Y-102431764D01*
X177379361Y-102388307D01*
X177380863Y-102306741D01*
X177365362Y-102179591D01*
X177348181Y-102078693D01*
X177296452Y-101797083D01*
X177240961Y-101502000D01*
X177183042Y-101199999D01*
X177124029Y-100897633D01*
X177065258Y-100601457D01*
X177008061Y-100318023D01*
X176953775Y-100053887D01*
X176903734Y-99815602D01*
X176859272Y-99609721D01*
X176821724Y-99442798D01*
X176792424Y-99321388D01*
X176772707Y-99252044D01*
X176772414Y-99251216D01*
X176767346Y-99219261D01*
X176776347Y-99221464D01*
X176805912Y-99270669D01*
X176846446Y-99372150D01*
X176896270Y-99519772D01*
X176953703Y-99707399D01*
X177017067Y-99928896D01*
X177084682Y-100178127D01*
X177154869Y-100448959D01*
X177225948Y-100735255D01*
X177296239Y-101030880D01*
X177364064Y-101329699D01*
X177405071Y-101518236D01*
X177455681Y-101753355D01*
X177496316Y-101936088D01*
X177528932Y-102072611D01*
X177555483Y-102169098D01*
X177577925Y-102231726D01*
X177598213Y-102266669D01*
X177618301Y-102280105D01*
X177640145Y-102278207D01*
X177645109Y-102276450D01*
X177671167Y-102244890D01*
X177685643Y-102173216D01*
X177688289Y-102059359D01*
X177678862Y-101901251D01*
X177657116Y-101696824D01*
X177622806Y-101444012D01*
X177575686Y-101140746D01*
X177515511Y-100784958D01*
X177442037Y-100374581D01*
X177379807Y-100039059D01*
X177347194Y-99856252D01*
X177347194Y-100591883D01*
X177362135Y-100606824D01*
X177347194Y-100621765D01*
X177332253Y-100606824D01*
X177347194Y-100591883D01*
X177347194Y-99856252D01*
X177325109Y-99732457D01*
X177325109Y-100455432D01*
X177329894Y-100484804D01*
X177324400Y-100523562D01*
X177314199Y-100524025D01*
X177307065Y-100484031D01*
X177311840Y-100466750D01*
X177325109Y-100455432D01*
X177325109Y-99732457D01*
X177303751Y-99612737D01*
X177243931Y-99226239D01*
X177198351Y-98862472D01*
X177165012Y-98504345D01*
X177141918Y-98134766D01*
X177133147Y-97928352D01*
X177126543Y-97738327D01*
X177123153Y-97598053D01*
X177123710Y-97497568D01*
X177128950Y-97426912D01*
X177139608Y-97376123D01*
X177156417Y-97335237D01*
X177179893Y-97294653D01*
X177255867Y-97190658D01*
X177355593Y-97090197D01*
X177485939Y-96988306D01*
X177653771Y-96880022D01*
X177865957Y-96760383D01*
X178056183Y-96661307D01*
X178228649Y-96572694D01*
X178393349Y-96486202D01*
X178538675Y-96408066D01*
X178653019Y-96344522D01*
X178721782Y-96303732D01*
X178929822Y-96150388D01*
X179131497Y-95964880D01*
X179302749Y-95769636D01*
X179321924Y-95744165D01*
X179394600Y-95652515D01*
X179442316Y-95613531D01*
X179469838Y-95628031D01*
X179481934Y-95696833D01*
X179483782Y-95771962D01*
X179493523Y-95940974D01*
X179520726Y-96152253D01*
X179562360Y-96391926D01*
X179615397Y-96646119D01*
X179676807Y-96900956D01*
X179743560Y-97142564D01*
X179812625Y-97357070D01*
X179853947Y-97467071D01*
X179995921Y-97773690D01*
X180164949Y-98061952D01*
X180353804Y-98322177D01*
X180555260Y-98544684D01*
X180762090Y-98719794D01*
X180816937Y-98757061D01*
X181020839Y-98867151D01*
X181225835Y-98939268D01*
X181423164Y-98972856D01*
X181604064Y-98967361D01*
X181759775Y-98922227D01*
X181881534Y-98836899D01*
X181892329Y-98825205D01*
X181951258Y-98751987D01*
X181970690Y-98700727D01*
X181945709Y-98662324D01*
X181871400Y-98627679D01*
X181767999Y-98595041D01*
X181558015Y-98524438D01*
X181368557Y-98443833D01*
X181214677Y-98360072D01*
X181148242Y-98313208D01*
X181064583Y-98246118D01*
X181387300Y-98244029D01*
X181688363Y-98223067D01*
X181955862Y-98165521D01*
X182185106Y-98073261D01*
X182371407Y-97948157D01*
X182506186Y-97797883D01*
X182560172Y-97706428D01*
X182594975Y-97624534D01*
X182606117Y-97565818D01*
X182589763Y-97543883D01*
X182552037Y-97550502D01*
X182470732Y-97568221D01*
X182360295Y-97593833D01*
X182302553Y-97607655D01*
X182153476Y-97636251D01*
X181982631Y-97657233D01*
X181804671Y-97670064D01*
X181634250Y-97674207D01*
X181486024Y-97669125D01*
X181374647Y-97654280D01*
X181337384Y-97643041D01*
X181299216Y-97624404D01*
X181301585Y-97611709D01*
X181351605Y-97599964D01*
X181412090Y-97590616D01*
X181646994Y-97528839D01*
X181847895Y-97418358D01*
X182012950Y-97260843D01*
X182140316Y-97057963D01*
X182213853Y-96864059D01*
X182237242Y-96778053D01*
X182249476Y-96721070D01*
X182249292Y-96707177D01*
X182221067Y-96722499D01*
X182158161Y-96762313D01*
X182089106Y-96808024D01*
X182026293Y-96848795D01*
X181971179Y-96877459D01*
X181910714Y-96896904D01*
X181831850Y-96910019D01*
X181721537Y-96919694D01*
X181566728Y-96928816D01*
X181536013Y-96930468D01*
X181354802Y-96938492D01*
X181219079Y-96939800D01*
X181114877Y-96933769D01*
X181028230Y-96919773D01*
X180971658Y-96905227D01*
X180787129Y-96828315D01*
X180630949Y-96712136D01*
X180502831Y-96555149D01*
X180402490Y-96355812D01*
X180329640Y-96112586D01*
X180283996Y-95823927D01*
X180265270Y-95488296D01*
X180273179Y-95104151D01*
X180307434Y-94669950D01*
X180367752Y-94184154D01*
X180412568Y-93890479D01*
X180441962Y-93691360D01*
X180458597Y-93527170D01*
X180463882Y-93374777D01*
X180459228Y-93211049D01*
X180456706Y-93166118D01*
X180393233Y-92457419D01*
X180288264Y-91772585D01*
X180139101Y-91100252D01*
X179943043Y-90429053D01*
X179697393Y-89747625D01*
X179571409Y-89438079D01*
X179507811Y-89283169D01*
X179467451Y-89174477D01*
X179448051Y-89104179D01*
X179447333Y-89064448D01*
X179458322Y-89049617D01*
X179500088Y-89025321D01*
X179580557Y-88978554D01*
X179686749Y-88916857D01*
X179767665Y-88869855D01*
X180036362Y-88687219D01*
X180294484Y-88458192D01*
X180417849Y-88331827D01*
X180509082Y-88225601D01*
X180581694Y-88121074D01*
X180649195Y-87999802D01*
X180688543Y-87920310D01*
X180806012Y-87633569D01*
X180871636Y-87362091D01*
X180886802Y-87093973D01*
X180852898Y-86817309D01*
X180829141Y-86714083D01*
X180740017Y-86452185D01*
X180617729Y-86224031D01*
X180467243Y-86034437D01*
X180293524Y-85888218D01*
X180101538Y-85790188D01*
X179896250Y-85745162D01*
X179827429Y-85742746D01*
X179720374Y-85747405D01*
X179631027Y-85757550D01*
X179590408Y-85767162D01*
X179563175Y-85784020D01*
X179570346Y-85807765D01*
X179618274Y-85847869D01*
X179668041Y-85882901D01*
X179783099Y-85975034D01*
X179908968Y-86096208D01*
X180028315Y-86227998D01*
X180123812Y-86351973D01*
X180154003Y-86399635D01*
X180211635Y-86499765D01*
X180034473Y-86360658D01*
X179869342Y-86243233D01*
X179725154Y-86169654D01*
X179589229Y-86134355D01*
X179507154Y-86129232D01*
X179384594Y-86132068D01*
X179313481Y-86144025D01*
X179292416Y-86171701D01*
X179320000Y-86221694D01*
X179394833Y-86300602D01*
X179458007Y-86360964D01*
X179556383Y-86456524D01*
X179643772Y-86546343D01*
X179706701Y-86616369D01*
X179723717Y-86638054D01*
X179781052Y-86718574D01*
X179550241Y-86719994D01*
X179426084Y-86724042D01*
X179314740Y-86733377D01*
X179238625Y-86746059D01*
X179234087Y-86747353D01*
X179148745Y-86773292D01*
X179308793Y-86860343D01*
X179423303Y-86932252D01*
X179544549Y-87022895D01*
X179610547Y-87079861D01*
X179696071Y-87169832D01*
X179783527Y-87278447D01*
X179864572Y-87393087D01*
X179930860Y-87501131D01*
X179974045Y-87589961D01*
X179985783Y-87646958D01*
X179985736Y-87647212D01*
X179957468Y-87683853D01*
X179889418Y-87741297D01*
X179793371Y-87810138D01*
X179730831Y-87850734D01*
X179501501Y-87974731D01*
X179267178Y-88058375D01*
X179005503Y-88109178D01*
X178938254Y-88117097D01*
X178823440Y-88136053D01*
X178740239Y-88171317D01*
X178660657Y-88234883D01*
X178658429Y-88236979D01*
X178602200Y-88292562D01*
X178570880Y-88338947D01*
X178558457Y-88395585D01*
X178558923Y-88481927D01*
X178562416Y-88547722D01*
X178567745Y-88656134D01*
X178566296Y-88715356D01*
X178555050Y-88735842D01*
X178530989Y-88728048D01*
X178513535Y-88717027D01*
X178316186Y-88591282D01*
X178125472Y-88477974D01*
X177932507Y-88372948D01*
X177728404Y-88272052D01*
X177504279Y-88171135D01*
X177251245Y-88066044D01*
X176960416Y-87952625D01*
X176622907Y-87826728D01*
X176555900Y-87802196D01*
X176289105Y-87704897D01*
X176072163Y-87625485D01*
X175898976Y-87560835D01*
X175763448Y-87507821D01*
X175659482Y-87463317D01*
X175580981Y-87424199D01*
X175521849Y-87387340D01*
X175475988Y-87349615D01*
X175437302Y-87307898D01*
X175399695Y-87259065D01*
X175357069Y-87199989D01*
X175342723Y-87180255D01*
X175133356Y-86852710D01*
X174943419Y-86469277D01*
X174773197Y-86030684D01*
X174622974Y-85537658D01*
X174501136Y-85029385D01*
X174461132Y-84843568D01*
X174430254Y-84708560D01*
X174405883Y-84616572D01*
X174385398Y-84559814D01*
X174366181Y-84530496D01*
X174345612Y-84520828D01*
X174330317Y-84521385D01*
X174306615Y-84528494D01*
X174289079Y-84547998D01*
X174276001Y-84588909D01*
X174265671Y-84660240D01*
X174256378Y-84771004D01*
X174246415Y-84930214D01*
X174243635Y-84978353D01*
X174232429Y-85479398D01*
X174257913Y-85943765D01*
X174319654Y-86368572D01*
X174417219Y-86750936D01*
X174550174Y-87087974D01*
X174566052Y-87120381D01*
X174700518Y-87389383D01*
X174589503Y-87306041D01*
X174336181Y-87098020D01*
X174072858Y-86846274D01*
X173797629Y-86548568D01*
X173508589Y-86202670D01*
X173203831Y-85806348D01*
X172881450Y-85357368D01*
X172696777Y-85088414D01*
X172586147Y-84925809D01*
X172498482Y-84798367D01*
X172498482Y-85076372D01*
X172517626Y-85088023D01*
X172562419Y-85140744D01*
X172625764Y-85225612D01*
X172686232Y-85312430D01*
X173015178Y-85780847D01*
X173334574Y-86201878D01*
X173643017Y-86574024D01*
X173939102Y-86895789D01*
X174221425Y-87165674D01*
X174488582Y-87382182D01*
X174739169Y-87543816D01*
X174816021Y-87583897D01*
X174932052Y-87639130D01*
X175026650Y-87681232D01*
X175088113Y-87705172D01*
X175105339Y-87708286D01*
X175093382Y-87681375D01*
X175051637Y-87619112D01*
X174987821Y-87532680D01*
X174953282Y-87488016D01*
X174755616Y-87196449D01*
X174600745Y-86878711D01*
X174487280Y-86530068D01*
X174413837Y-86145788D01*
X174379028Y-85721137D01*
X174375597Y-85516236D01*
X174376111Y-85127765D01*
X174477180Y-85516236D01*
X174619316Y-85996858D01*
X174784120Y-86435345D01*
X174969557Y-86827053D01*
X175173590Y-87167336D01*
X175245322Y-87268453D01*
X175300740Y-87343106D01*
X175348741Y-87403792D01*
X175396418Y-87454402D01*
X175450865Y-87498826D01*
X175519178Y-87540958D01*
X175608451Y-87584688D01*
X175725778Y-87633907D01*
X175878254Y-87692507D01*
X176072972Y-87764379D01*
X176301312Y-87847681D01*
X176643245Y-87973470D01*
X176936008Y-88083833D01*
X177187169Y-88182126D01*
X177404295Y-88271707D01*
X177594952Y-88355931D01*
X177766708Y-88438156D01*
X177927130Y-88521738D01*
X178083785Y-88610033D01*
X178244240Y-88706399D01*
X178262218Y-88717494D01*
X178398945Y-88799042D01*
X178535274Y-88875094D01*
X178660962Y-88940523D01*
X178765764Y-88990204D01*
X178839435Y-89019009D01*
X178871310Y-89022316D01*
X178862486Y-88993557D01*
X178827778Y-88931734D01*
X178794690Y-88880282D01*
X178744024Y-88793398D01*
X178712119Y-88716701D01*
X178706512Y-88686739D01*
X178701415Y-88614657D01*
X178689431Y-88522876D01*
X178687971Y-88513851D01*
X178690470Y-88409625D01*
X178739241Y-88331488D01*
X178837592Y-88276842D01*
X178988833Y-88243092D01*
X179040811Y-88237063D01*
X179310657Y-88186753D01*
X179576238Y-88087225D01*
X179756477Y-87991901D01*
X179927137Y-87883238D01*
X180047966Y-87787002D01*
X180115955Y-87705714D01*
X180126572Y-87681701D01*
X180122526Y-87613133D01*
X180083704Y-87511973D01*
X180016416Y-87389029D01*
X179926975Y-87255108D01*
X179821694Y-87121018D01*
X179756574Y-87048187D01*
X179668969Y-86952968D01*
X179619644Y-86892428D01*
X179604169Y-86859444D01*
X179618111Y-86846894D01*
X179630765Y-86846000D01*
X179698423Y-86859363D01*
X179785421Y-86892510D01*
X179806848Y-86902888D01*
X179886335Y-86937127D01*
X179937942Y-86939250D01*
X179967835Y-86923596D01*
X179992981Y-86898455D01*
X179995415Y-86864870D01*
X179972342Y-86807576D01*
X179932986Y-86733215D01*
X179867603Y-86627689D01*
X179781551Y-86506880D01*
X179704867Y-86410700D01*
X179561074Y-86242389D01*
X179677804Y-86291162D01*
X179799184Y-86356268D01*
X179941925Y-86455435D01*
X180089671Y-86576365D01*
X180214494Y-86694761D01*
X180311455Y-86780995D01*
X180380624Y-86814809D01*
X180419471Y-86797950D01*
X180425462Y-86732161D01*
X180396068Y-86619189D01*
X180381320Y-86579766D01*
X180267061Y-86348712D01*
X180115160Y-86126968D01*
X179990783Y-85986883D01*
X179923049Y-85913190D01*
X179902781Y-85872993D01*
X179930815Y-85865849D01*
X180007984Y-85891310D01*
X180096371Y-85930486D01*
X180227824Y-86012624D01*
X180364293Y-86131794D01*
X180487661Y-86269920D01*
X180579807Y-86408929D01*
X180583912Y-86416832D01*
X180669709Y-86633133D01*
X180725964Y-86877500D01*
X180750437Y-87130133D01*
X180740889Y-87371231D01*
X180710075Y-87532504D01*
X180597673Y-87828284D01*
X180429749Y-88105856D01*
X180208391Y-88362914D01*
X179935686Y-88597147D01*
X179613724Y-88806247D01*
X179503976Y-88865742D01*
X179386552Y-88930731D01*
X179301788Y-88985848D01*
X179258289Y-89025163D01*
X179254851Y-89037435D01*
X179271094Y-89075771D01*
X179306391Y-89158797D01*
X179356364Y-89276225D01*
X179416636Y-89417766D01*
X179454023Y-89505530D01*
X179696811Y-90124048D01*
X179903797Y-90752931D01*
X180070657Y-91377592D01*
X180193064Y-91983441D01*
X180198375Y-92015647D01*
X180255566Y-92398667D01*
X180294065Y-92738938D01*
X180314165Y-93050379D01*
X180316159Y-93346911D01*
X180300338Y-93642455D01*
X180266995Y-93950930D01*
X180242635Y-94122353D01*
X180204762Y-94409736D01*
X180175651Y-94709780D01*
X180155660Y-95011117D01*
X180145151Y-95302376D01*
X180144484Y-95572187D01*
X180154018Y-95809181D01*
X180174114Y-96001988D01*
X180181680Y-96046494D01*
X180256885Y-96330244D01*
X180366209Y-96572958D01*
X180507318Y-96771052D01*
X180677875Y-96920940D01*
X180794148Y-96986602D01*
X180857032Y-97012335D01*
X180924200Y-97030599D01*
X181007814Y-97042850D01*
X181120036Y-97050544D01*
X181273029Y-97055137D01*
X181381312Y-97056901D01*
X181547249Y-97057357D01*
X181699254Y-97054487D01*
X181823820Y-97048783D01*
X181907442Y-97040737D01*
X181926107Y-97037052D01*
X182022667Y-97011126D01*
X181979474Y-97094651D01*
X181872351Y-97237489D01*
X181716425Y-97348607D01*
X181514323Y-97426727D01*
X181268674Y-97470572D01*
X181194655Y-97476402D01*
X180908618Y-97493467D01*
X181029388Y-97606119D01*
X181181445Y-97712334D01*
X181370672Y-97780000D01*
X181601837Y-97810598D01*
X181695012Y-97812824D01*
X181879929Y-97805223D01*
X182073384Y-97784605D01*
X182249245Y-97754243D01*
X182336388Y-97732435D01*
X182373882Y-97731108D01*
X182370997Y-97756968D01*
X182335276Y-97801492D01*
X182274263Y-97856159D01*
X182195502Y-97912445D01*
X182156084Y-97936141D01*
X181997598Y-98013318D01*
X181832540Y-98066016D01*
X181647378Y-98096678D01*
X181428580Y-98107746D01*
X181224429Y-98104294D01*
X181078501Y-98099675D01*
X180956815Y-98097529D01*
X180870345Y-98097917D01*
X180830065Y-98100906D01*
X180828488Y-98101976D01*
X180840791Y-98134571D01*
X180870520Y-98195890D01*
X180871785Y-98198343D01*
X180959275Y-98315030D01*
X181096894Y-98431636D01*
X181275308Y-98542077D01*
X181485181Y-98640273D01*
X181632985Y-98694304D01*
X181722176Y-98725587D01*
X181762432Y-98747873D01*
X181762349Y-98768368D01*
X181742288Y-98785950D01*
X181634111Y-98831818D01*
X181490371Y-98844739D01*
X181324252Y-98826339D01*
X181148939Y-98778245D01*
X180977617Y-98702085D01*
X180953544Y-98688610D01*
X180819210Y-98594558D01*
X180669012Y-98462314D01*
X180516255Y-98305847D01*
X180374242Y-98139128D01*
X180256278Y-97976127D01*
X180221752Y-97920177D01*
X180048505Y-97580927D01*
X179899954Y-97203597D01*
X179798216Y-96864781D01*
X179761250Y-96706361D01*
X179723484Y-96518051D01*
X179687217Y-96314397D01*
X179654752Y-96109942D01*
X179628388Y-95919231D01*
X179610426Y-95756809D01*
X179603167Y-95637219D01*
X179603120Y-95631412D01*
X179596246Y-95457985D01*
X179576512Y-95342664D01*
X179543142Y-95285026D01*
X179495360Y-95284646D01*
X179432390Y-95341102D01*
X179353457Y-95453968D01*
X179334773Y-95484809D01*
X179178160Y-95707850D01*
X178982690Y-95923532D01*
X178767864Y-96111614D01*
X178651464Y-96194066D01*
X178560619Y-96248493D01*
X178429308Y-96321532D01*
X178270966Y-96405984D01*
X178099031Y-96494647D01*
X177971518Y-96558454D01*
X177766551Y-96662025D01*
X177606548Y-96749144D01*
X177481200Y-96826085D01*
X177380195Y-96899122D01*
X177303295Y-96965117D01*
X177206300Y-97055580D01*
X177132094Y-97131027D01*
X177077870Y-97201188D01*
X177040821Y-97275797D01*
X177018140Y-97364586D01*
X177007018Y-97477287D01*
X177004649Y-97623633D01*
X177008226Y-97813357D01*
X177012639Y-97972748D01*
X177031022Y-98419172D01*
X177061092Y-98826936D01*
X177104997Y-99216375D01*
X177164886Y-99607828D01*
X177213197Y-99871927D01*
X177253169Y-100083610D01*
X177280183Y-100237917D01*
X177294232Y-100334684D01*
X177295310Y-100373750D01*
X177283409Y-100354952D01*
X177258525Y-100278129D01*
X177224844Y-100158589D01*
X177131846Y-99834950D01*
X177037512Y-99541320D01*
X176943954Y-99282971D01*
X176853280Y-99065172D01*
X176767600Y-98893192D01*
X176744567Y-98857756D01*
X176744567Y-99137608D01*
X176762332Y-99141710D01*
X176764488Y-99157530D01*
X176753555Y-99182126D01*
X176744567Y-99177451D01*
X176740990Y-99141988D01*
X176744567Y-99137608D01*
X176744567Y-98857756D01*
X176689025Y-98772303D01*
X176654531Y-98734045D01*
X176566167Y-98674139D01*
X176463313Y-98634742D01*
X176453459Y-98632713D01*
X176336666Y-98611220D01*
X176411600Y-98712551D01*
X176460626Y-98786327D01*
X176504332Y-98871230D01*
X176546240Y-98977074D01*
X176589873Y-99113670D01*
X176638755Y-99290830D01*
X176686361Y-99477815D01*
X176722829Y-99630144D01*
X176764960Y-99815672D01*
X176811358Y-100027376D01*
X176860625Y-100258233D01*
X176911363Y-100501220D01*
X176962173Y-100749313D01*
X177011660Y-100995491D01*
X177058424Y-101232729D01*
X177101068Y-101454006D01*
X177138195Y-101652297D01*
X177168407Y-101820580D01*
X177190306Y-101951832D01*
X177202494Y-102039030D01*
X177203574Y-102075151D01*
X177203330Y-102075472D01*
X177184399Y-102054862D01*
X177139448Y-101984391D01*
X177070216Y-101867125D01*
X176978443Y-101706132D01*
X176865868Y-101504477D01*
X176734229Y-101265227D01*
X176585265Y-100991448D01*
X176517313Y-100865718D01*
X176205614Y-100287906D01*
X175996702Y-100186854D01*
X175777987Y-100050125D01*
X175573827Y-99861849D01*
X175389562Y-99629528D01*
X175230531Y-99360664D01*
X175102076Y-99062759D01*
X175030050Y-98828824D01*
X174988066Y-98613474D01*
X174959936Y-98357073D01*
X174946187Y-98076832D01*
X174947344Y-97789959D01*
X174963937Y-97513666D01*
X174984443Y-97339668D01*
X175079491Y-96859146D01*
X175227009Y-96357351D01*
X175427500Y-95832786D01*
X175668272Y-95310425D01*
X175857674Y-94929177D01*
X175757795Y-94779765D01*
X175641244Y-94572813D01*
X175530056Y-94310687D01*
X175425186Y-93997814D01*
X175327587Y-93638621D01*
X175238213Y-93237536D01*
X175158020Y-92798987D01*
X175087960Y-92327400D01*
X175028988Y-91827204D01*
X174982058Y-91302825D01*
X174968972Y-91119177D01*
X174961856Y-90977525D01*
X174956396Y-90796988D01*
X174952532Y-90585823D01*
X174950201Y-90352287D01*
X174949343Y-90104635D01*
X174949896Y-89851125D01*
X174951798Y-89600013D01*
X174954989Y-89359556D01*
X174959406Y-89138011D01*
X174964989Y-88943634D01*
X174971677Y-88784682D01*
X174979407Y-88669412D01*
X174987633Y-88607997D01*
X174992381Y-88572603D01*
X174980931Y-88543085D01*
X174944224Y-88512482D01*
X174873197Y-88473835D01*
X174758789Y-88420184D01*
X174720374Y-88402716D01*
X174340952Y-88210898D01*
X173945049Y-87973968D01*
X173543875Y-87699774D01*
X173148640Y-87396168D01*
X172770552Y-87071000D01*
X172625782Y-86935843D01*
X172487517Y-86800760D01*
X172339911Y-86651805D01*
X172192324Y-86498880D01*
X172054120Y-86351888D01*
X171934659Y-86220729D01*
X171843303Y-86115305D01*
X171806281Y-86069059D01*
X171763855Y-86011752D01*
X171749950Y-85987625D01*
X171768169Y-85998832D01*
X171822115Y-86047528D01*
X171911053Y-86131733D01*
X172300905Y-86487320D01*
X172704918Y-86825476D01*
X173109631Y-87135527D01*
X173501585Y-87406797D01*
X173592037Y-87464806D01*
X173785153Y-87583623D01*
X173939648Y-87671214D01*
X174064787Y-87732111D01*
X174169837Y-87770846D01*
X174259372Y-87791231D01*
X174388841Y-87811604D01*
X174029634Y-87439324D01*
X173628266Y-87001037D01*
X173283994Y-86577337D01*
X172996966Y-86168440D01*
X172767331Y-85774563D01*
X172595240Y-85395922D01*
X172568786Y-85324957D01*
X172532335Y-85217168D01*
X172507256Y-85130611D01*
X172497957Y-85080873D01*
X172498482Y-85076372D01*
X172498482Y-84798367D01*
X172487042Y-84781736D01*
X172404183Y-84662930D01*
X172342295Y-84576125D01*
X172306100Y-84528058D01*
X172298645Y-84520649D01*
X172297867Y-84552598D01*
X172302105Y-84629899D01*
X172310497Y-84738428D01*
X172315078Y-84790205D01*
X172349454Y-85010764D01*
X172411080Y-85255908D01*
X172492758Y-85501386D01*
X172587288Y-85722945D01*
X172598880Y-85746235D01*
X172746095Y-86011213D01*
X172929612Y-86300435D01*
X173139642Y-86600100D01*
X173366395Y-86896408D01*
X173600081Y-87175559D01*
X173662189Y-87245197D01*
X173755460Y-87349034D01*
X173811157Y-87414082D01*
X173832263Y-87445447D01*
X173821760Y-87448235D01*
X173782633Y-87427554D01*
X173761312Y-87414864D01*
X173413994Y-87191365D01*
X173058390Y-86935872D01*
X172704446Y-86657045D01*
X172362107Y-86363545D01*
X172041320Y-86064033D01*
X171752032Y-85767170D01*
X171504188Y-85481617D01*
X171424727Y-85380227D01*
X171221312Y-85112053D01*
X171211908Y-85236373D01*
X171227437Y-85372535D01*
X171227437Y-85372535D01*
G37*
X171227437Y-85372535D02*
X171291614Y-85540716D01*
X171403679Y-85739312D01*
X171549614Y-85949098D01*
X171858479Y-86332016D01*
X172207532Y-86712230D01*
X172587642Y-87082114D01*
X172989679Y-87434045D01*
X173404513Y-87760398D01*
X173823013Y-88053548D01*
X174236050Y-88305872D01*
X174593063Y-88490584D01*
X174855300Y-88613472D01*
X174831247Y-88902619D01*
X174821977Y-89058243D01*
X174815348Y-89262408D01*
X174811281Y-89503952D01*
X174809695Y-89771715D01*
X174810510Y-90054535D01*
X174813646Y-90341249D01*
X174819024Y-90620697D01*
X174826562Y-90881718D01*
X174836181Y-91113148D01*
X174847801Y-91303828D01*
X174848536Y-91313412D01*
X174893264Y-91805369D01*
X174949238Y-92280645D01*
X175015344Y-92734171D01*
X175090469Y-93160874D01*
X175173499Y-93555686D01*
X175263321Y-93913534D01*
X175358822Y-94229349D01*
X175458888Y-94498060D01*
X175562405Y-94714597D01*
X175614217Y-94800368D01*
X175659408Y-94875065D01*
X175685864Y-94931190D01*
X175688723Y-94944020D01*
X175675987Y-94981841D01*
X175641435Y-95060759D01*
X175590559Y-95168711D01*
X175537371Y-95276691D01*
X175298846Y-95794344D01*
X175106874Y-96302182D01*
X174961556Y-96797425D01*
X174862992Y-97277296D01*
X174811283Y-97739015D01*
X174806529Y-98179803D01*
X174848830Y-98596882D01*
X174938287Y-98987473D01*
X175075000Y-99348798D01*
X175259070Y-99678078D01*
X175372749Y-99834723D01*
X175516125Y-100002103D01*
X175656010Y-100131258D01*
X175812395Y-100238925D01*
X175938917Y-100308688D01*
X176114824Y-100399023D01*
X176396178Y-100921276D01*
X176587770Y-101274651D01*
X176754250Y-101576696D01*
X176896986Y-101829660D01*
X177017347Y-102035792D01*
X177116702Y-102197341D01*
X177196419Y-102316555D01*
X177257866Y-102395683D01*
X177302413Y-102436972D01*
X177323315Y-102444589D01*
X177360348Y-102431764D01*
X177379361Y-102388307D01*
X177380863Y-102306741D01*
X177365362Y-102179591D01*
X177348181Y-102078693D01*
X177296452Y-101797083D01*
X177240961Y-101502000D01*
X177183042Y-101199999D01*
X177124029Y-100897633D01*
X177065258Y-100601457D01*
X177008061Y-100318023D01*
X176953775Y-100053887D01*
X176903734Y-99815602D01*
X176859272Y-99609721D01*
X176821724Y-99442798D01*
X176792424Y-99321388D01*
X176772707Y-99252044D01*
X176772414Y-99251216D01*
X176767346Y-99219261D01*
X176776347Y-99221464D01*
X176805912Y-99270669D01*
X176846446Y-99372150D01*
X176896270Y-99519772D01*
X176953703Y-99707399D01*
X177017067Y-99928896D01*
X177084682Y-100178127D01*
X177154869Y-100448959D01*
X177225948Y-100735255D01*
X177296239Y-101030880D01*
X177364064Y-101329699D01*
X177405071Y-101518236D01*
X177455681Y-101753355D01*
X177496316Y-101936088D01*
X177528932Y-102072611D01*
X177555483Y-102169098D01*
X177577925Y-102231726D01*
X177598213Y-102266669D01*
X177618301Y-102280105D01*
X177640145Y-102278207D01*
X177645109Y-102276450D01*
X177671167Y-102244890D01*
X177685643Y-102173216D01*
X177688289Y-102059359D01*
X177678862Y-101901251D01*
X177657116Y-101696824D01*
X177622806Y-101444012D01*
X177575686Y-101140746D01*
X177515511Y-100784958D01*
X177442037Y-100374581D01*
X177379807Y-100039059D01*
X177347194Y-99856252D01*
X177347194Y-100591883D01*
X177362135Y-100606824D01*
X177347194Y-100621765D01*
X177332253Y-100606824D01*
X177347194Y-100591883D01*
X177347194Y-99856252D01*
X177325109Y-99732457D01*
X177325109Y-100455432D01*
X177329894Y-100484804D01*
X177324400Y-100523562D01*
X177314199Y-100524025D01*
X177307065Y-100484031D01*
X177311840Y-100466750D01*
X177325109Y-100455432D01*
X177325109Y-99732457D01*
X177303751Y-99612737D01*
X177243931Y-99226239D01*
X177198351Y-98862472D01*
X177165012Y-98504345D01*
X177141918Y-98134766D01*
X177133147Y-97928352D01*
X177126543Y-97738327D01*
X177123153Y-97598053D01*
X177123710Y-97497568D01*
X177128950Y-97426912D01*
X177139608Y-97376123D01*
X177156417Y-97335237D01*
X177179893Y-97294653D01*
X177255867Y-97190658D01*
X177355593Y-97090197D01*
X177485939Y-96988306D01*
X177653771Y-96880022D01*
X177865957Y-96760383D01*
X178056183Y-96661307D01*
X178228649Y-96572694D01*
X178393349Y-96486202D01*
X178538675Y-96408066D01*
X178653019Y-96344522D01*
X178721782Y-96303732D01*
X178929822Y-96150388D01*
X179131497Y-95964880D01*
X179302749Y-95769636D01*
X179321924Y-95744165D01*
X179394600Y-95652515D01*
X179442316Y-95613531D01*
X179469838Y-95628031D01*
X179481934Y-95696833D01*
X179483782Y-95771962D01*
X179493523Y-95940974D01*
X179520726Y-96152253D01*
X179562360Y-96391926D01*
X179615397Y-96646119D01*
X179676807Y-96900956D01*
X179743560Y-97142564D01*
X179812625Y-97357070D01*
X179853947Y-97467071D01*
X179995921Y-97773690D01*
X180164949Y-98061952D01*
X180353804Y-98322177D01*
X180555260Y-98544684D01*
X180762090Y-98719794D01*
X180816937Y-98757061D01*
X181020839Y-98867151D01*
X181225835Y-98939268D01*
X181423164Y-98972856D01*
X181604064Y-98967361D01*
X181759775Y-98922227D01*
X181881534Y-98836899D01*
X181892329Y-98825205D01*
X181951258Y-98751987D01*
X181970690Y-98700727D01*
X181945709Y-98662324D01*
X181871400Y-98627679D01*
X181767999Y-98595041D01*
X181558015Y-98524438D01*
X181368557Y-98443833D01*
X181214677Y-98360072D01*
X181148242Y-98313208D01*
X181064583Y-98246118D01*
X181387300Y-98244029D01*
X181688363Y-98223067D01*
X181955862Y-98165521D01*
X182185106Y-98073261D01*
X182371407Y-97948157D01*
X182506186Y-97797883D01*
X182560172Y-97706428D01*
X182594975Y-97624534D01*
X182606117Y-97565818D01*
X182589763Y-97543883D01*
X182552037Y-97550502D01*
X182470732Y-97568221D01*
X182360295Y-97593833D01*
X182302553Y-97607655D01*
X182153476Y-97636251D01*
X181982631Y-97657233D01*
X181804671Y-97670064D01*
X181634250Y-97674207D01*
X181486024Y-97669125D01*
X181374647Y-97654280D01*
X181337384Y-97643041D01*
X181299216Y-97624404D01*
X181301585Y-97611709D01*
X181351605Y-97599964D01*
X181412090Y-97590616D01*
X181646994Y-97528839D01*
X181847895Y-97418358D01*
X182012950Y-97260843D01*
X182140316Y-97057963D01*
X182213853Y-96864059D01*
X182237242Y-96778053D01*
X182249476Y-96721070D01*
X182249292Y-96707177D01*
X182221067Y-96722499D01*
X182158161Y-96762313D01*
X182089106Y-96808024D01*
X182026293Y-96848795D01*
X181971179Y-96877459D01*
X181910714Y-96896904D01*
X181831850Y-96910019D01*
X181721537Y-96919694D01*
X181566728Y-96928816D01*
X181536013Y-96930468D01*
X181354802Y-96938492D01*
X181219079Y-96939800D01*
X181114877Y-96933769D01*
X181028230Y-96919773D01*
X180971658Y-96905227D01*
X180787129Y-96828315D01*
X180630949Y-96712136D01*
X180502831Y-96555149D01*
X180402490Y-96355812D01*
X180329640Y-96112586D01*
X180283996Y-95823927D01*
X180265270Y-95488296D01*
X180273179Y-95104151D01*
X180307434Y-94669950D01*
X180367752Y-94184154D01*
X180412568Y-93890479D01*
X180441962Y-93691360D01*
X180458597Y-93527170D01*
X180463882Y-93374777D01*
X180459228Y-93211049D01*
X180456706Y-93166118D01*
X180393233Y-92457419D01*
X180288264Y-91772585D01*
X180139101Y-91100252D01*
X179943043Y-90429053D01*
X179697393Y-89747625D01*
X179571409Y-89438079D01*
X179507811Y-89283169D01*
X179467451Y-89174477D01*
X179448051Y-89104179D01*
X179447333Y-89064448D01*
X179458322Y-89049617D01*
X179500088Y-89025321D01*
X179580557Y-88978554D01*
X179686749Y-88916857D01*
X179767665Y-88869855D01*
X180036362Y-88687219D01*
X180294484Y-88458192D01*
X180417849Y-88331827D01*
X180509082Y-88225601D01*
X180581694Y-88121074D01*
X180649195Y-87999802D01*
X180688543Y-87920310D01*
X180806012Y-87633569D01*
X180871636Y-87362091D01*
X180886802Y-87093973D01*
X180852898Y-86817309D01*
X180829141Y-86714083D01*
X180740017Y-86452185D01*
X180617729Y-86224031D01*
X180467243Y-86034437D01*
X180293524Y-85888218D01*
X180101538Y-85790188D01*
X179896250Y-85745162D01*
X179827429Y-85742746D01*
X179720374Y-85747405D01*
X179631027Y-85757550D01*
X179590408Y-85767162D01*
X179563175Y-85784020D01*
X179570346Y-85807765D01*
X179618274Y-85847869D01*
X179668041Y-85882901D01*
X179783099Y-85975034D01*
X179908968Y-86096208D01*
X180028315Y-86227998D01*
X180123812Y-86351973D01*
X180154003Y-86399635D01*
X180211635Y-86499765D01*
X180034473Y-86360658D01*
X179869342Y-86243233D01*
X179725154Y-86169654D01*
X179589229Y-86134355D01*
X179507154Y-86129232D01*
X179384594Y-86132068D01*
X179313481Y-86144025D01*
X179292416Y-86171701D01*
X179320000Y-86221694D01*
X179394833Y-86300602D01*
X179458007Y-86360964D01*
X179556383Y-86456524D01*
X179643772Y-86546343D01*
X179706701Y-86616369D01*
X179723717Y-86638054D01*
X179781052Y-86718574D01*
X179550241Y-86719994D01*
X179426084Y-86724042D01*
X179314740Y-86733377D01*
X179238625Y-86746059D01*
X179234087Y-86747353D01*
X179148745Y-86773292D01*
X179308793Y-86860343D01*
X179423303Y-86932252D01*
X179544549Y-87022895D01*
X179610547Y-87079861D01*
X179696071Y-87169832D01*
X179783527Y-87278447D01*
X179864572Y-87393087D01*
X179930860Y-87501131D01*
X179974045Y-87589961D01*
X179985783Y-87646958D01*
X179985736Y-87647212D01*
X179957468Y-87683853D01*
X179889418Y-87741297D01*
X179793371Y-87810138D01*
X179730831Y-87850734D01*
X179501501Y-87974731D01*
X179267178Y-88058375D01*
X179005503Y-88109178D01*
X178938254Y-88117097D01*
X178823440Y-88136053D01*
X178740239Y-88171317D01*
X178660657Y-88234883D01*
X178658429Y-88236979D01*
X178602200Y-88292562D01*
X178570880Y-88338947D01*
X178558457Y-88395585D01*
X178558923Y-88481927D01*
X178562416Y-88547722D01*
X178567745Y-88656134D01*
X178566296Y-88715356D01*
X178555050Y-88735842D01*
X178530989Y-88728048D01*
X178513535Y-88717027D01*
X178316186Y-88591282D01*
X178125472Y-88477974D01*
X177932507Y-88372948D01*
X177728404Y-88272052D01*
X177504279Y-88171135D01*
X177251245Y-88066044D01*
X176960416Y-87952625D01*
X176622907Y-87826728D01*
X176555900Y-87802196D01*
X176289105Y-87704897D01*
X176072163Y-87625485D01*
X175898976Y-87560835D01*
X175763448Y-87507821D01*
X175659482Y-87463317D01*
X175580981Y-87424199D01*
X175521849Y-87387340D01*
X175475988Y-87349615D01*
X175437302Y-87307898D01*
X175399695Y-87259065D01*
X175357069Y-87199989D01*
X175342723Y-87180255D01*
X175133356Y-86852710D01*
X174943419Y-86469277D01*
X174773197Y-86030684D01*
X174622974Y-85537658D01*
X174501136Y-85029385D01*
X174461132Y-84843568D01*
X174430254Y-84708560D01*
X174405883Y-84616572D01*
X174385398Y-84559814D01*
X174366181Y-84530496D01*
X174345612Y-84520828D01*
X174330317Y-84521385D01*
X174306615Y-84528494D01*
X174289079Y-84547998D01*
X174276001Y-84588909D01*
X174265671Y-84660240D01*
X174256378Y-84771004D01*
X174246415Y-84930214D01*
X174243635Y-84978353D01*
X174232429Y-85479398D01*
X174257913Y-85943765D01*
X174319654Y-86368572D01*
X174417219Y-86750936D01*
X174550174Y-87087974D01*
X174566052Y-87120381D01*
X174700518Y-87389383D01*
X174589503Y-87306041D01*
X174336181Y-87098020D01*
X174072858Y-86846274D01*
X173797629Y-86548568D01*
X173508589Y-86202670D01*
X173203831Y-85806348D01*
X172881450Y-85357368D01*
X172696777Y-85088414D01*
X172586147Y-84925809D01*
X172498482Y-84798367D01*
X172498482Y-85076372D01*
X172517626Y-85088023D01*
X172562419Y-85140744D01*
X172625764Y-85225612D01*
X172686232Y-85312430D01*
X173015178Y-85780847D01*
X173334574Y-86201878D01*
X173643017Y-86574024D01*
X173939102Y-86895789D01*
X174221425Y-87165674D01*
X174488582Y-87382182D01*
X174739169Y-87543816D01*
X174816021Y-87583897D01*
X174932052Y-87639130D01*
X175026650Y-87681232D01*
X175088113Y-87705172D01*
X175105339Y-87708286D01*
X175093382Y-87681375D01*
X175051637Y-87619112D01*
X174987821Y-87532680D01*
X174953282Y-87488016D01*
X174755616Y-87196449D01*
X174600745Y-86878711D01*
X174487280Y-86530068D01*
X174413837Y-86145788D01*
X174379028Y-85721137D01*
X174375597Y-85516236D01*
X174376111Y-85127765D01*
X174477180Y-85516236D01*
X174619316Y-85996858D01*
X174784120Y-86435345D01*
X174969557Y-86827053D01*
X175173590Y-87167336D01*
X175245322Y-87268453D01*
X175300740Y-87343106D01*
X175348741Y-87403792D01*
X175396418Y-87454402D01*
X175450865Y-87498826D01*
X175519178Y-87540958D01*
X175608451Y-87584688D01*
X175725778Y-87633907D01*
X175878254Y-87692507D01*
X176072972Y-87764379D01*
X176301312Y-87847681D01*
X176643245Y-87973470D01*
X176936008Y-88083833D01*
X177187169Y-88182126D01*
X177404295Y-88271707D01*
X177594952Y-88355931D01*
X177766708Y-88438156D01*
X177927130Y-88521738D01*
X178083785Y-88610033D01*
X178244240Y-88706399D01*
X178262218Y-88717494D01*
X178398945Y-88799042D01*
X178535274Y-88875094D01*
X178660962Y-88940523D01*
X178765764Y-88990204D01*
X178839435Y-89019009D01*
X178871310Y-89022316D01*
X178862486Y-88993557D01*
X178827778Y-88931734D01*
X178794690Y-88880282D01*
X178744024Y-88793398D01*
X178712119Y-88716701D01*
X178706512Y-88686739D01*
X178701415Y-88614657D01*
X178689431Y-88522876D01*
X178687971Y-88513851D01*
X178690470Y-88409625D01*
X178739241Y-88331488D01*
X178837592Y-88276842D01*
X178988833Y-88243092D01*
X179040811Y-88237063D01*
X179310657Y-88186753D01*
X179576238Y-88087225D01*
X179756477Y-87991901D01*
X179927137Y-87883238D01*
X180047966Y-87787002D01*
X180115955Y-87705714D01*
X180126572Y-87681701D01*
X180122526Y-87613133D01*
X180083704Y-87511973D01*
X180016416Y-87389029D01*
X179926975Y-87255108D01*
X179821694Y-87121018D01*
X179756574Y-87048187D01*
X179668969Y-86952968D01*
X179619644Y-86892428D01*
X179604169Y-86859444D01*
X179618111Y-86846894D01*
X179630765Y-86846000D01*
X179698423Y-86859363D01*
X179785421Y-86892510D01*
X179806848Y-86902888D01*
X179886335Y-86937127D01*
X179937942Y-86939250D01*
X179967835Y-86923596D01*
X179992981Y-86898455D01*
X179995415Y-86864870D01*
X179972342Y-86807576D01*
X179932986Y-86733215D01*
X179867603Y-86627689D01*
X179781551Y-86506880D01*
X179704867Y-86410700D01*
X179561074Y-86242389D01*
X179677804Y-86291162D01*
X179799184Y-86356268D01*
X179941925Y-86455435D01*
X180089671Y-86576365D01*
X180214494Y-86694761D01*
X180311455Y-86780995D01*
X180380624Y-86814809D01*
X180419471Y-86797950D01*
X180425462Y-86732161D01*
X180396068Y-86619189D01*
X180381320Y-86579766D01*
X180267061Y-86348712D01*
X180115160Y-86126968D01*
X179990783Y-85986883D01*
X179923049Y-85913190D01*
X179902781Y-85872993D01*
X179930815Y-85865849D01*
X180007984Y-85891310D01*
X180096371Y-85930486D01*
X180227824Y-86012624D01*
X180364293Y-86131794D01*
X180487661Y-86269920D01*
X180579807Y-86408929D01*
X180583912Y-86416832D01*
X180669709Y-86633133D01*
X180725964Y-86877500D01*
X180750437Y-87130133D01*
X180740889Y-87371231D01*
X180710075Y-87532504D01*
X180597673Y-87828284D01*
X180429749Y-88105856D01*
X180208391Y-88362914D01*
X179935686Y-88597147D01*
X179613724Y-88806247D01*
X179503976Y-88865742D01*
X179386552Y-88930731D01*
X179301788Y-88985848D01*
X179258289Y-89025163D01*
X179254851Y-89037435D01*
X179271094Y-89075771D01*
X179306391Y-89158797D01*
X179356364Y-89276225D01*
X179416636Y-89417766D01*
X179454023Y-89505530D01*
X179696811Y-90124048D01*
X179903797Y-90752931D01*
X180070657Y-91377592D01*
X180193064Y-91983441D01*
X180198375Y-92015647D01*
X180255566Y-92398667D01*
X180294065Y-92738938D01*
X180314165Y-93050379D01*
X180316159Y-93346911D01*
X180300338Y-93642455D01*
X180266995Y-93950930D01*
X180242635Y-94122353D01*
X180204762Y-94409736D01*
X180175651Y-94709780D01*
X180155660Y-95011117D01*
X180145151Y-95302376D01*
X180144484Y-95572187D01*
X180154018Y-95809181D01*
X180174114Y-96001988D01*
X180181680Y-96046494D01*
X180256885Y-96330244D01*
X180366209Y-96572958D01*
X180507318Y-96771052D01*
X180677875Y-96920940D01*
X180794148Y-96986602D01*
X180857032Y-97012335D01*
X180924200Y-97030599D01*
X181007814Y-97042850D01*
X181120036Y-97050544D01*
X181273029Y-97055137D01*
X181381312Y-97056901D01*
X181547249Y-97057357D01*
X181699254Y-97054487D01*
X181823820Y-97048783D01*
X181907442Y-97040737D01*
X181926107Y-97037052D01*
X182022667Y-97011126D01*
X181979474Y-97094651D01*
X181872351Y-97237489D01*
X181716425Y-97348607D01*
X181514323Y-97426727D01*
X181268674Y-97470572D01*
X181194655Y-97476402D01*
X180908618Y-97493467D01*
X181029388Y-97606119D01*
X181181445Y-97712334D01*
X181370672Y-97780000D01*
X181601837Y-97810598D01*
X181695012Y-97812824D01*
X181879929Y-97805223D01*
X182073384Y-97784605D01*
X182249245Y-97754243D01*
X182336388Y-97732435D01*
X182373882Y-97731108D01*
X182370997Y-97756968D01*
X182335276Y-97801492D01*
X182274263Y-97856159D01*
X182195502Y-97912445D01*
X182156084Y-97936141D01*
X181997598Y-98013318D01*
X181832540Y-98066016D01*
X181647378Y-98096678D01*
X181428580Y-98107746D01*
X181224429Y-98104294D01*
X181078501Y-98099675D01*
X180956815Y-98097529D01*
X180870345Y-98097917D01*
X180830065Y-98100906D01*
X180828488Y-98101976D01*
X180840791Y-98134571D01*
X180870520Y-98195890D01*
X180871785Y-98198343D01*
X180959275Y-98315030D01*
X181096894Y-98431636D01*
X181275308Y-98542077D01*
X181485181Y-98640273D01*
X181632985Y-98694304D01*
X181722176Y-98725587D01*
X181762432Y-98747873D01*
X181762349Y-98768368D01*
X181742288Y-98785950D01*
X181634111Y-98831818D01*
X181490371Y-98844739D01*
X181324252Y-98826339D01*
X181148939Y-98778245D01*
X180977617Y-98702085D01*
X180953544Y-98688610D01*
X180819210Y-98594558D01*
X180669012Y-98462314D01*
X180516255Y-98305847D01*
X180374242Y-98139128D01*
X180256278Y-97976127D01*
X180221752Y-97920177D01*
X180048505Y-97580927D01*
X179899954Y-97203597D01*
X179798216Y-96864781D01*
X179761250Y-96706361D01*
X179723484Y-96518051D01*
X179687217Y-96314397D01*
X179654752Y-96109942D01*
X179628388Y-95919231D01*
X179610426Y-95756809D01*
X179603167Y-95637219D01*
X179603120Y-95631412D01*
X179596246Y-95457985D01*
X179576512Y-95342664D01*
X179543142Y-95285026D01*
X179495360Y-95284646D01*
X179432390Y-95341102D01*
X179353457Y-95453968D01*
X179334773Y-95484809D01*
X179178160Y-95707850D01*
X178982690Y-95923532D01*
X178767864Y-96111614D01*
X178651464Y-96194066D01*
X178560619Y-96248493D01*
X178429308Y-96321532D01*
X178270966Y-96405984D01*
X178099031Y-96494647D01*
X177971518Y-96558454D01*
X177766551Y-96662025D01*
X177606548Y-96749144D01*
X177481200Y-96826085D01*
X177380195Y-96899122D01*
X177303295Y-96965117D01*
X177206300Y-97055580D01*
X177132094Y-97131027D01*
X177077870Y-97201188D01*
X177040821Y-97275797D01*
X177018140Y-97364586D01*
X177007018Y-97477287D01*
X177004649Y-97623633D01*
X177008226Y-97813357D01*
X177012639Y-97972748D01*
X177031022Y-98419172D01*
X177061092Y-98826936D01*
X177104997Y-99216375D01*
X177164886Y-99607828D01*
X177213197Y-99871927D01*
X177253169Y-100083610D01*
X177280183Y-100237917D01*
X177294232Y-100334684D01*
X177295310Y-100373750D01*
X177283409Y-100354952D01*
X177258525Y-100278129D01*
X177224844Y-100158589D01*
X177131846Y-99834950D01*
X177037512Y-99541320D01*
X176943954Y-99282971D01*
X176853280Y-99065172D01*
X176767600Y-98893192D01*
X176744567Y-98857756D01*
X176744567Y-99137608D01*
X176762332Y-99141710D01*
X176764488Y-99157530D01*
X176753555Y-99182126D01*
X176744567Y-99177451D01*
X176740990Y-99141988D01*
X176744567Y-99137608D01*
X176744567Y-98857756D01*
X176689025Y-98772303D01*
X176654531Y-98734045D01*
X176566167Y-98674139D01*
X176463313Y-98634742D01*
X176453459Y-98632713D01*
X176336666Y-98611220D01*
X176411600Y-98712551D01*
X176460626Y-98786327D01*
X176504332Y-98871230D01*
X176546240Y-98977074D01*
X176589873Y-99113670D01*
X176638755Y-99290830D01*
X176686361Y-99477815D01*
X176722829Y-99630144D01*
X176764960Y-99815672D01*
X176811358Y-100027376D01*
X176860625Y-100258233D01*
X176911363Y-100501220D01*
X176962173Y-100749313D01*
X177011660Y-100995491D01*
X177058424Y-101232729D01*
X177101068Y-101454006D01*
X177138195Y-101652297D01*
X177168407Y-101820580D01*
X177190306Y-101951832D01*
X177202494Y-102039030D01*
X177203574Y-102075151D01*
X177203330Y-102075472D01*
X177184399Y-102054862D01*
X177139448Y-101984391D01*
X177070216Y-101867125D01*
X176978443Y-101706132D01*
X176865868Y-101504477D01*
X176734229Y-101265227D01*
X176585265Y-100991448D01*
X176517313Y-100865718D01*
X176205614Y-100287906D01*
X175996702Y-100186854D01*
X175777987Y-100050125D01*
X175573827Y-99861849D01*
X175389562Y-99629528D01*
X175230531Y-99360664D01*
X175102076Y-99062759D01*
X175030050Y-98828824D01*
X174988066Y-98613474D01*
X174959936Y-98357073D01*
X174946187Y-98076832D01*
X174947344Y-97789959D01*
X174963937Y-97513666D01*
X174984443Y-97339668D01*
X175079491Y-96859146D01*
X175227009Y-96357351D01*
X175427500Y-95832786D01*
X175668272Y-95310425D01*
X175857674Y-94929177D01*
X175757795Y-94779765D01*
X175641244Y-94572813D01*
X175530056Y-94310687D01*
X175425186Y-93997814D01*
X175327587Y-93638621D01*
X175238213Y-93237536D01*
X175158020Y-92798987D01*
X175087960Y-92327400D01*
X175028988Y-91827204D01*
X174982058Y-91302825D01*
X174968972Y-91119177D01*
X174961856Y-90977525D01*
X174956396Y-90796988D01*
X174952532Y-90585823D01*
X174950201Y-90352287D01*
X174949343Y-90104635D01*
X174949896Y-89851125D01*
X174951798Y-89600013D01*
X174954989Y-89359556D01*
X174959406Y-89138011D01*
X174964989Y-88943634D01*
X174971677Y-88784682D01*
X174979407Y-88669412D01*
X174987633Y-88607997D01*
X174992381Y-88572603D01*
X174980931Y-88543085D01*
X174944224Y-88512482D01*
X174873197Y-88473835D01*
X174758789Y-88420184D01*
X174720374Y-88402716D01*
X174340952Y-88210898D01*
X173945049Y-87973968D01*
X173543875Y-87699774D01*
X173148640Y-87396168D01*
X172770552Y-87071000D01*
X172625782Y-86935843D01*
X172487517Y-86800760D01*
X172339911Y-86651805D01*
X172192324Y-86498880D01*
X172054120Y-86351888D01*
X171934659Y-86220729D01*
X171843303Y-86115305D01*
X171806281Y-86069059D01*
X171763855Y-86011752D01*
X171749950Y-85987625D01*
X171768169Y-85998832D01*
X171822115Y-86047528D01*
X171911053Y-86131733D01*
X172300905Y-86487320D01*
X172704918Y-86825476D01*
X173109631Y-87135527D01*
X173501585Y-87406797D01*
X173592037Y-87464806D01*
X173785153Y-87583623D01*
X173939648Y-87671214D01*
X174064787Y-87732111D01*
X174169837Y-87770846D01*
X174259372Y-87791231D01*
X174388841Y-87811604D01*
X174029634Y-87439324D01*
X173628266Y-87001037D01*
X173283994Y-86577337D01*
X172996966Y-86168440D01*
X172767331Y-85774563D01*
X172595240Y-85395922D01*
X172568786Y-85324957D01*
X172532335Y-85217168D01*
X172507256Y-85130611D01*
X172497957Y-85080873D01*
X172498482Y-85076372D01*
X172498482Y-84798367D01*
X172487042Y-84781736D01*
X172404183Y-84662930D01*
X172342295Y-84576125D01*
X172306100Y-84528058D01*
X172298645Y-84520649D01*
X172297867Y-84552598D01*
X172302105Y-84629899D01*
X172310497Y-84738428D01*
X172315078Y-84790205D01*
X172349454Y-85010764D01*
X172411080Y-85255908D01*
X172492758Y-85501386D01*
X172587288Y-85722945D01*
X172598880Y-85746235D01*
X172746095Y-86011213D01*
X172929612Y-86300435D01*
X173139642Y-86600100D01*
X173366395Y-86896408D01*
X173600081Y-87175559D01*
X173662189Y-87245197D01*
X173755460Y-87349034D01*
X173811157Y-87414082D01*
X173832263Y-87445447D01*
X173821760Y-87448235D01*
X173782633Y-87427554D01*
X173761312Y-87414864D01*
X173413994Y-87191365D01*
X173058390Y-86935872D01*
X172704446Y-86657045D01*
X172362107Y-86363545D01*
X172041320Y-86064033D01*
X171752032Y-85767170D01*
X171504188Y-85481617D01*
X171424727Y-85380227D01*
X171221312Y-85112053D01*
X171211908Y-85236373D01*
X171227437Y-85372535D01*
D14*
X136463900Y-83010000D02*
X133588900Y-83010000D01*
X136463900Y-83010000D02*
X137963900Y-83010000D01*
X136463900Y-79790000D02*
X134963900Y-79790000D01*
X136463900Y-79790000D02*
X137963900Y-79790000D01*
X123747900Y-122916500D02*
G75*
G03X122147900Y-121316500I-1600000J0D01*
G01*
X122147900Y-121316500D02*
G75*
G03X120547900Y-122916500I0J-1600000D01*
G01*
X126747900Y-108016500D02*
X126747900Y-110516500D01*
X126747900Y-108016500D02*
X123747900Y-108016500D01*
X117547900Y-108016500D02*
X117547900Y-110516500D01*
X117547900Y-108016500D02*
X120547900Y-108016500D01*
X117547900Y-122916500D02*
X117547900Y-119916500D01*
X117547900Y-122916500D02*
X120547900Y-122916500D01*
X126747900Y-122916500D02*
X123747900Y-122916500D01*
X126747900Y-122916500D02*
X126747900Y-119916500D01*
X122013621Y-101160000D02*
X122339179Y-101160000D01*
X122013621Y-100140000D02*
X122339179Y-100140000D01*
X136799285Y-119484160D02*
G75*
G03X137713900Y-119100000I124615J984160D01*
G01*
X147628515Y-119484160D02*
G75*
G02X146713900Y-119100000I-124615J984160D01*
G01*
X137723239Y-119088671D02*
G75*
G02X146713900Y-119100000I4490661J-3711329D01*
G01*
X135463900Y-117950000D02*
G75*
G03X136913900Y-119500000I1500000J-50000D01*
G01*
X148963900Y-117950000D02*
G75*
G02X147513900Y-119500000I-1500000J-50000D01*
G01*
X135463900Y-115900000D02*
X135463900Y-118000000D01*
X148963900Y-115900000D02*
X148963900Y-118000000D01*
X148963900Y-111900000D02*
X148963900Y-110450000D01*
X148963900Y-110450000D02*
X146363900Y-107850000D01*
X146363900Y-107850000D02*
X146363900Y-107050000D01*
X146363900Y-107050000D02*
X138063900Y-107050000D01*
X138063900Y-107050000D02*
X138063900Y-107850000D01*
X138063900Y-107850000D02*
X135463900Y-110450000D01*
X135463900Y-110450000D02*
X135463900Y-111900000D01*
X165713900Y-110400000D02*
X165713900Y-114300000D01*
X167713900Y-110400000D02*
X167713900Y-114300000D01*
X165713900Y-110400000D02*
X167713900Y-110400000D01*
X160603900Y-110300000D02*
X160603900Y-108500000D01*
X163823900Y-108500000D02*
X163823900Y-110950000D01*
X111963900Y-107650000D02*
X113963900Y-107650000D01*
X113963900Y-107650000D02*
X113963900Y-111550000D01*
X111963900Y-107650000D02*
X111963900Y-111550000D01*
X139885167Y-83890000D02*
X139542633Y-83890000D01*
X139885167Y-84910000D02*
X139542633Y-84910000D01*
X139104400Y-77778733D02*
X139104400Y-78121267D01*
X138084400Y-77778733D02*
X138084400Y-78121267D01*
X120724000Y-74870500D02*
X120724000Y-69670500D01*
X130944000Y-74870500D02*
X120724000Y-74870500D01*
X133544000Y-69670500D02*
X120724000Y-69670500D01*
X130944000Y-74870500D02*
X130944000Y-72270500D01*
X130944000Y-72270500D02*
X133544000Y-72270500D01*
X133544000Y-72270500D02*
X133544000Y-69670500D01*
X132214000Y-74870500D02*
X133544000Y-74870500D01*
X133544000Y-74870500D02*
X133544000Y-73540500D01*
X141654000Y-75480000D02*
X141654000Y-70280000D01*
X141654000Y-70280000D02*
X144314000Y-70280000D01*
X144314000Y-70280000D02*
X144314000Y-75480000D01*
X144314000Y-75480000D02*
X141654000Y-75480000D01*
X144314000Y-74530000D02*
X150314000Y-74530000D01*
X150314000Y-74530000D02*
X150314000Y-73770000D01*
X150314000Y-73770000D02*
X144314000Y-73770000D01*
X144314000Y-74470000D02*
X150314000Y-74470000D01*
X144314000Y-74350000D02*
X150314000Y-74350000D01*
X144314000Y-74230000D02*
X150314000Y-74230000D01*
X144314000Y-74110000D02*
X150314000Y-74110000D01*
X144314000Y-73990000D02*
X150314000Y-73990000D01*
X144314000Y-73870000D02*
X150314000Y-73870000D01*
X141324000Y-74530000D02*
X141654000Y-74530000D01*
X141324000Y-73770000D02*
X141654000Y-73770000D01*
X141654000Y-72880000D02*
X144314000Y-72880000D01*
X144314000Y-71990000D02*
X150314000Y-71990000D01*
X150314000Y-71990000D02*
X150314000Y-71230000D01*
X150314000Y-71230000D02*
X144314000Y-71230000D01*
X141256929Y-71990000D02*
X141654000Y-71990000D01*
X141256929Y-71230000D02*
X141654000Y-71230000D01*
X138944000Y-74150000D02*
X138944000Y-75420000D01*
X138944000Y-75420000D02*
X140214000Y-75420000D01*
X160153900Y-116150000D02*
X160533900Y-116150000D01*
X160153900Y-120200000D02*
X160153900Y-120460000D01*
X160153900Y-116150000D02*
X160153900Y-117920000D01*
X167773900Y-116150000D02*
X167393900Y-116150000D01*
X167773900Y-117920000D02*
X167773900Y-116150000D01*
X167773900Y-120460000D02*
X167773900Y-120200000D01*
X128043900Y-103160000D02*
X127113900Y-103160000D01*
X124883900Y-103160000D02*
X125813900Y-103160000D01*
X124883900Y-103160000D02*
X124883900Y-100000000D01*
X128043900Y-103160000D02*
X128043900Y-101700000D01*
X118953900Y-103812779D02*
X118953900Y-103487221D01*
X119973900Y-103812779D02*
X119973900Y-103487221D01*
X161973900Y-113312779D02*
X161973900Y-112987221D01*
X160953900Y-113312779D02*
X160953900Y-112987221D01*
X162703900Y-113312779D02*
X162703900Y-112987221D01*
X163723900Y-113312779D02*
X163723900Y-112987221D01*
X159973900Y-109562779D02*
X159973900Y-109237221D01*
X158953900Y-109562779D02*
X158953900Y-109237221D01*
X126376679Y-83060000D02*
X126051121Y-83060000D01*
X126376679Y-82040000D02*
X126051121Y-82040000D01*
X131126679Y-80640000D02*
X130801121Y-80640000D01*
X131126679Y-81660000D02*
X130801121Y-81660000D01*
X131126679Y-80160000D02*
X130801121Y-80160000D01*
X131126679Y-79140000D02*
X130801121Y-79140000D01*
X123373900Y-90040000D02*
X123823900Y-90040000D01*
X123823900Y-90040000D02*
X123823900Y-90490000D01*
X117053900Y-90040000D02*
X116603900Y-90040000D01*
X116603900Y-90040000D02*
X116603900Y-90490000D01*
X123373900Y-97260000D02*
X123823900Y-97260000D01*
X123823900Y-97260000D02*
X123823900Y-96810000D01*
X117053900Y-97260000D02*
X116603900Y-97260000D01*
X116603900Y-97260000D02*
X116603900Y-96810000D01*
X116603900Y-96810000D02*
X115313900Y-96810000D01*
X167873900Y-99740000D02*
X167873900Y-101000000D01*
X167873900Y-106560000D02*
X167873900Y-105300000D01*
X164113900Y-99740000D02*
X167873900Y-99740000D01*
X161863900Y-106560000D02*
X167873900Y-106560000D01*
X110488900Y-96585000D02*
X110488900Y-90335000D01*
X105438900Y-96585000D02*
X105438900Y-90335000D01*
X105438900Y-96585000D02*
G75*
G03X110488900Y-96585000I2525000J0D01*
G01*
X105438900Y-90335000D02*
G75*
G02X110488900Y-90335000I2525000J0D01*
G01*
X112288900Y-100525000D02*
X113638900Y-100525000D01*
X112288900Y-102275000D02*
X113638900Y-102275000D01*
X152453900Y-89300000D02*
X152453900Y-81065000D01*
X152453900Y-81065000D02*
X156973900Y-81065000D01*
X156973900Y-81065000D02*
X156973900Y-89300000D01*
X146203900Y-85650000D02*
X146203900Y-81265000D01*
X146203900Y-81265000D02*
X149223900Y-81265000D01*
X149223900Y-81265000D02*
X149223900Y-85650000D01*
D15*
X153454281Y-78350000D02*
X152807281Y-78350000D01*
X149804281Y-78350000D02*
X149157281Y-78350000D01*
X149758281Y-79950000D02*
X149111281Y-79950000D01*
X153489281Y-79950000D02*
X152842281Y-79950000D01*
X156586899Y-79058000D02*
G75*
G03X156586899Y-79058000I-163618J0D01*
G01*
D11*
X137225804Y-83302380D02*
X137225804Y-84111904D01*
X137178185Y-84207142D01*
X137130566Y-84254761D01*
X137035328Y-84302380D01*
X136844852Y-84302380D01*
X136749614Y-84254761D01*
X136701995Y-84207142D01*
X136654376Y-84111904D01*
X136654376Y-83302380D01*
X136273423Y-83302380D02*
X135654376Y-83302380D01*
X135987709Y-83683333D01*
X135844852Y-83683333D01*
X135749614Y-83730952D01*
X135701995Y-83778571D01*
X135654376Y-83873809D01*
X135654376Y-84111904D01*
X135701995Y-84207142D01*
X135749614Y-84254761D01*
X135844852Y-84302380D01*
X136130566Y-84302380D01*
X136225804Y-84254761D01*
X136273423Y-84207142D01*
X122819257Y-102532380D02*
X123152590Y-102056190D01*
X123390685Y-102532380D02*
X123390685Y-101532380D01*
X123009733Y-101532380D01*
X122914495Y-101580000D01*
X122866876Y-101627619D01*
X122819257Y-101722857D01*
X122819257Y-101865714D01*
X122866876Y-101960952D01*
X122914495Y-102008571D01*
X123009733Y-102056190D01*
X123390685Y-102056190D01*
X121866876Y-102532380D02*
X122438304Y-102532380D01*
X122152590Y-102532380D02*
X122152590Y-101532380D01*
X122247828Y-101675238D01*
X122343066Y-101770476D01*
X122438304Y-101818095D01*
X120914495Y-102532380D02*
X121485923Y-102532380D01*
X121200209Y-102532380D02*
X121200209Y-101532380D01*
X121295447Y-101675238D01*
X121390685Y-101770476D01*
X121485923Y-101818095D01*
X141936042Y-78231642D02*
X141983661Y-78184023D01*
X142031280Y-78041166D01*
X142031280Y-77945928D01*
X141983661Y-77803071D01*
X141888423Y-77707833D01*
X141793185Y-77660214D01*
X141602709Y-77612595D01*
X141459852Y-77612595D01*
X141269376Y-77660214D01*
X141174138Y-77707833D01*
X141078900Y-77803071D01*
X141031280Y-77945928D01*
X141031280Y-78041166D01*
X141078900Y-78184023D01*
X141126519Y-78231642D01*
X142031280Y-79184023D02*
X142031280Y-78612595D01*
X142031280Y-78898309D02*
X141031280Y-78898309D01*
X141174138Y-78803071D01*
X141269376Y-78707833D01*
X141316995Y-78612595D01*
X141031280Y-79517357D02*
X141031280Y-80184023D01*
X142031280Y-79755452D01*
X142999614Y-105828571D02*
X142856757Y-105876190D01*
X142809138Y-105923809D01*
X142761519Y-106019047D01*
X142761519Y-106161904D01*
X142809138Y-106257142D01*
X142856757Y-106304761D01*
X142951995Y-106352380D01*
X143332947Y-106352380D01*
X143332947Y-105352380D01*
X142999614Y-105352380D01*
X142904376Y-105400000D01*
X142856757Y-105447619D01*
X142809138Y-105542857D01*
X142809138Y-105638095D01*
X142856757Y-105733333D01*
X142904376Y-105780952D01*
X142999614Y-105828571D01*
X143332947Y-105828571D01*
X142475804Y-105352380D02*
X141904376Y-105352380D01*
X142190090Y-106352380D02*
X142190090Y-105352380D01*
X141047233Y-106352380D02*
X141618661Y-106352380D01*
X141332947Y-106352380D02*
X141332947Y-105352380D01*
X141428185Y-105495238D01*
X141523423Y-105590476D01*
X141618661Y-105638095D01*
X127380566Y-97307142D02*
X127428185Y-97354761D01*
X127571042Y-97402380D01*
X127666280Y-97402380D01*
X127809138Y-97354761D01*
X127904376Y-97259523D01*
X127951995Y-97164285D01*
X127999614Y-96973809D01*
X127999614Y-96830952D01*
X127951995Y-96640476D01*
X127904376Y-96545238D01*
X127809138Y-96450000D01*
X127666280Y-96402380D01*
X127571042Y-96402380D01*
X127428185Y-96450000D01*
X127380566Y-96497619D01*
X126428185Y-97402380D02*
X126999614Y-97402380D01*
X126713900Y-97402380D02*
X126713900Y-96402380D01*
X126809138Y-96545238D01*
X126904376Y-96640476D01*
X126999614Y-96688095D01*
X104130566Y-92427142D02*
X104178185Y-92474761D01*
X104321042Y-92522380D01*
X104416280Y-92522380D01*
X104559138Y-92474761D01*
X104654376Y-92379523D01*
X104701995Y-92284285D01*
X104749614Y-92093809D01*
X104749614Y-91950952D01*
X104701995Y-91760476D01*
X104654376Y-91665238D01*
X104559138Y-91570000D01*
X104416280Y-91522380D01*
X104321042Y-91522380D01*
X104178185Y-91570000D01*
X104130566Y-91617619D01*
X103749614Y-91617619D02*
X103701995Y-91570000D01*
X103606757Y-91522380D01*
X103368661Y-91522380D01*
X103273423Y-91570000D01*
X103225804Y-91617619D01*
X103178185Y-91712857D01*
X103178185Y-91808095D01*
X103225804Y-91950952D01*
X103797233Y-92522380D01*
X103178185Y-92522380D01*
X123380566Y-87007142D02*
X123428185Y-87054761D01*
X123571042Y-87102380D01*
X123666280Y-87102380D01*
X123809138Y-87054761D01*
X123904376Y-86959523D01*
X123951995Y-86864285D01*
X123999614Y-86673809D01*
X123999614Y-86530952D01*
X123951995Y-86340476D01*
X123904376Y-86245238D01*
X123809138Y-86150000D01*
X123666280Y-86102380D01*
X123571042Y-86102380D01*
X123428185Y-86150000D01*
X123380566Y-86197619D01*
X123047233Y-86102380D02*
X122428185Y-86102380D01*
X122761519Y-86483333D01*
X122618661Y-86483333D01*
X122523423Y-86530952D01*
X122475804Y-86578571D01*
X122428185Y-86673809D01*
X122428185Y-86911904D01*
X122475804Y-87007142D01*
X122523423Y-87054761D01*
X122618661Y-87102380D01*
X122904376Y-87102380D01*
X122999614Y-87054761D01*
X123047233Y-87007142D01*
X104130566Y-97427142D02*
X104178185Y-97474761D01*
X104321042Y-97522380D01*
X104416280Y-97522380D01*
X104559138Y-97474761D01*
X104654376Y-97379523D01*
X104701995Y-97284285D01*
X104749614Y-97093809D01*
X104749614Y-96950952D01*
X104701995Y-96760476D01*
X104654376Y-96665238D01*
X104559138Y-96570000D01*
X104416280Y-96522380D01*
X104321042Y-96522380D01*
X104178185Y-96570000D01*
X104130566Y-96617619D01*
X103273423Y-96855714D02*
X103273423Y-97522380D01*
X103511519Y-96474761D02*
X103749614Y-97189047D01*
X103130566Y-97189047D01*
X114271042Y-94348333D02*
X114318661Y-94300714D01*
X114366280Y-94157857D01*
X114366280Y-94062619D01*
X114318661Y-93919761D01*
X114223423Y-93824523D01*
X114128185Y-93776904D01*
X113937709Y-93729285D01*
X113794852Y-93729285D01*
X113604376Y-93776904D01*
X113509138Y-93824523D01*
X113413900Y-93919761D01*
X113366280Y-94062619D01*
X113366280Y-94157857D01*
X113413900Y-94300714D01*
X113461519Y-94348333D01*
X113366280Y-95253095D02*
X113366280Y-94776904D01*
X113842471Y-94729285D01*
X113794852Y-94776904D01*
X113747233Y-94872142D01*
X113747233Y-95110238D01*
X113794852Y-95205476D01*
X113842471Y-95253095D01*
X113937709Y-95300714D01*
X114175804Y-95300714D01*
X114271042Y-95253095D01*
X114318661Y-95205476D01*
X114366280Y-95110238D01*
X114366280Y-94872142D01*
X114318661Y-94776904D01*
X114271042Y-94729285D01*
X117630566Y-101007142D02*
X117678185Y-101054761D01*
X117821042Y-101102380D01*
X117916280Y-101102380D01*
X118059138Y-101054761D01*
X118154376Y-100959523D01*
X118201995Y-100864285D01*
X118249614Y-100673809D01*
X118249614Y-100530952D01*
X118201995Y-100340476D01*
X118154376Y-100245238D01*
X118059138Y-100150000D01*
X117916280Y-100102380D01*
X117821042Y-100102380D01*
X117678185Y-100150000D01*
X117630566Y-100197619D01*
X116773423Y-100102380D02*
X116963900Y-100102380D01*
X117059138Y-100150000D01*
X117106757Y-100197619D01*
X117201995Y-100340476D01*
X117249614Y-100530952D01*
X117249614Y-100911904D01*
X117201995Y-101007142D01*
X117154376Y-101054761D01*
X117059138Y-101102380D01*
X116868661Y-101102380D01*
X116773423Y-101054761D01*
X116725804Y-101007142D01*
X116678185Y-100911904D01*
X116678185Y-100673809D01*
X116725804Y-100578571D01*
X116773423Y-100530952D01*
X116868661Y-100483333D01*
X117059138Y-100483333D01*
X117154376Y-100530952D01*
X117201995Y-100578571D01*
X117249614Y-100673809D01*
X109571042Y-102483333D02*
X109618661Y-102435714D01*
X109666280Y-102292857D01*
X109666280Y-102197619D01*
X109618661Y-102054761D01*
X109523423Y-101959523D01*
X109428185Y-101911904D01*
X109237709Y-101864285D01*
X109094852Y-101864285D01*
X108904376Y-101911904D01*
X108809138Y-101959523D01*
X108713900Y-102054761D01*
X108666280Y-102197619D01*
X108666280Y-102292857D01*
X108713900Y-102435714D01*
X108761519Y-102483333D01*
X108666280Y-102816666D02*
X108666280Y-103483333D01*
X109666280Y-103054761D01*
X112821042Y-94233333D02*
X112868661Y-94185714D01*
X112916280Y-94042857D01*
X112916280Y-93947619D01*
X112868661Y-93804761D01*
X112773423Y-93709523D01*
X112678185Y-93661904D01*
X112487709Y-93614285D01*
X112344852Y-93614285D01*
X112154376Y-93661904D01*
X112059138Y-93709523D01*
X111963900Y-93804761D01*
X111916280Y-93947619D01*
X111916280Y-94042857D01*
X111963900Y-94185714D01*
X112011519Y-94233333D01*
X112344852Y-94804761D02*
X112297233Y-94709523D01*
X112249614Y-94661904D01*
X112154376Y-94614285D01*
X112106757Y-94614285D01*
X112011519Y-94661904D01*
X111963900Y-94709523D01*
X111916280Y-94804761D01*
X111916280Y-94995238D01*
X111963900Y-95090476D01*
X112011519Y-95138095D01*
X112106757Y-95185714D01*
X112154376Y-95185714D01*
X112249614Y-95138095D01*
X112297233Y-95090476D01*
X112344852Y-94995238D01*
X112344852Y-94804761D01*
X112392471Y-94709523D01*
X112440090Y-94661904D01*
X112535328Y-94614285D01*
X112725804Y-94614285D01*
X112821042Y-94661904D01*
X112868661Y-94709523D01*
X112916280Y-94804761D01*
X112916280Y-94995238D01*
X112868661Y-95090476D01*
X112821042Y-95138095D01*
X112725804Y-95185714D01*
X112535328Y-95185714D01*
X112440090Y-95138095D01*
X112392471Y-95090476D01*
X112344852Y-94995238D01*
X116991042Y-102483333D02*
X117038661Y-102435714D01*
X117086280Y-102292857D01*
X117086280Y-102197619D01*
X117038661Y-102054761D01*
X116943423Y-101959523D01*
X116848185Y-101911904D01*
X116657709Y-101864285D01*
X116514852Y-101864285D01*
X116324376Y-101911904D01*
X116229138Y-101959523D01*
X116133900Y-102054761D01*
X116086280Y-102197619D01*
X116086280Y-102292857D01*
X116133900Y-102435714D01*
X116181519Y-102483333D01*
X117086280Y-102959523D02*
X117086280Y-103150000D01*
X117038661Y-103245238D01*
X116991042Y-103292857D01*
X116848185Y-103388095D01*
X116657709Y-103435714D01*
X116276757Y-103435714D01*
X116181519Y-103388095D01*
X116133900Y-103340476D01*
X116086280Y-103245238D01*
X116086280Y-103054761D01*
X116133900Y-102959523D01*
X116181519Y-102911904D01*
X116276757Y-102864285D01*
X116514852Y-102864285D01*
X116610090Y-102911904D01*
X116657709Y-102959523D01*
X116705328Y-103054761D01*
X116705328Y-103245238D01*
X116657709Y-103340476D01*
X116610090Y-103388095D01*
X116514852Y-103435714D01*
X160071042Y-104257142D02*
X160118661Y-104209523D01*
X160166280Y-104066666D01*
X160166280Y-103971428D01*
X160118661Y-103828571D01*
X160023423Y-103733333D01*
X159928185Y-103685714D01*
X159737709Y-103638095D01*
X159594852Y-103638095D01*
X159404376Y-103685714D01*
X159309138Y-103733333D01*
X159213900Y-103828571D01*
X159166280Y-103971428D01*
X159166280Y-104066666D01*
X159213900Y-104209523D01*
X159261519Y-104257142D01*
X160166280Y-105209523D02*
X160166280Y-104638095D01*
X160166280Y-104923809D02*
X159166280Y-104923809D01*
X159309138Y-104828571D01*
X159404376Y-104733333D01*
X159451995Y-104638095D01*
X159166280Y-105828571D02*
X159166280Y-105923809D01*
X159213900Y-106019047D01*
X159261519Y-106066666D01*
X159356757Y-106114285D01*
X159547233Y-106161904D01*
X159785328Y-106161904D01*
X159975804Y-106114285D01*
X160071042Y-106066666D01*
X160118661Y-106019047D01*
X160166280Y-105923809D01*
X160166280Y-105828571D01*
X160118661Y-105733333D01*
X160071042Y-105685714D01*
X159975804Y-105638095D01*
X159785328Y-105590476D01*
X159547233Y-105590476D01*
X159356757Y-105638095D01*
X159261519Y-105685714D01*
X159213900Y-105733333D01*
X159166280Y-105828571D01*
X160071042Y-101007142D02*
X160118661Y-100959523D01*
X160166280Y-100816666D01*
X160166280Y-100721428D01*
X160118661Y-100578571D01*
X160023423Y-100483333D01*
X159928185Y-100435714D01*
X159737709Y-100388095D01*
X159594852Y-100388095D01*
X159404376Y-100435714D01*
X159309138Y-100483333D01*
X159213900Y-100578571D01*
X159166280Y-100721428D01*
X159166280Y-100816666D01*
X159213900Y-100959523D01*
X159261519Y-101007142D01*
X160166280Y-101959523D02*
X160166280Y-101388095D01*
X160166280Y-101673809D02*
X159166280Y-101673809D01*
X159309138Y-101578571D01*
X159404376Y-101483333D01*
X159451995Y-101388095D01*
X160166280Y-102911904D02*
X160166280Y-102340476D01*
X160166280Y-102626190D02*
X159166280Y-102626190D01*
X159309138Y-102530952D01*
X159404376Y-102435714D01*
X159451995Y-102340476D01*
X128571042Y-83807142D02*
X128618661Y-83759523D01*
X128666280Y-83616666D01*
X128666280Y-83521428D01*
X128618661Y-83378571D01*
X128523423Y-83283333D01*
X128428185Y-83235714D01*
X128237709Y-83188095D01*
X128094852Y-83188095D01*
X127904376Y-83235714D01*
X127809138Y-83283333D01*
X127713900Y-83378571D01*
X127666280Y-83521428D01*
X127666280Y-83616666D01*
X127713900Y-83759523D01*
X127761519Y-83807142D01*
X128666280Y-84759523D02*
X128666280Y-84188095D01*
X128666280Y-84473809D02*
X127666280Y-84473809D01*
X127809138Y-84378571D01*
X127904376Y-84283333D01*
X127951995Y-84188095D01*
X127761519Y-85140476D02*
X127713900Y-85188095D01*
X127666280Y-85283333D01*
X127666280Y-85521428D01*
X127713900Y-85616666D01*
X127761519Y-85664285D01*
X127856757Y-85711904D01*
X127951995Y-85711904D01*
X128094852Y-85664285D01*
X128666280Y-85092857D01*
X128666280Y-85711904D01*
X131056757Y-84207142D02*
X131104376Y-84254761D01*
X131247233Y-84302380D01*
X131342471Y-84302380D01*
X131485328Y-84254761D01*
X131580566Y-84159523D01*
X131628185Y-84064285D01*
X131675804Y-83873809D01*
X131675804Y-83730952D01*
X131628185Y-83540476D01*
X131580566Y-83445238D01*
X131485328Y-83350000D01*
X131342471Y-83302380D01*
X131247233Y-83302380D01*
X131104376Y-83350000D01*
X131056757Y-83397619D01*
X130104376Y-84302380D02*
X130675804Y-84302380D01*
X130390090Y-84302380D02*
X130390090Y-83302380D01*
X130485328Y-83445238D01*
X130580566Y-83540476D01*
X130675804Y-83588095D01*
X129771042Y-83302380D02*
X129151995Y-83302380D01*
X129485328Y-83683333D01*
X129342471Y-83683333D01*
X129247233Y-83730952D01*
X129199614Y-83778571D01*
X129151995Y-83873809D01*
X129151995Y-84111904D01*
X129199614Y-84207142D01*
X129247233Y-84254761D01*
X129342471Y-84302380D01*
X129628185Y-84302380D01*
X129723423Y-84254761D01*
X129771042Y-84207142D01*
X132856757Y-78507142D02*
X132904376Y-78554761D01*
X133047233Y-78602380D01*
X133142471Y-78602380D01*
X133285328Y-78554761D01*
X133380566Y-78459523D01*
X133428185Y-78364285D01*
X133475804Y-78173809D01*
X133475804Y-78030952D01*
X133428185Y-77840476D01*
X133380566Y-77745238D01*
X133285328Y-77650000D01*
X133142471Y-77602380D01*
X133047233Y-77602380D01*
X132904376Y-77650000D01*
X132856757Y-77697619D01*
X131904376Y-78602380D02*
X132475804Y-78602380D01*
X132190090Y-78602380D02*
X132190090Y-77602380D01*
X132285328Y-77745238D01*
X132380566Y-77840476D01*
X132475804Y-77888095D01*
X131047233Y-77935714D02*
X131047233Y-78602380D01*
X131285328Y-77554761D02*
X131523423Y-78269047D01*
X130904376Y-78269047D01*
X140602542Y-78231642D02*
X140650161Y-78184023D01*
X140697780Y-78041166D01*
X140697780Y-77945928D01*
X140650161Y-77803071D01*
X140554923Y-77707833D01*
X140459685Y-77660214D01*
X140269209Y-77612595D01*
X140126352Y-77612595D01*
X139935876Y-77660214D01*
X139840638Y-77707833D01*
X139745400Y-77803071D01*
X139697780Y-77945928D01*
X139697780Y-78041166D01*
X139745400Y-78184023D01*
X139793019Y-78231642D01*
X140697780Y-79184023D02*
X140697780Y-78612595D01*
X140697780Y-78898309D02*
X139697780Y-78898309D01*
X139840638Y-78803071D01*
X139935876Y-78707833D01*
X139983495Y-78612595D01*
X140126352Y-79755452D02*
X140078733Y-79660214D01*
X140031114Y-79612595D01*
X139935876Y-79564976D01*
X139888257Y-79564976D01*
X139793019Y-79612595D01*
X139745400Y-79660214D01*
X139697780Y-79755452D01*
X139697780Y-79945928D01*
X139745400Y-80041166D01*
X139793019Y-80088785D01*
X139888257Y-80136404D01*
X139935876Y-80136404D01*
X140031114Y-80088785D01*
X140078733Y-80041166D01*
X140126352Y-79945928D01*
X140126352Y-79755452D01*
X140173971Y-79660214D01*
X140221590Y-79612595D01*
X140316828Y-79564976D01*
X140507304Y-79564976D01*
X140602542Y-79612595D01*
X140650161Y-79660214D01*
X140697780Y-79755452D01*
X140697780Y-79945928D01*
X140650161Y-80041166D01*
X140602542Y-80088785D01*
X140507304Y-80136404D01*
X140316828Y-80136404D01*
X140221590Y-80088785D01*
X140173971Y-80041166D01*
X140126352Y-79945928D01*
X169166280Y-111911904D02*
X168166280Y-111911904D01*
X168166280Y-112150000D01*
X168213900Y-112292857D01*
X168309138Y-112388095D01*
X168404376Y-112435714D01*
X168594852Y-112483333D01*
X168737709Y-112483333D01*
X168928185Y-112435714D01*
X169023423Y-112388095D01*
X169118661Y-112292857D01*
X169166280Y-112150000D01*
X169166280Y-111911904D01*
X169166280Y-113435714D02*
X169166280Y-112864285D01*
X169166280Y-113150000D02*
X168166280Y-113150000D01*
X168309138Y-113054761D01*
X168404376Y-112959523D01*
X168451995Y-112864285D01*
X165566280Y-108661904D02*
X164566280Y-108661904D01*
X164566280Y-108900000D01*
X164613900Y-109042857D01*
X164709138Y-109138095D01*
X164804376Y-109185714D01*
X164994852Y-109233333D01*
X165137709Y-109233333D01*
X165328185Y-109185714D01*
X165423423Y-109138095D01*
X165518661Y-109042857D01*
X165566280Y-108900000D01*
X165566280Y-108661904D01*
X164661519Y-109614285D02*
X164613900Y-109661904D01*
X164566280Y-109757142D01*
X164566280Y-109995238D01*
X164613900Y-110090476D01*
X164661519Y-110138095D01*
X164756757Y-110185714D01*
X164851995Y-110185714D01*
X164994852Y-110138095D01*
X165566280Y-109566666D01*
X165566280Y-110185714D01*
X111416280Y-109161904D02*
X110416280Y-109161904D01*
X110416280Y-109400000D01*
X110463900Y-109542857D01*
X110559138Y-109638095D01*
X110654376Y-109685714D01*
X110844852Y-109733333D01*
X110987709Y-109733333D01*
X111178185Y-109685714D01*
X111273423Y-109638095D01*
X111368661Y-109542857D01*
X111416280Y-109400000D01*
X111416280Y-109161904D01*
X110416280Y-110066666D02*
X110416280Y-110685714D01*
X110797233Y-110352380D01*
X110797233Y-110495238D01*
X110844852Y-110590476D01*
X110892471Y-110638095D01*
X110987709Y-110685714D01*
X111225804Y-110685714D01*
X111321042Y-110638095D01*
X111368661Y-110590476D01*
X111416280Y-110495238D01*
X111416280Y-110209523D01*
X111368661Y-110114285D01*
X111321042Y-110066666D01*
X140297233Y-85828571D02*
X140630566Y-85828571D01*
X140630566Y-86352380D02*
X140630566Y-85352380D01*
X140154376Y-85352380D01*
X139440090Y-85828571D02*
X139297233Y-85876190D01*
X139249614Y-85923809D01*
X139201995Y-86019047D01*
X139201995Y-86161904D01*
X139249614Y-86257142D01*
X139297233Y-86304761D01*
X139392471Y-86352380D01*
X139773423Y-86352380D01*
X139773423Y-85352380D01*
X139440090Y-85352380D01*
X139344852Y-85400000D01*
X139297233Y-85447619D01*
X139249614Y-85542857D01*
X139249614Y-85638095D01*
X139297233Y-85733333D01*
X139344852Y-85780952D01*
X139440090Y-85828571D01*
X139773423Y-85828571D01*
X138249614Y-86352380D02*
X138821042Y-86352380D01*
X138535328Y-86352380D02*
X138535328Y-85352380D01*
X138630566Y-85495238D01*
X138725804Y-85590476D01*
X138821042Y-85638095D01*
X137092971Y-77116666D02*
X137092971Y-76783333D01*
X137616780Y-76783333D02*
X136616780Y-76783333D01*
X136616780Y-77259523D01*
X137092971Y-77973809D02*
X137140590Y-78116666D01*
X137188209Y-78164285D01*
X137283447Y-78211904D01*
X137426304Y-78211904D01*
X137521542Y-78164285D01*
X137569161Y-78116666D01*
X137616780Y-78021428D01*
X137616780Y-77640476D01*
X136616780Y-77640476D01*
X136616780Y-77973809D01*
X136664400Y-78069047D01*
X136712019Y-78116666D01*
X136807257Y-78164285D01*
X136902495Y-78164285D01*
X136997733Y-78116666D01*
X137045352Y-78069047D01*
X137092971Y-77973809D01*
X137092971Y-77640476D01*
X136712019Y-78592857D02*
X136664400Y-78640476D01*
X136616780Y-78735714D01*
X136616780Y-78973809D01*
X136664400Y-79069047D01*
X136712019Y-79116666D01*
X136807257Y-79164285D01*
X136902495Y-79164285D01*
X137045352Y-79116666D01*
X137616780Y-78545238D01*
X137616780Y-79164285D01*
X133297333Y-75742880D02*
X133297333Y-76457166D01*
X133344952Y-76600023D01*
X133440190Y-76695261D01*
X133583047Y-76742880D01*
X133678285Y-76742880D01*
X132297333Y-76742880D02*
X132868761Y-76742880D01*
X132583047Y-76742880D02*
X132583047Y-75742880D01*
X132678285Y-75885738D01*
X132773523Y-75980976D01*
X132868761Y-76028595D01*
X152797333Y-74852380D02*
X152797333Y-75566666D01*
X152844952Y-75709523D01*
X152940190Y-75804761D01*
X153083047Y-75852380D01*
X153178285Y-75852380D01*
X152368761Y-74947619D02*
X152321142Y-74900000D01*
X152225904Y-74852380D01*
X151987809Y-74852380D01*
X151892571Y-74900000D01*
X151844952Y-74947619D01*
X151797333Y-75042857D01*
X151797333Y-75138095D01*
X151844952Y-75280952D01*
X152416380Y-75852380D01*
X151797333Y-75852380D01*
X169797233Y-115352380D02*
X169797233Y-116066666D01*
X169844852Y-116209523D01*
X169940090Y-116304761D01*
X170082947Y-116352380D01*
X170178185Y-116352380D01*
X169416280Y-115352380D02*
X168797233Y-115352380D01*
X169130566Y-115733333D01*
X168987709Y-115733333D01*
X168892471Y-115780952D01*
X168844852Y-115828571D01*
X168797233Y-115923809D01*
X168797233Y-116161904D01*
X168844852Y-116257142D01*
X168892471Y-116304761D01*
X168987709Y-116352380D01*
X169273423Y-116352380D01*
X169368661Y-116304761D01*
X169416280Y-116257142D01*
X124309138Y-104947619D02*
X124404376Y-104900000D01*
X124499614Y-104804761D01*
X124642471Y-104661904D01*
X124737709Y-104614285D01*
X124832947Y-104614285D01*
X124785328Y-104852380D02*
X124880566Y-104804761D01*
X124975804Y-104709523D01*
X125023423Y-104519047D01*
X125023423Y-104185714D01*
X124975804Y-103995238D01*
X124880566Y-103900000D01*
X124785328Y-103852380D01*
X124594852Y-103852380D01*
X124499614Y-103900000D01*
X124404376Y-103995238D01*
X124356757Y-104185714D01*
X124356757Y-104519047D01*
X124404376Y-104709523D01*
X124499614Y-104804761D01*
X124594852Y-104852380D01*
X124785328Y-104852380D01*
X123404376Y-104852380D02*
X123975804Y-104852380D01*
X123690090Y-104852380D02*
X123690090Y-103852380D01*
X123785328Y-103995238D01*
X123880566Y-104090476D01*
X123975804Y-104138095D01*
X121346280Y-103483333D02*
X120870090Y-103150000D01*
X121346280Y-102911904D02*
X120346280Y-102911904D01*
X120346280Y-103292857D01*
X120393900Y-103388095D01*
X120441519Y-103435714D01*
X120536757Y-103483333D01*
X120679614Y-103483333D01*
X120774852Y-103435714D01*
X120822471Y-103388095D01*
X120870090Y-103292857D01*
X120870090Y-102911904D01*
X121346280Y-104435714D02*
X121346280Y-103864285D01*
X121346280Y-104150000D02*
X120346280Y-104150000D01*
X120489138Y-104054761D01*
X120584376Y-103959523D01*
X120631995Y-103864285D01*
X160416280Y-112733333D02*
X159940090Y-112400000D01*
X160416280Y-112161904D02*
X159416280Y-112161904D01*
X159416280Y-112542857D01*
X159463900Y-112638095D01*
X159511519Y-112685714D01*
X159606757Y-112733333D01*
X159749614Y-112733333D01*
X159844852Y-112685714D01*
X159892471Y-112638095D01*
X159940090Y-112542857D01*
X159940090Y-112161904D01*
X159511519Y-113114285D02*
X159463900Y-113161904D01*
X159416280Y-113257142D01*
X159416280Y-113495238D01*
X159463900Y-113590476D01*
X159511519Y-113638095D01*
X159606757Y-113685714D01*
X159701995Y-113685714D01*
X159844852Y-113638095D01*
X160416280Y-113066666D01*
X160416280Y-113685714D01*
X165096280Y-112983333D02*
X164620090Y-112650000D01*
X165096280Y-112411904D02*
X164096280Y-112411904D01*
X164096280Y-112792857D01*
X164143900Y-112888095D01*
X164191519Y-112935714D01*
X164286757Y-112983333D01*
X164429614Y-112983333D01*
X164524852Y-112935714D01*
X164572471Y-112888095D01*
X164620090Y-112792857D01*
X164620090Y-112411904D01*
X164096280Y-113316666D02*
X164096280Y-113935714D01*
X164477233Y-113602380D01*
X164477233Y-113745238D01*
X164524852Y-113840476D01*
X164572471Y-113888095D01*
X164667709Y-113935714D01*
X164905804Y-113935714D01*
X165001042Y-113888095D01*
X165048661Y-113840476D01*
X165096280Y-113745238D01*
X165096280Y-113459523D01*
X165048661Y-113364285D01*
X165001042Y-113316666D01*
X158416280Y-109233333D02*
X157940090Y-108900000D01*
X158416280Y-108661904D02*
X157416280Y-108661904D01*
X157416280Y-109042857D01*
X157463900Y-109138095D01*
X157511519Y-109185714D01*
X157606757Y-109233333D01*
X157749614Y-109233333D01*
X157844852Y-109185714D01*
X157892471Y-109138095D01*
X157940090Y-109042857D01*
X157940090Y-108661904D01*
X157749614Y-110090476D02*
X158416280Y-110090476D01*
X157368661Y-109852380D02*
X158082947Y-109614285D01*
X158082947Y-110233333D01*
X126380566Y-84402380D02*
X126713900Y-83926190D01*
X126951995Y-84402380D02*
X126951995Y-83402380D01*
X126571042Y-83402380D01*
X126475804Y-83450000D01*
X126428185Y-83497619D01*
X126380566Y-83592857D01*
X126380566Y-83735714D01*
X126428185Y-83830952D01*
X126475804Y-83878571D01*
X126571042Y-83926190D01*
X126951995Y-83926190D01*
X125809138Y-83830952D02*
X125904376Y-83783333D01*
X125951995Y-83735714D01*
X125999614Y-83640476D01*
X125999614Y-83592857D01*
X125951995Y-83497619D01*
X125904376Y-83450000D01*
X125809138Y-83402380D01*
X125618661Y-83402380D01*
X125523423Y-83450000D01*
X125475804Y-83497619D01*
X125428185Y-83592857D01*
X125428185Y-83640476D01*
X125475804Y-83735714D01*
X125523423Y-83783333D01*
X125618661Y-83830952D01*
X125809138Y-83830952D01*
X125904376Y-83878571D01*
X125951995Y-83926190D01*
X125999614Y-84021428D01*
X125999614Y-84211904D01*
X125951995Y-84307142D01*
X125904376Y-84354761D01*
X125809138Y-84402380D01*
X125618661Y-84402380D01*
X125523423Y-84354761D01*
X125475804Y-84307142D01*
X125428185Y-84211904D01*
X125428185Y-84021428D01*
X125475804Y-83926190D01*
X125523423Y-83878571D01*
X125618661Y-83830952D01*
X128664566Y-81041380D02*
X128997900Y-80565190D01*
X129235995Y-81041380D02*
X129235995Y-80041380D01*
X128855042Y-80041380D01*
X128759804Y-80089000D01*
X128712185Y-80136619D01*
X128664566Y-80231857D01*
X128664566Y-80374714D01*
X128712185Y-80469952D01*
X128759804Y-80517571D01*
X128855042Y-80565190D01*
X129235995Y-80565190D01*
X128188376Y-81041380D02*
X127997900Y-81041380D01*
X127902661Y-80993761D01*
X127855042Y-80946142D01*
X127759804Y-80803285D01*
X127712185Y-80612809D01*
X127712185Y-80231857D01*
X127759804Y-80136619D01*
X127807423Y-80089000D01*
X127902661Y-80041380D01*
X128093138Y-80041380D01*
X128188376Y-80089000D01*
X128235995Y-80136619D01*
X128283614Y-80231857D01*
X128283614Y-80469952D01*
X128235995Y-80565190D01*
X128188376Y-80612809D01*
X128093138Y-80660428D01*
X127902661Y-80660428D01*
X127807423Y-80612809D01*
X127759804Y-80565190D01*
X127712185Y-80469952D01*
X128696257Y-79771380D02*
X129029590Y-79295190D01*
X129267685Y-79771380D02*
X129267685Y-78771380D01*
X128886733Y-78771380D01*
X128791495Y-78819000D01*
X128743876Y-78866619D01*
X128696257Y-78961857D01*
X128696257Y-79104714D01*
X128743876Y-79199952D01*
X128791495Y-79247571D01*
X128886733Y-79295190D01*
X129267685Y-79295190D01*
X127743876Y-79771380D02*
X128315304Y-79771380D01*
X128029590Y-79771380D02*
X128029590Y-78771380D01*
X128124828Y-78914238D01*
X128220066Y-79009476D01*
X128315304Y-79057095D01*
X127124828Y-78771380D02*
X127029590Y-78771380D01*
X126934352Y-78819000D01*
X126886733Y-78866619D01*
X126839114Y-78961857D01*
X126791495Y-79152333D01*
X126791495Y-79390428D01*
X126839114Y-79580904D01*
X126886733Y-79676142D01*
X126934352Y-79723761D01*
X127029590Y-79771380D01*
X127124828Y-79771380D01*
X127220066Y-79723761D01*
X127267685Y-79676142D01*
X127315304Y-79580904D01*
X127362923Y-79390428D01*
X127362923Y-79152333D01*
X127315304Y-78961857D01*
X127267685Y-78866619D01*
X127220066Y-78819000D01*
X127124828Y-78771380D01*
X120975804Y-98952380D02*
X120975804Y-99761904D01*
X120928185Y-99857142D01*
X120880566Y-99904761D01*
X120785328Y-99952380D01*
X120594852Y-99952380D01*
X120499614Y-99904761D01*
X120451995Y-99857142D01*
X120404376Y-99761904D01*
X120404376Y-98952380D01*
X119404376Y-99952380D02*
X119975804Y-99952380D01*
X119690090Y-99952380D02*
X119690090Y-98952380D01*
X119785328Y-99095238D01*
X119880566Y-99190476D01*
X119975804Y-99238095D01*
X166725804Y-107102380D02*
X166725804Y-107911904D01*
X166678185Y-108007142D01*
X166630566Y-108054761D01*
X166535328Y-108102380D01*
X166344852Y-108102380D01*
X166249614Y-108054761D01*
X166201995Y-108007142D01*
X166154376Y-107911904D01*
X166154376Y-107102380D01*
X165725804Y-107197619D02*
X165678185Y-107150000D01*
X165582947Y-107102380D01*
X165344852Y-107102380D01*
X165249614Y-107150000D01*
X165201995Y-107197619D01*
X165154376Y-107292857D01*
X165154376Y-107388095D01*
X165201995Y-107530952D01*
X165773423Y-108102380D01*
X165154376Y-108102380D01*
X111465090Y-92983809D02*
X111941280Y-92983809D01*
X110941280Y-92650476D02*
X111465090Y-92983809D01*
X110941280Y-93317142D01*
X111941280Y-94174285D02*
X111941280Y-93602857D01*
X111941280Y-93888571D02*
X110941280Y-93888571D01*
X111084138Y-93793333D01*
X111179376Y-93698095D01*
X111226995Y-93602857D01*
X113440090Y-103376190D02*
X113440090Y-103852380D01*
X113773423Y-102852380D02*
X113440090Y-103376190D01*
X113106757Y-102852380D01*
X112821042Y-102947619D02*
X112773423Y-102900000D01*
X112678185Y-102852380D01*
X112440090Y-102852380D01*
X112344852Y-102900000D01*
X112297233Y-102947619D01*
X112249614Y-103042857D01*
X112249614Y-103138095D01*
X112297233Y-103280952D01*
X112868661Y-103852380D01*
X112249614Y-103852380D01*
X151971042Y-85007142D02*
X152018661Y-84959523D01*
X152066280Y-84816666D01*
X152066280Y-84721428D01*
X152018661Y-84578571D01*
X151923423Y-84483333D01*
X151828185Y-84435714D01*
X151637709Y-84388095D01*
X151494852Y-84388095D01*
X151304376Y-84435714D01*
X151209138Y-84483333D01*
X151113900Y-84578571D01*
X151066280Y-84721428D01*
X151066280Y-84816666D01*
X151113900Y-84959523D01*
X151161519Y-85007142D01*
X151161519Y-85388095D02*
X151113900Y-85435714D01*
X151066280Y-85530952D01*
X151066280Y-85769047D01*
X151113900Y-85864285D01*
X151161519Y-85911904D01*
X151256757Y-85959523D01*
X151351995Y-85959523D01*
X151494852Y-85911904D01*
X152066280Y-85340476D01*
X152066280Y-85959523D01*
X151066280Y-86578571D02*
X151066280Y-86673809D01*
X151113900Y-86769047D01*
X151161519Y-86816666D01*
X151256757Y-86864285D01*
X151447233Y-86911904D01*
X151685328Y-86911904D01*
X151875804Y-86864285D01*
X151971042Y-86816666D01*
X152018661Y-86769047D01*
X152066280Y-86673809D01*
X152066280Y-86578571D01*
X152018661Y-86483333D01*
X151971042Y-86435714D01*
X151875804Y-86388095D01*
X151685328Y-86340476D01*
X151447233Y-86340476D01*
X151256757Y-86388095D01*
X151161519Y-86435714D01*
X151113900Y-86483333D01*
X151066280Y-86578571D01*
X145721042Y-83257142D02*
X145768661Y-83209523D01*
X145816280Y-83066666D01*
X145816280Y-82971428D01*
X145768661Y-82828571D01*
X145673423Y-82733333D01*
X145578185Y-82685714D01*
X145387709Y-82638095D01*
X145244852Y-82638095D01*
X145054376Y-82685714D01*
X144959138Y-82733333D01*
X144863900Y-82828571D01*
X144816280Y-82971428D01*
X144816280Y-83066666D01*
X144863900Y-83209523D01*
X144911519Y-83257142D01*
X144911519Y-83638095D02*
X144863900Y-83685714D01*
X144816280Y-83780952D01*
X144816280Y-84019047D01*
X144863900Y-84114285D01*
X144911519Y-84161904D01*
X145006757Y-84209523D01*
X145101995Y-84209523D01*
X145244852Y-84161904D01*
X145816280Y-83590476D01*
X145816280Y-84209523D01*
X145816280Y-85161904D02*
X145816280Y-84590476D01*
X145816280Y-84876190D02*
X144816280Y-84876190D01*
X144959138Y-84780952D01*
X145054376Y-84685714D01*
X145101995Y-84590476D01*
D16*
X152750392Y-76917071D02*
X153152559Y-76917071D01*
X153152559Y-77549047D02*
X153152559Y-76342547D01*
X152578035Y-76342547D01*
X151543892Y-77549047D02*
X152118416Y-77549047D01*
X152118416Y-76342547D01*
X150509749Y-77549047D02*
X151199178Y-77549047D01*
X150854463Y-77549047D02*
X150854463Y-76342547D01*
X150969368Y-76514904D01*
X151084273Y-76629809D01*
X151199178Y-76687261D01*
M02*
