%TF.GenerationSoftware,KiCad,Pcbnew,(5.1.4)-1*%
%TF.CreationDate,2020-03-29T09:51:50+13:00*%
%TF.ProjectId,clock,636c6f63-6b2e-46b6-9963-61645f706362,rev?*%
%TF.SameCoordinates,Original*%
%TF.FileFunction,Soldermask,Top*%
%TF.FilePolarity,Negative*%
%FSLAX46Y46*%
G04 Gerber Fmt 4.6, Leading zero omitted, Abs format (unit mm)*
G04 Created by KiCad (PCBNEW (5.1.4)-1) date 2020-03-29 09:51:50*
%MOMM*%
%LPD*%
G04 APERTURE LIST*
%ADD10C,0.050000*%
%ADD11C,0.100000*%
G04 APERTURE END LIST*
D10*
X103213900Y-66150000D02*
G75*
G02X103713900Y-65650000I500000J0D01*
G01*
X93713900Y-76150000D02*
G75*
G03X93213900Y-76650000I0J-500000D01*
G01*
X93713900Y-111150000D02*
G75*
G02X93213900Y-110650000I0J500000D01*
G01*
X103713900Y-120650000D02*
G75*
G02X103213900Y-120150000I0J500000D01*
G01*
X181213900Y-120150000D02*
G75*
G02X180713900Y-120650000I-500000J0D01*
G01*
X191213900Y-110650000D02*
G75*
G02X190713900Y-111150000I-500000J0D01*
G01*
X191213900Y-76650000D02*
G75*
G03X190713900Y-76150000I-500000J0D01*
G01*
X180713900Y-65650000D02*
G75*
G02X181213900Y-66150000I0J-500000D01*
G01*
X93713900Y-111150000D02*
X99213900Y-111150000D01*
X103213900Y-120150000D02*
X103213900Y-115150000D01*
X181213900Y-71150000D02*
G75*
G03X186213900Y-76150000I5000000J0D01*
G01*
X181213900Y-116150000D02*
G75*
G02X186213900Y-111150000I5000000J0D01*
G01*
X103213900Y-115150000D02*
G75*
G03X99213900Y-111150000I-4000000J0D01*
G01*
X103213900Y-72150000D02*
G75*
G02X99213900Y-76150000I-4000000J0D01*
G01*
X181213900Y-66150000D02*
X181213900Y-71150000D01*
X103713900Y-65650000D02*
X180713900Y-65650000D01*
X103213900Y-72150000D02*
X103213900Y-66150000D01*
X181213900Y-120150000D02*
X181213900Y-116150000D01*
X103713900Y-120650000D02*
X180713900Y-120650000D01*
X190713900Y-111150000D02*
X186213900Y-111150000D01*
X191213900Y-76650000D02*
X191213900Y-110650000D01*
X186213900Y-76150000D02*
X190713900Y-76150000D01*
X93213900Y-76650000D02*
X93213900Y-110650000D01*
X99213900Y-76150000D02*
X93713900Y-76150000D01*
D11*
G36*
X122454464Y-116805889D02*
G01*
X122645733Y-116885115D01*
X122645735Y-116885116D01*
X122817873Y-117000135D01*
X122964265Y-117146527D01*
X123079285Y-117318667D01*
X123158511Y-117509936D01*
X123198900Y-117712984D01*
X123198900Y-117920016D01*
X123158511Y-118123064D01*
X123079285Y-118314333D01*
X123079284Y-118314335D01*
X122964265Y-118486473D01*
X122817873Y-118632865D01*
X122645735Y-118747884D01*
X122645734Y-118747885D01*
X122645733Y-118747885D01*
X122454464Y-118827111D01*
X122251416Y-118867500D01*
X122044384Y-118867500D01*
X121841336Y-118827111D01*
X121650067Y-118747885D01*
X121650066Y-118747885D01*
X121650065Y-118747884D01*
X121477927Y-118632865D01*
X121331535Y-118486473D01*
X121216516Y-118314335D01*
X121216515Y-118314333D01*
X121137289Y-118123064D01*
X121096900Y-117920016D01*
X121096900Y-117712984D01*
X121137289Y-117509936D01*
X121216515Y-117318667D01*
X121331535Y-117146527D01*
X121477927Y-117000135D01*
X121650065Y-116885116D01*
X121650067Y-116885115D01*
X121841336Y-116805889D01*
X122044384Y-116765500D01*
X122251416Y-116765500D01*
X122454464Y-116805889D01*
X122454464Y-116805889D01*
G37*
G36*
X178855907Y-110533582D02*
G01*
X179079023Y-110626000D01*
X179256465Y-110699499D01*
X179616956Y-110940371D01*
X179923529Y-111246944D01*
X180164401Y-111607435D01*
X180164402Y-111607437D01*
X180330318Y-112007993D01*
X180414900Y-112433219D01*
X180414900Y-112866781D01*
X180330318Y-113292007D01*
X180193189Y-113623064D01*
X180164401Y-113692565D01*
X179923529Y-114053056D01*
X179616956Y-114359629D01*
X179256465Y-114600501D01*
X179256464Y-114600502D01*
X179256463Y-114600502D01*
X178855907Y-114766418D01*
X178430681Y-114851000D01*
X177997119Y-114851000D01*
X177571893Y-114766418D01*
X177171337Y-114600502D01*
X177171336Y-114600502D01*
X177171335Y-114600501D01*
X176810844Y-114359629D01*
X176504271Y-114053056D01*
X176263399Y-113692565D01*
X176234611Y-113623064D01*
X176097482Y-113292007D01*
X176012900Y-112866781D01*
X176012900Y-112433219D01*
X176097482Y-112007993D01*
X176263398Y-111607437D01*
X176263399Y-111607435D01*
X176504271Y-111246944D01*
X176810844Y-110940371D01*
X177171335Y-110699499D01*
X177348777Y-110626000D01*
X177571893Y-110533582D01*
X177997119Y-110449000D01*
X178430681Y-110449000D01*
X178855907Y-110533582D01*
X178855907Y-110533582D01*
G37*
G36*
X106855907Y-110533582D02*
G01*
X107079023Y-110626000D01*
X107256465Y-110699499D01*
X107616956Y-110940371D01*
X107923529Y-111246944D01*
X108164401Y-111607435D01*
X108164402Y-111607437D01*
X108330318Y-112007993D01*
X108414900Y-112433219D01*
X108414900Y-112866781D01*
X108330318Y-113292007D01*
X108193189Y-113623064D01*
X108164401Y-113692565D01*
X107923529Y-114053056D01*
X107616956Y-114359629D01*
X107256465Y-114600501D01*
X107256464Y-114600502D01*
X107256463Y-114600502D01*
X106855907Y-114766418D01*
X106430681Y-114851000D01*
X105997119Y-114851000D01*
X105571893Y-114766418D01*
X105171337Y-114600502D01*
X105171336Y-114600502D01*
X105171335Y-114600501D01*
X104810844Y-114359629D01*
X104504271Y-114053056D01*
X104263399Y-113692565D01*
X104234611Y-113623064D01*
X104097482Y-113292007D01*
X104012900Y-112866781D01*
X104012900Y-112433219D01*
X104097482Y-112007993D01*
X104263398Y-111607437D01*
X104263399Y-111607435D01*
X104504271Y-111246944D01*
X104810844Y-110940371D01*
X105171335Y-110699499D01*
X105348777Y-110626000D01*
X105571893Y-110533582D01*
X105997119Y-110449000D01*
X106430681Y-110449000D01*
X106855907Y-110533582D01*
X106855907Y-110533582D01*
G37*
G36*
X122454464Y-112305889D02*
G01*
X122645733Y-112385115D01*
X122645735Y-112385116D01*
X122817873Y-112500135D01*
X122964265Y-112646527D01*
X123079285Y-112818667D01*
X123158511Y-113009936D01*
X123198900Y-113212984D01*
X123198900Y-113420016D01*
X123158511Y-113623064D01*
X123079285Y-113814333D01*
X123079284Y-113814335D01*
X122964265Y-113986473D01*
X122817873Y-114132865D01*
X122645735Y-114247884D01*
X122645734Y-114247885D01*
X122645733Y-114247885D01*
X122454464Y-114327111D01*
X122251416Y-114367500D01*
X122044384Y-114367500D01*
X121841336Y-114327111D01*
X121650067Y-114247885D01*
X121650066Y-114247885D01*
X121650065Y-114247884D01*
X121477927Y-114132865D01*
X121331535Y-113986473D01*
X121216516Y-113814335D01*
X121216515Y-113814333D01*
X121137289Y-113623064D01*
X121096900Y-113420016D01*
X121096900Y-113212984D01*
X121137289Y-113009936D01*
X121216515Y-112818667D01*
X121331535Y-112646527D01*
X121477927Y-112500135D01*
X121650065Y-112385116D01*
X121650067Y-112385115D01*
X121841336Y-112305889D01*
X122044384Y-112265500D01*
X122251416Y-112265500D01*
X122454464Y-112305889D01*
X122454464Y-112305889D01*
G37*
G36*
X166893491Y-109653085D02*
G01*
X166927469Y-109663393D01*
X166958790Y-109680134D01*
X166986239Y-109702661D01*
X167008766Y-109730110D01*
X167025507Y-109761431D01*
X167035815Y-109795409D01*
X167039900Y-109836890D01*
X167039900Y-110438110D01*
X167035815Y-110479591D01*
X167025507Y-110513569D01*
X167008766Y-110544890D01*
X166986239Y-110572339D01*
X166958790Y-110594866D01*
X166927469Y-110611607D01*
X166893491Y-110621915D01*
X166852010Y-110626000D01*
X166175790Y-110626000D01*
X166134309Y-110621915D01*
X166100331Y-110611607D01*
X166069010Y-110594866D01*
X166041561Y-110572339D01*
X166019034Y-110544890D01*
X166002293Y-110513569D01*
X165991985Y-110479591D01*
X165987900Y-110438110D01*
X165987900Y-109836890D01*
X165991985Y-109795409D01*
X166002293Y-109761431D01*
X166019034Y-109730110D01*
X166041561Y-109702661D01*
X166069010Y-109680134D01*
X166100331Y-109663393D01*
X166134309Y-109653085D01*
X166175790Y-109649000D01*
X166852010Y-109649000D01*
X166893491Y-109653085D01*
X166893491Y-109653085D01*
G37*
G36*
X173914900Y-109350696D02*
G01*
X172512900Y-109350696D01*
X172512900Y-107698696D01*
X173914900Y-107698696D01*
X173914900Y-109350696D01*
X173914900Y-109350696D01*
G37*
G36*
X169414900Y-109350696D02*
G01*
X168012900Y-109350696D01*
X168012900Y-107698696D01*
X169414900Y-107698696D01*
X169414900Y-109350696D01*
X169414900Y-109350696D01*
G37*
G36*
X166893491Y-108078085D02*
G01*
X166927469Y-108088393D01*
X166958790Y-108105134D01*
X166986239Y-108127661D01*
X167008766Y-108155110D01*
X167025507Y-108186431D01*
X167035815Y-108220409D01*
X167039900Y-108261890D01*
X167039900Y-108863110D01*
X167035815Y-108904591D01*
X167025507Y-108938569D01*
X167008766Y-108969890D01*
X166986239Y-108997339D01*
X166958790Y-109019866D01*
X166927469Y-109036607D01*
X166893491Y-109046915D01*
X166852010Y-109051000D01*
X166175790Y-109051000D01*
X166134309Y-109046915D01*
X166100331Y-109036607D01*
X166069010Y-109019866D01*
X166041561Y-108997339D01*
X166019034Y-108969890D01*
X166002293Y-108938569D01*
X165991985Y-108904591D01*
X165987900Y-108863110D01*
X165987900Y-108261890D01*
X165991985Y-108220409D01*
X166002293Y-108186431D01*
X166019034Y-108155110D01*
X166041561Y-108127661D01*
X166069010Y-108105134D01*
X166100331Y-108088393D01*
X166134309Y-108078085D01*
X166175790Y-108074000D01*
X166852010Y-108074000D01*
X166893491Y-108078085D01*
X166893491Y-108078085D01*
G37*
G36*
X173914900Y-101400696D02*
G01*
X172512900Y-101400696D01*
X172512900Y-99748696D01*
X173914900Y-99748696D01*
X173914900Y-101400696D01*
X173914900Y-101400696D01*
G37*
G36*
X169414900Y-101400696D02*
G01*
X168012900Y-101400696D01*
X168012900Y-99748696D01*
X169414900Y-99748696D01*
X169414900Y-101400696D01*
X169414900Y-101400696D01*
G37*
G36*
X166893491Y-98653085D02*
G01*
X166927469Y-98663393D01*
X166958790Y-98680134D01*
X166986239Y-98702661D01*
X167008766Y-98730110D01*
X167025507Y-98761431D01*
X167035815Y-98795409D01*
X167039900Y-98836890D01*
X167039900Y-99438110D01*
X167035815Y-99479591D01*
X167025507Y-99513569D01*
X167008766Y-99544890D01*
X166986239Y-99572339D01*
X166958790Y-99594866D01*
X166927469Y-99611607D01*
X166893491Y-99621915D01*
X166852010Y-99626000D01*
X166175790Y-99626000D01*
X166134309Y-99621915D01*
X166100331Y-99611607D01*
X166069010Y-99594866D01*
X166041561Y-99572339D01*
X166019034Y-99544890D01*
X166002293Y-99513569D01*
X165991985Y-99479591D01*
X165987900Y-99438110D01*
X165987900Y-98836890D01*
X165991985Y-98795409D01*
X166002293Y-98761431D01*
X166019034Y-98730110D01*
X166041561Y-98702661D01*
X166069010Y-98680134D01*
X166100331Y-98663393D01*
X166134309Y-98653085D01*
X166175790Y-98649000D01*
X166852010Y-98649000D01*
X166893491Y-98653085D01*
X166893491Y-98653085D01*
G37*
G36*
X145564900Y-99101000D02*
G01*
X140462900Y-99101000D01*
X140462900Y-98599000D01*
X145564900Y-98599000D01*
X145564900Y-99101000D01*
X145564900Y-99101000D01*
G37*
G36*
X173914900Y-98350696D02*
G01*
X172512900Y-98350696D01*
X172512900Y-96698696D01*
X173914900Y-96698696D01*
X173914900Y-98350696D01*
X173914900Y-98350696D01*
G37*
G36*
X169414900Y-98350696D02*
G01*
X168012900Y-98350696D01*
X168012900Y-96698696D01*
X169414900Y-96698696D01*
X169414900Y-98350696D01*
X169414900Y-98350696D01*
G37*
G36*
X145564900Y-98301000D02*
G01*
X140462900Y-98301000D01*
X140462900Y-97799000D01*
X145564900Y-97799000D01*
X145564900Y-98301000D01*
X145564900Y-98301000D01*
G37*
G36*
X166893491Y-97078085D02*
G01*
X166927469Y-97088393D01*
X166958790Y-97105134D01*
X166986239Y-97127661D01*
X167008766Y-97155110D01*
X167025507Y-97186431D01*
X167035815Y-97220409D01*
X167039900Y-97261890D01*
X167039900Y-97863110D01*
X167035815Y-97904591D01*
X167025507Y-97938569D01*
X167008766Y-97969890D01*
X166986239Y-97997339D01*
X166958790Y-98019866D01*
X166927469Y-98036607D01*
X166893491Y-98046915D01*
X166852010Y-98051000D01*
X166175790Y-98051000D01*
X166134309Y-98046915D01*
X166100331Y-98036607D01*
X166069010Y-98019866D01*
X166041561Y-97997339D01*
X166019034Y-97969890D01*
X166002293Y-97938569D01*
X165991985Y-97904591D01*
X165987900Y-97863110D01*
X165987900Y-97261890D01*
X165991985Y-97220409D01*
X166002293Y-97186431D01*
X166019034Y-97155110D01*
X166041561Y-97127661D01*
X166069010Y-97105134D01*
X166100331Y-97088393D01*
X166134309Y-97078085D01*
X166175790Y-97074000D01*
X166852010Y-97074000D01*
X166893491Y-97078085D01*
X166893491Y-97078085D01*
G37*
G36*
X145564900Y-97501000D02*
G01*
X140462900Y-97501000D01*
X140462900Y-96999000D01*
X145564900Y-96999000D01*
X145564900Y-97501000D01*
X145564900Y-97501000D01*
G37*
G36*
X155705838Y-96281716D02*
G01*
X155726457Y-96287971D01*
X155745453Y-96298124D01*
X155762108Y-96311792D01*
X155775776Y-96328447D01*
X155785929Y-96347443D01*
X155792184Y-96368062D01*
X155794900Y-96395640D01*
X155794900Y-96904360D01*
X155792184Y-96931938D01*
X155785929Y-96952557D01*
X155775776Y-96971553D01*
X155762108Y-96988208D01*
X155745453Y-97001876D01*
X155726457Y-97012029D01*
X155705838Y-97018284D01*
X155678260Y-97021000D01*
X155219540Y-97021000D01*
X155191962Y-97018284D01*
X155171343Y-97012029D01*
X155152347Y-97001876D01*
X155135692Y-96988208D01*
X155122024Y-96971553D01*
X155111871Y-96952557D01*
X155105616Y-96931938D01*
X155102900Y-96904360D01*
X155102900Y-96395640D01*
X155105616Y-96368062D01*
X155111871Y-96347443D01*
X155122024Y-96328447D01*
X155135692Y-96311792D01*
X155152347Y-96298124D01*
X155171343Y-96287971D01*
X155191962Y-96281716D01*
X155219540Y-96279000D01*
X155678260Y-96279000D01*
X155705838Y-96281716D01*
X155705838Y-96281716D01*
G37*
G36*
X154735838Y-96281716D02*
G01*
X154756457Y-96287971D01*
X154775453Y-96298124D01*
X154792108Y-96311792D01*
X154805776Y-96328447D01*
X154815929Y-96347443D01*
X154822184Y-96368062D01*
X154824900Y-96395640D01*
X154824900Y-96904360D01*
X154822184Y-96931938D01*
X154815929Y-96952557D01*
X154805776Y-96971553D01*
X154792108Y-96988208D01*
X154775453Y-97001876D01*
X154756457Y-97012029D01*
X154735838Y-97018284D01*
X154708260Y-97021000D01*
X154249540Y-97021000D01*
X154221962Y-97018284D01*
X154201343Y-97012029D01*
X154182347Y-97001876D01*
X154165692Y-96988208D01*
X154152024Y-96971553D01*
X154141871Y-96952557D01*
X154135616Y-96931938D01*
X154132900Y-96904360D01*
X154132900Y-96395640D01*
X154135616Y-96368062D01*
X154141871Y-96347443D01*
X154152024Y-96328447D01*
X154165692Y-96311792D01*
X154182347Y-96298124D01*
X154201343Y-96287971D01*
X154221962Y-96281716D01*
X154249540Y-96279000D01*
X154708260Y-96279000D01*
X154735838Y-96281716D01*
X154735838Y-96281716D01*
G37*
G36*
X108197542Y-95129781D02*
G01*
X108343314Y-95190162D01*
X108343316Y-95190163D01*
X108474508Y-95277822D01*
X108586078Y-95389392D01*
X108673737Y-95520584D01*
X108673738Y-95520586D01*
X108734119Y-95666358D01*
X108764900Y-95821107D01*
X108764900Y-95978893D01*
X108734119Y-96133642D01*
X108673909Y-96279000D01*
X108673737Y-96279416D01*
X108586078Y-96410608D01*
X108474508Y-96522178D01*
X108343316Y-96609837D01*
X108343315Y-96609838D01*
X108343314Y-96609838D01*
X108197542Y-96670219D01*
X108042793Y-96701000D01*
X107885007Y-96701000D01*
X107730258Y-96670219D01*
X107584486Y-96609838D01*
X107584485Y-96609838D01*
X107584484Y-96609837D01*
X107453292Y-96522178D01*
X107341722Y-96410608D01*
X107254063Y-96279416D01*
X107253891Y-96279000D01*
X107193681Y-96133642D01*
X107162900Y-95978893D01*
X107162900Y-95821107D01*
X107193681Y-95666358D01*
X107254062Y-95520586D01*
X107254063Y-95520584D01*
X107341722Y-95389392D01*
X107453292Y-95277822D01*
X107584484Y-95190163D01*
X107584486Y-95190162D01*
X107730258Y-95129781D01*
X107885007Y-95099000D01*
X108042793Y-95099000D01*
X108197542Y-95129781D01*
X108197542Y-95129781D01*
G37*
G36*
X145564900Y-96701000D02*
G01*
X140462900Y-96701000D01*
X140462900Y-96199000D01*
X145564900Y-96199000D01*
X145564900Y-96701000D01*
X145564900Y-96701000D01*
G37*
G36*
X155705838Y-95281716D02*
G01*
X155726457Y-95287971D01*
X155745453Y-95298124D01*
X155762108Y-95311792D01*
X155775776Y-95328447D01*
X155785929Y-95347443D01*
X155792184Y-95368062D01*
X155794900Y-95395640D01*
X155794900Y-95904360D01*
X155792184Y-95931938D01*
X155785929Y-95952557D01*
X155775776Y-95971553D01*
X155762108Y-95988208D01*
X155745453Y-96001876D01*
X155726457Y-96012029D01*
X155705838Y-96018284D01*
X155678260Y-96021000D01*
X155219540Y-96021000D01*
X155191962Y-96018284D01*
X155171343Y-96012029D01*
X155152347Y-96001876D01*
X155135692Y-95988208D01*
X155122024Y-95971553D01*
X155111871Y-95952557D01*
X155105616Y-95931938D01*
X155102900Y-95904360D01*
X155102900Y-95395640D01*
X155105616Y-95368062D01*
X155111871Y-95347443D01*
X155122024Y-95328447D01*
X155135692Y-95311792D01*
X155152347Y-95298124D01*
X155171343Y-95287971D01*
X155191962Y-95281716D01*
X155219540Y-95279000D01*
X155678260Y-95279000D01*
X155705838Y-95281716D01*
X155705838Y-95281716D01*
G37*
G36*
X154735838Y-95281716D02*
G01*
X154756457Y-95287971D01*
X154775453Y-95298124D01*
X154792108Y-95311792D01*
X154805776Y-95328447D01*
X154815929Y-95347443D01*
X154822184Y-95368062D01*
X154824900Y-95395640D01*
X154824900Y-95904360D01*
X154822184Y-95931938D01*
X154815929Y-95952557D01*
X154805776Y-95971553D01*
X154792108Y-95988208D01*
X154775453Y-96001876D01*
X154756457Y-96012029D01*
X154735838Y-96018284D01*
X154708260Y-96021000D01*
X154249540Y-96021000D01*
X154221962Y-96018284D01*
X154201343Y-96012029D01*
X154182347Y-96001876D01*
X154165692Y-95988208D01*
X154152024Y-95971553D01*
X154141871Y-95952557D01*
X154135616Y-95931938D01*
X154132900Y-95904360D01*
X154132900Y-95395640D01*
X154135616Y-95368062D01*
X154141871Y-95347443D01*
X154152024Y-95328447D01*
X154165692Y-95311792D01*
X154182347Y-95298124D01*
X154201343Y-95287971D01*
X154221962Y-95281716D01*
X154249540Y-95279000D01*
X154708260Y-95279000D01*
X154735838Y-95281716D01*
X154735838Y-95281716D01*
G37*
G36*
X145564900Y-95901000D02*
G01*
X140462900Y-95901000D01*
X140462900Y-95399000D01*
X145564900Y-95399000D01*
X145564900Y-95901000D01*
X145564900Y-95901000D01*
G37*
G36*
X145564900Y-95101000D02*
G01*
X140462900Y-95101000D01*
X140462900Y-94599000D01*
X145564900Y-94599000D01*
X145564900Y-95101000D01*
X145564900Y-95101000D01*
G37*
G36*
X145564900Y-94301000D02*
G01*
X140462900Y-94301000D01*
X140462900Y-93799000D01*
X145564900Y-93799000D01*
X145564900Y-94301000D01*
X145564900Y-94301000D01*
G37*
G36*
X145564900Y-93501000D02*
G01*
X140462900Y-93501000D01*
X140462900Y-92999000D01*
X145564900Y-92999000D01*
X145564900Y-93501000D01*
X145564900Y-93501000D01*
G37*
G36*
X145564900Y-92701000D02*
G01*
X140462900Y-92701000D01*
X140462900Y-92199000D01*
X145564900Y-92199000D01*
X145564900Y-92701000D01*
X145564900Y-92701000D01*
G37*
G36*
X145564900Y-91901000D02*
G01*
X140462900Y-91901000D01*
X140462900Y-91399000D01*
X145564900Y-91399000D01*
X145564900Y-91901000D01*
X145564900Y-91901000D01*
G37*
G36*
X108197542Y-90249781D02*
G01*
X108321195Y-90301000D01*
X108343316Y-90310163D01*
X108474508Y-90397822D01*
X108586078Y-90509392D01*
X108673737Y-90640584D01*
X108673738Y-90640586D01*
X108734119Y-90786358D01*
X108764900Y-90941107D01*
X108764900Y-91098893D01*
X108734119Y-91253642D01*
X108728054Y-91268284D01*
X108673737Y-91399416D01*
X108586078Y-91530608D01*
X108474508Y-91642178D01*
X108343316Y-91729837D01*
X108343315Y-91729838D01*
X108343314Y-91729838D01*
X108197542Y-91790219D01*
X108042793Y-91821000D01*
X107885007Y-91821000D01*
X107730258Y-91790219D01*
X107584486Y-91729838D01*
X107584485Y-91729838D01*
X107584484Y-91729837D01*
X107453292Y-91642178D01*
X107341722Y-91530608D01*
X107254063Y-91399416D01*
X107199746Y-91268284D01*
X107193681Y-91253642D01*
X107162900Y-91098893D01*
X107162900Y-90941107D01*
X107193681Y-90786358D01*
X107254062Y-90640586D01*
X107254063Y-90640584D01*
X107341722Y-90509392D01*
X107453292Y-90397822D01*
X107584484Y-90310163D01*
X107606605Y-90301000D01*
X107730258Y-90249781D01*
X107885007Y-90219000D01*
X108042793Y-90219000D01*
X108197542Y-90249781D01*
X108197542Y-90249781D01*
G37*
G36*
X155705838Y-90531716D02*
G01*
X155726457Y-90537971D01*
X155745453Y-90548124D01*
X155762108Y-90561792D01*
X155775776Y-90578447D01*
X155785929Y-90597443D01*
X155792184Y-90618062D01*
X155794900Y-90645640D01*
X155794900Y-91154360D01*
X155792184Y-91181938D01*
X155785929Y-91202557D01*
X155775776Y-91221553D01*
X155762108Y-91238208D01*
X155745453Y-91251876D01*
X155726457Y-91262029D01*
X155705838Y-91268284D01*
X155678260Y-91271000D01*
X155219540Y-91271000D01*
X155191962Y-91268284D01*
X155171343Y-91262029D01*
X155152347Y-91251876D01*
X155135692Y-91238208D01*
X155122024Y-91221553D01*
X155111871Y-91202557D01*
X155105616Y-91181938D01*
X155102900Y-91154360D01*
X155102900Y-90645640D01*
X155105616Y-90618062D01*
X155111871Y-90597443D01*
X155122024Y-90578447D01*
X155135692Y-90561792D01*
X155152347Y-90548124D01*
X155171343Y-90537971D01*
X155191962Y-90531716D01*
X155219540Y-90529000D01*
X155678260Y-90529000D01*
X155705838Y-90531716D01*
X155705838Y-90531716D01*
G37*
G36*
X154735838Y-90531716D02*
G01*
X154756457Y-90537971D01*
X154775453Y-90548124D01*
X154792108Y-90561792D01*
X154805776Y-90578447D01*
X154815929Y-90597443D01*
X154822184Y-90618062D01*
X154824900Y-90645640D01*
X154824900Y-91154360D01*
X154822184Y-91181938D01*
X154815929Y-91202557D01*
X154805776Y-91221553D01*
X154792108Y-91238208D01*
X154775453Y-91251876D01*
X154756457Y-91262029D01*
X154735838Y-91268284D01*
X154708260Y-91271000D01*
X154249540Y-91271000D01*
X154221962Y-91268284D01*
X154201343Y-91262029D01*
X154182347Y-91251876D01*
X154165692Y-91238208D01*
X154152024Y-91221553D01*
X154141871Y-91202557D01*
X154135616Y-91181938D01*
X154132900Y-91154360D01*
X154132900Y-90645640D01*
X154135616Y-90618062D01*
X154141871Y-90597443D01*
X154152024Y-90578447D01*
X154165692Y-90561792D01*
X154182347Y-90548124D01*
X154201343Y-90537971D01*
X154221962Y-90531716D01*
X154249540Y-90529000D01*
X154708260Y-90529000D01*
X154735838Y-90531716D01*
X154735838Y-90531716D01*
G37*
G36*
X145564900Y-91101000D02*
G01*
X140462900Y-91101000D01*
X140462900Y-90599000D01*
X145564900Y-90599000D01*
X145564900Y-91101000D01*
X145564900Y-91101000D01*
G37*
G36*
X169414900Y-90400696D02*
G01*
X168012900Y-90400696D01*
X168012900Y-88748696D01*
X169414900Y-88748696D01*
X169414900Y-90400696D01*
X169414900Y-90400696D01*
G37*
G36*
X173914900Y-90400696D02*
G01*
X172512900Y-90400696D01*
X172512900Y-88748696D01*
X173914900Y-88748696D01*
X173914900Y-90400696D01*
X173914900Y-90400696D01*
G37*
G36*
X145564900Y-90301000D02*
G01*
X140462900Y-90301000D01*
X140462900Y-89799000D01*
X145564900Y-89799000D01*
X145564900Y-90301000D01*
X145564900Y-90301000D01*
G37*
G36*
X145564900Y-89501000D02*
G01*
X140462900Y-89501000D01*
X140462900Y-88999000D01*
X145564900Y-88999000D01*
X145564900Y-89501000D01*
X145564900Y-89501000D01*
G37*
G36*
X166893491Y-88053085D02*
G01*
X166927469Y-88063393D01*
X166958790Y-88080134D01*
X166986239Y-88102661D01*
X167008766Y-88130110D01*
X167025507Y-88161431D01*
X167035815Y-88195409D01*
X167039900Y-88236890D01*
X167039900Y-88838110D01*
X167035815Y-88879591D01*
X167025507Y-88913569D01*
X167008766Y-88944890D01*
X166986239Y-88972339D01*
X166958790Y-88994866D01*
X166927469Y-89011607D01*
X166893491Y-89021915D01*
X166852010Y-89026000D01*
X166175790Y-89026000D01*
X166134309Y-89021915D01*
X166100331Y-89011607D01*
X166069010Y-88994866D01*
X166041561Y-88972339D01*
X166019034Y-88944890D01*
X166002293Y-88913569D01*
X165991985Y-88879591D01*
X165987900Y-88838110D01*
X165987900Y-88236890D01*
X165991985Y-88195409D01*
X166002293Y-88161431D01*
X166019034Y-88130110D01*
X166041561Y-88102661D01*
X166069010Y-88080134D01*
X166100331Y-88063393D01*
X166134309Y-88053085D01*
X166175790Y-88049000D01*
X166852010Y-88049000D01*
X166893491Y-88053085D01*
X166893491Y-88053085D01*
G37*
G36*
X145564900Y-88701000D02*
G01*
X140462900Y-88701000D01*
X140462900Y-88199000D01*
X145564900Y-88199000D01*
X145564900Y-88701000D01*
X145564900Y-88701000D01*
G37*
G36*
X173914900Y-87701000D02*
G01*
X172512900Y-87701000D01*
X172512900Y-86049000D01*
X173914900Y-86049000D01*
X173914900Y-87701000D01*
X173914900Y-87701000D01*
G37*
G36*
X169414900Y-87701000D02*
G01*
X168012900Y-87701000D01*
X168012900Y-86049000D01*
X169414900Y-86049000D01*
X169414900Y-87701000D01*
X169414900Y-87701000D01*
G37*
G36*
X166893491Y-86478085D02*
G01*
X166927469Y-86488393D01*
X166958790Y-86505134D01*
X166986239Y-86527661D01*
X167008766Y-86555110D01*
X167025507Y-86586431D01*
X167035815Y-86620409D01*
X167039900Y-86661890D01*
X167039900Y-87263110D01*
X167035815Y-87304591D01*
X167025507Y-87338569D01*
X167008766Y-87369890D01*
X166986239Y-87397339D01*
X166958790Y-87419866D01*
X166927469Y-87436607D01*
X166893491Y-87446915D01*
X166852010Y-87451000D01*
X166175790Y-87451000D01*
X166134309Y-87446915D01*
X166100331Y-87436607D01*
X166069010Y-87419866D01*
X166041561Y-87397339D01*
X166019034Y-87369890D01*
X166002293Y-87338569D01*
X165991985Y-87304591D01*
X165987900Y-87263110D01*
X165987900Y-86661890D01*
X165991985Y-86620409D01*
X166002293Y-86586431D01*
X166019034Y-86555110D01*
X166041561Y-86527661D01*
X166069010Y-86505134D01*
X166100331Y-86488393D01*
X166134309Y-86478085D01*
X166175790Y-86474000D01*
X166852010Y-86474000D01*
X166893491Y-86478085D01*
X166893491Y-86478085D01*
G37*
G36*
X169414900Y-79751000D02*
G01*
X168012900Y-79751000D01*
X168012900Y-78099000D01*
X169414900Y-78099000D01*
X169414900Y-79751000D01*
X169414900Y-79751000D01*
G37*
G36*
X173914900Y-79751000D02*
G01*
X172512900Y-79751000D01*
X172512900Y-78099000D01*
X173914900Y-78099000D01*
X173914900Y-79751000D01*
X173914900Y-79751000D01*
G37*
G36*
X178855907Y-72533582D02*
G01*
X179143089Y-72652537D01*
X179256465Y-72699499D01*
X179616956Y-72940371D01*
X179923529Y-73246944D01*
X180164401Y-73607435D01*
X180164402Y-73607437D01*
X180330318Y-74007993D01*
X180414900Y-74433219D01*
X180414900Y-74866781D01*
X180330318Y-75292007D01*
X180164402Y-75692563D01*
X180164401Y-75692565D01*
X179923529Y-76053056D01*
X179616956Y-76359629D01*
X179256465Y-76600501D01*
X179256464Y-76600502D01*
X179256463Y-76600502D01*
X178855907Y-76766418D01*
X178430681Y-76851000D01*
X177997119Y-76851000D01*
X177571893Y-76766418D01*
X177171337Y-76600502D01*
X177171336Y-76600502D01*
X177171335Y-76600501D01*
X176810844Y-76359629D01*
X176504271Y-76053056D01*
X176263399Y-75692565D01*
X176263398Y-75692563D01*
X176097482Y-75292007D01*
X176012900Y-74866781D01*
X176012900Y-74433219D01*
X176097482Y-74007993D01*
X176263398Y-73607437D01*
X176263399Y-73607435D01*
X176504271Y-73246944D01*
X176810844Y-72940371D01*
X177171335Y-72699499D01*
X177284711Y-72652537D01*
X177571893Y-72533582D01*
X177997119Y-72449000D01*
X178430681Y-72449000D01*
X178855907Y-72533582D01*
X178855907Y-72533582D01*
G37*
G36*
X106855907Y-72533582D02*
G01*
X107143089Y-72652537D01*
X107256465Y-72699499D01*
X107616956Y-72940371D01*
X107923529Y-73246944D01*
X108164401Y-73607435D01*
X108164402Y-73607437D01*
X108330318Y-74007993D01*
X108414900Y-74433219D01*
X108414900Y-74866781D01*
X108330318Y-75292007D01*
X108164402Y-75692563D01*
X108164401Y-75692565D01*
X107923529Y-76053056D01*
X107616956Y-76359629D01*
X107256465Y-76600501D01*
X107256464Y-76600502D01*
X107256463Y-76600502D01*
X106855907Y-76766418D01*
X106430681Y-76851000D01*
X105997119Y-76851000D01*
X105571893Y-76766418D01*
X105171337Y-76600502D01*
X105171336Y-76600502D01*
X105171335Y-76600501D01*
X104810844Y-76359629D01*
X104504271Y-76053056D01*
X104263399Y-75692565D01*
X104263398Y-75692563D01*
X104097482Y-75292007D01*
X104012900Y-74866781D01*
X104012900Y-74433219D01*
X104097482Y-74007993D01*
X104263398Y-73607437D01*
X104263399Y-73607435D01*
X104504271Y-73246944D01*
X104810844Y-72940371D01*
X105171335Y-72699499D01*
X105284711Y-72652537D01*
X105571893Y-72533582D01*
X105997119Y-72449000D01*
X106430681Y-72449000D01*
X106855907Y-72533582D01*
X106855907Y-72533582D01*
G37*
G36*
X141115000Y-75051000D02*
G01*
X139313000Y-75051000D01*
X139313000Y-73249000D01*
X141115000Y-73249000D01*
X141115000Y-75051000D01*
X141115000Y-75051000D01*
G37*
G36*
X129784442Y-72646018D02*
G01*
X129850627Y-72652537D01*
X130020466Y-72704057D01*
X130176991Y-72787722D01*
X130212729Y-72817052D01*
X130314186Y-72900314D01*
X130397448Y-73001771D01*
X130426778Y-73037509D01*
X130510443Y-73194034D01*
X130561963Y-73363873D01*
X130579359Y-73540500D01*
X130561963Y-73717127D01*
X130510443Y-73886966D01*
X130426778Y-74043491D01*
X130397448Y-74079229D01*
X130314186Y-74180686D01*
X130212729Y-74263948D01*
X130176991Y-74293278D01*
X130020466Y-74376943D01*
X129850627Y-74428463D01*
X129784443Y-74434981D01*
X129718260Y-74441500D01*
X129629740Y-74441500D01*
X129563557Y-74434981D01*
X129497373Y-74428463D01*
X129327534Y-74376943D01*
X129171009Y-74293278D01*
X129135271Y-74263948D01*
X129033814Y-74180686D01*
X128950552Y-74079229D01*
X128921222Y-74043491D01*
X128837557Y-73886966D01*
X128786037Y-73717127D01*
X128768641Y-73540500D01*
X128786037Y-73363873D01*
X128837557Y-73194034D01*
X128921222Y-73037509D01*
X128950552Y-73001771D01*
X129033814Y-72900314D01*
X129135271Y-72817052D01*
X129171009Y-72787722D01*
X129327534Y-72704057D01*
X129497373Y-72652537D01*
X129563558Y-72646018D01*
X129629740Y-72639500D01*
X129718260Y-72639500D01*
X129784442Y-72646018D01*
X129784442Y-72646018D01*
G37*
G36*
X133115000Y-74441500D02*
G01*
X131313000Y-74441500D01*
X131313000Y-72639500D01*
X133115000Y-72639500D01*
X133115000Y-74441500D01*
X133115000Y-74441500D01*
G37*
G36*
X122164442Y-72646018D02*
G01*
X122230627Y-72652537D01*
X122400466Y-72704057D01*
X122556991Y-72787722D01*
X122592729Y-72817052D01*
X122694186Y-72900314D01*
X122777448Y-73001771D01*
X122806778Y-73037509D01*
X122890443Y-73194034D01*
X122941963Y-73363873D01*
X122959359Y-73540500D01*
X122941963Y-73717127D01*
X122890443Y-73886966D01*
X122806778Y-74043491D01*
X122777448Y-74079229D01*
X122694186Y-74180686D01*
X122592729Y-74263948D01*
X122556991Y-74293278D01*
X122400466Y-74376943D01*
X122230627Y-74428463D01*
X122164443Y-74434981D01*
X122098260Y-74441500D01*
X122009740Y-74441500D01*
X121943557Y-74434981D01*
X121877373Y-74428463D01*
X121707534Y-74376943D01*
X121551009Y-74293278D01*
X121515271Y-74263948D01*
X121413814Y-74180686D01*
X121330552Y-74079229D01*
X121301222Y-74043491D01*
X121217557Y-73886966D01*
X121166037Y-73717127D01*
X121148641Y-73540500D01*
X121166037Y-73363873D01*
X121217557Y-73194034D01*
X121301222Y-73037509D01*
X121330552Y-73001771D01*
X121413814Y-72900314D01*
X121515271Y-72817052D01*
X121551009Y-72787722D01*
X121707534Y-72704057D01*
X121877373Y-72652537D01*
X121943558Y-72646018D01*
X122009740Y-72639500D01*
X122098260Y-72639500D01*
X122164442Y-72646018D01*
X122164442Y-72646018D01*
G37*
G36*
X124704442Y-72646018D02*
G01*
X124770627Y-72652537D01*
X124940466Y-72704057D01*
X125096991Y-72787722D01*
X125132729Y-72817052D01*
X125234186Y-72900314D01*
X125317448Y-73001771D01*
X125346778Y-73037509D01*
X125430443Y-73194034D01*
X125481963Y-73363873D01*
X125499359Y-73540500D01*
X125481963Y-73717127D01*
X125430443Y-73886966D01*
X125346778Y-74043491D01*
X125317448Y-74079229D01*
X125234186Y-74180686D01*
X125132729Y-74263948D01*
X125096991Y-74293278D01*
X124940466Y-74376943D01*
X124770627Y-74428463D01*
X124704443Y-74434981D01*
X124638260Y-74441500D01*
X124549740Y-74441500D01*
X124483557Y-74434981D01*
X124417373Y-74428463D01*
X124247534Y-74376943D01*
X124091009Y-74293278D01*
X124055271Y-74263948D01*
X123953814Y-74180686D01*
X123870552Y-74079229D01*
X123841222Y-74043491D01*
X123757557Y-73886966D01*
X123706037Y-73717127D01*
X123688641Y-73540500D01*
X123706037Y-73363873D01*
X123757557Y-73194034D01*
X123841222Y-73037509D01*
X123870552Y-73001771D01*
X123953814Y-72900314D01*
X124055271Y-72817052D01*
X124091009Y-72787722D01*
X124247534Y-72704057D01*
X124417373Y-72652537D01*
X124483558Y-72646018D01*
X124549740Y-72639500D01*
X124638260Y-72639500D01*
X124704442Y-72646018D01*
X124704442Y-72646018D01*
G37*
G36*
X127244442Y-72646018D02*
G01*
X127310627Y-72652537D01*
X127480466Y-72704057D01*
X127636991Y-72787722D01*
X127672729Y-72817052D01*
X127774186Y-72900314D01*
X127857448Y-73001771D01*
X127886778Y-73037509D01*
X127970443Y-73194034D01*
X128021963Y-73363873D01*
X128039359Y-73540500D01*
X128021963Y-73717127D01*
X127970443Y-73886966D01*
X127886778Y-74043491D01*
X127857448Y-74079229D01*
X127774186Y-74180686D01*
X127672729Y-74263948D01*
X127636991Y-74293278D01*
X127480466Y-74376943D01*
X127310627Y-74428463D01*
X127244443Y-74434981D01*
X127178260Y-74441500D01*
X127089740Y-74441500D01*
X127023557Y-74434981D01*
X126957373Y-74428463D01*
X126787534Y-74376943D01*
X126631009Y-74293278D01*
X126595271Y-74263948D01*
X126493814Y-74180686D01*
X126410552Y-74079229D01*
X126381222Y-74043491D01*
X126297557Y-73886966D01*
X126246037Y-73717127D01*
X126228641Y-73540500D01*
X126246037Y-73363873D01*
X126297557Y-73194034D01*
X126381222Y-73037509D01*
X126410552Y-73001771D01*
X126493814Y-72900314D01*
X126595271Y-72817052D01*
X126631009Y-72787722D01*
X126787534Y-72704057D01*
X126957373Y-72652537D01*
X127023558Y-72646018D01*
X127089740Y-72639500D01*
X127178260Y-72639500D01*
X127244442Y-72646018D01*
X127244442Y-72646018D01*
G37*
G36*
X140324443Y-70715519D02*
G01*
X140390627Y-70722037D01*
X140560466Y-70773557D01*
X140716991Y-70857222D01*
X140752729Y-70886552D01*
X140854186Y-70969814D01*
X140937448Y-71071271D01*
X140966778Y-71107009D01*
X141050443Y-71263534D01*
X141101963Y-71433373D01*
X141119359Y-71610000D01*
X141101963Y-71786627D01*
X141050443Y-71956466D01*
X140966778Y-72112991D01*
X140937448Y-72148729D01*
X140854186Y-72250186D01*
X140752729Y-72333448D01*
X140716991Y-72362778D01*
X140560466Y-72446443D01*
X140390627Y-72497963D01*
X140324442Y-72504482D01*
X140258260Y-72511000D01*
X140169740Y-72511000D01*
X140103558Y-72504482D01*
X140037373Y-72497963D01*
X139867534Y-72446443D01*
X139711009Y-72362778D01*
X139675271Y-72333448D01*
X139573814Y-72250186D01*
X139490552Y-72148729D01*
X139461222Y-72112991D01*
X139377557Y-71956466D01*
X139326037Y-71786627D01*
X139308641Y-71610000D01*
X139326037Y-71433373D01*
X139377557Y-71263534D01*
X139461222Y-71107009D01*
X139490552Y-71071271D01*
X139573814Y-70969814D01*
X139675271Y-70886552D01*
X139711009Y-70857222D01*
X139867534Y-70773557D01*
X140037373Y-70722037D01*
X140103557Y-70715519D01*
X140169740Y-70709000D01*
X140258260Y-70709000D01*
X140324443Y-70715519D01*
X140324443Y-70715519D01*
G37*
G36*
X132324443Y-70106019D02*
G01*
X132390627Y-70112537D01*
X132560466Y-70164057D01*
X132716991Y-70247722D01*
X132752729Y-70277052D01*
X132854186Y-70360314D01*
X132937448Y-70461771D01*
X132966778Y-70497509D01*
X133050443Y-70654034D01*
X133101963Y-70823873D01*
X133119359Y-71000500D01*
X133101963Y-71177127D01*
X133050443Y-71346966D01*
X132966778Y-71503491D01*
X132937448Y-71539229D01*
X132854186Y-71640686D01*
X132752729Y-71723948D01*
X132716991Y-71753278D01*
X132560466Y-71836943D01*
X132390627Y-71888463D01*
X132324442Y-71894982D01*
X132258260Y-71901500D01*
X132169740Y-71901500D01*
X132103558Y-71894982D01*
X132037373Y-71888463D01*
X131867534Y-71836943D01*
X131711009Y-71753278D01*
X131675271Y-71723948D01*
X131573814Y-71640686D01*
X131490552Y-71539229D01*
X131461222Y-71503491D01*
X131377557Y-71346966D01*
X131326037Y-71177127D01*
X131308641Y-71000500D01*
X131326037Y-70823873D01*
X131377557Y-70654034D01*
X131461222Y-70497509D01*
X131490552Y-70461771D01*
X131573814Y-70360314D01*
X131675271Y-70277052D01*
X131711009Y-70247722D01*
X131867534Y-70164057D01*
X132037373Y-70112537D01*
X132103557Y-70106019D01*
X132169740Y-70099500D01*
X132258260Y-70099500D01*
X132324443Y-70106019D01*
X132324443Y-70106019D01*
G37*
G36*
X122164443Y-70106019D02*
G01*
X122230627Y-70112537D01*
X122400466Y-70164057D01*
X122556991Y-70247722D01*
X122592729Y-70277052D01*
X122694186Y-70360314D01*
X122777448Y-70461771D01*
X122806778Y-70497509D01*
X122890443Y-70654034D01*
X122941963Y-70823873D01*
X122959359Y-71000500D01*
X122941963Y-71177127D01*
X122890443Y-71346966D01*
X122806778Y-71503491D01*
X122777448Y-71539229D01*
X122694186Y-71640686D01*
X122592729Y-71723948D01*
X122556991Y-71753278D01*
X122400466Y-71836943D01*
X122230627Y-71888463D01*
X122164442Y-71894982D01*
X122098260Y-71901500D01*
X122009740Y-71901500D01*
X121943558Y-71894982D01*
X121877373Y-71888463D01*
X121707534Y-71836943D01*
X121551009Y-71753278D01*
X121515271Y-71723948D01*
X121413814Y-71640686D01*
X121330552Y-71539229D01*
X121301222Y-71503491D01*
X121217557Y-71346966D01*
X121166037Y-71177127D01*
X121148641Y-71000500D01*
X121166037Y-70823873D01*
X121217557Y-70654034D01*
X121301222Y-70497509D01*
X121330552Y-70461771D01*
X121413814Y-70360314D01*
X121515271Y-70277052D01*
X121551009Y-70247722D01*
X121707534Y-70164057D01*
X121877373Y-70112537D01*
X121943557Y-70106019D01*
X122009740Y-70099500D01*
X122098260Y-70099500D01*
X122164443Y-70106019D01*
X122164443Y-70106019D01*
G37*
G36*
X124704443Y-70106019D02*
G01*
X124770627Y-70112537D01*
X124940466Y-70164057D01*
X125096991Y-70247722D01*
X125132729Y-70277052D01*
X125234186Y-70360314D01*
X125317448Y-70461771D01*
X125346778Y-70497509D01*
X125430443Y-70654034D01*
X125481963Y-70823873D01*
X125499359Y-71000500D01*
X125481963Y-71177127D01*
X125430443Y-71346966D01*
X125346778Y-71503491D01*
X125317448Y-71539229D01*
X125234186Y-71640686D01*
X125132729Y-71723948D01*
X125096991Y-71753278D01*
X124940466Y-71836943D01*
X124770627Y-71888463D01*
X124704442Y-71894982D01*
X124638260Y-71901500D01*
X124549740Y-71901500D01*
X124483558Y-71894982D01*
X124417373Y-71888463D01*
X124247534Y-71836943D01*
X124091009Y-71753278D01*
X124055271Y-71723948D01*
X123953814Y-71640686D01*
X123870552Y-71539229D01*
X123841222Y-71503491D01*
X123757557Y-71346966D01*
X123706037Y-71177127D01*
X123688641Y-71000500D01*
X123706037Y-70823873D01*
X123757557Y-70654034D01*
X123841222Y-70497509D01*
X123870552Y-70461771D01*
X123953814Y-70360314D01*
X124055271Y-70277052D01*
X124091009Y-70247722D01*
X124247534Y-70164057D01*
X124417373Y-70112537D01*
X124483557Y-70106019D01*
X124549740Y-70099500D01*
X124638260Y-70099500D01*
X124704443Y-70106019D01*
X124704443Y-70106019D01*
G37*
G36*
X129784443Y-70106019D02*
G01*
X129850627Y-70112537D01*
X130020466Y-70164057D01*
X130176991Y-70247722D01*
X130212729Y-70277052D01*
X130314186Y-70360314D01*
X130397448Y-70461771D01*
X130426778Y-70497509D01*
X130510443Y-70654034D01*
X130561963Y-70823873D01*
X130579359Y-71000500D01*
X130561963Y-71177127D01*
X130510443Y-71346966D01*
X130426778Y-71503491D01*
X130397448Y-71539229D01*
X130314186Y-71640686D01*
X130212729Y-71723948D01*
X130176991Y-71753278D01*
X130020466Y-71836943D01*
X129850627Y-71888463D01*
X129784442Y-71894982D01*
X129718260Y-71901500D01*
X129629740Y-71901500D01*
X129563558Y-71894982D01*
X129497373Y-71888463D01*
X129327534Y-71836943D01*
X129171009Y-71753278D01*
X129135271Y-71723948D01*
X129033814Y-71640686D01*
X128950552Y-71539229D01*
X128921222Y-71503491D01*
X128837557Y-71346966D01*
X128786037Y-71177127D01*
X128768641Y-71000500D01*
X128786037Y-70823873D01*
X128837557Y-70654034D01*
X128921222Y-70497509D01*
X128950552Y-70461771D01*
X129033814Y-70360314D01*
X129135271Y-70277052D01*
X129171009Y-70247722D01*
X129327534Y-70164057D01*
X129497373Y-70112537D01*
X129563557Y-70106019D01*
X129629740Y-70099500D01*
X129718260Y-70099500D01*
X129784443Y-70106019D01*
X129784443Y-70106019D01*
G37*
G36*
X127244443Y-70106019D02*
G01*
X127310627Y-70112537D01*
X127480466Y-70164057D01*
X127636991Y-70247722D01*
X127672729Y-70277052D01*
X127774186Y-70360314D01*
X127857448Y-70461771D01*
X127886778Y-70497509D01*
X127970443Y-70654034D01*
X128021963Y-70823873D01*
X128039359Y-71000500D01*
X128021963Y-71177127D01*
X127970443Y-71346966D01*
X127886778Y-71503491D01*
X127857448Y-71539229D01*
X127774186Y-71640686D01*
X127672729Y-71723948D01*
X127636991Y-71753278D01*
X127480466Y-71836943D01*
X127310627Y-71888463D01*
X127244442Y-71894982D01*
X127178260Y-71901500D01*
X127089740Y-71901500D01*
X127023558Y-71894982D01*
X126957373Y-71888463D01*
X126787534Y-71836943D01*
X126631009Y-71753278D01*
X126595271Y-71723948D01*
X126493814Y-71640686D01*
X126410552Y-71539229D01*
X126381222Y-71503491D01*
X126297557Y-71346966D01*
X126246037Y-71177127D01*
X126228641Y-71000500D01*
X126246037Y-70823873D01*
X126297557Y-70654034D01*
X126381222Y-70497509D01*
X126410552Y-70461771D01*
X126493814Y-70360314D01*
X126595271Y-70277052D01*
X126631009Y-70247722D01*
X126787534Y-70164057D01*
X126957373Y-70112537D01*
X127023557Y-70106019D01*
X127089740Y-70099500D01*
X127178260Y-70099500D01*
X127244443Y-70106019D01*
X127244443Y-70106019D01*
G37*
M02*
