M48
; DRILL file {KiCad (5.1.4)-1} date 29/03/2020 9:51:53 AM
; FORMAT={-:-/ absolute / inch / decimal}
; #@! TF.CreationDate,2020-03-29T09:51:53+13:00
; #@! TF.GenerationSoftware,Kicad,Pcbnew,(5.1.4)-1
FMAT,2
INCH
T1C0.0079
T2C0.0157
T3C0.0236
T4C0.0315
T5C0.0394
T6C0.0787
T7C0.1693
%
G90
G05
T1
X5.3509Y-3.1791
X5.3509Y-3.2303
X5.3942Y-3.1791
X5.3942Y-3.2303
T2
X4.41Y-3.5965
X4.429Y-3.8678
X4.489Y-3.1853
X4.554Y-3.2653
X4.5832Y-4.1594
X4.5832Y-4.2618
X4.6265Y-3.6398
X4.6541Y-3.4553
X4.6738Y-3.9429
X4.7415Y-3.4378
X4.779Y-3.2078
X4.7958Y-3.4547
X4.8194Y-3.7972
X4.8313Y-3.185
X4.8588Y-4.0374
X4.8628Y-3.5138
X4.8785Y-3.9075
X4.9336Y-3.4311
X4.9336Y-3.8366
X4.9966Y-3.7657
X5.234Y-3.8378
X5.2915Y-3.7603
X5.339Y-3.6153
X5.4572Y-3.6713
X5.4572Y-3.7343
X5.4848Y-3.6398
X5.4848Y-3.7028
X5.4848Y-3.8287
X6.2289Y-3.8327
X6.2998Y-3.7618
X6.339Y-4.2028
X6.5045Y-3.4232
X6.6541Y-3.9035
X6.6974Y-3.5256
T3
X4.8017Y-3.1063
X6.0818Y-3.7258
T4
X3.7415Y-3.0703
X3.749Y-4.3003
X4.134Y-4.6703
X4.144Y-2.6603
X4.179Y-3.4178
X4.5832Y-2.9272
X4.6715Y-2.9178
X4.6715Y-3.1278
X4.699Y-3.7378
X4.769Y-3.6078
X4.969Y-3.1478
X5.099Y-3.5578
X5.3391Y-2.7697
X5.3509Y-3.0689
X5.3706Y-3.7972
X5.469Y-3.9178
X5.659Y-3.0478
X5.7715Y-3.5128
X5.7715Y-3.6203
X5.779Y-4.2178
X5.899Y-3.3678
X6.009Y-3.4978
X6.159Y-3.9378
X6.169Y-2.7878
X6.5357Y-4.061
X6.719Y-3.2778
X6.7486Y-3.1043
X6.7565Y-3.9429
X7.0565Y-2.6603
X7.4615Y-4.2928
X4.2505Y-3.5835
X4.2505Y-3.7756
T5
X5.5202Y-2.8193
X5.5202Y-2.9193
X4.8053Y-2.7953
X4.8053Y-2.8953
X4.9053Y-2.7953
X4.9053Y-2.8953
X5.0053Y-2.7953
X5.0053Y-2.8953
X5.1053Y-2.7953
X5.1053Y-2.8953
X5.2053Y-2.7953
X5.2053Y-2.8953
T6
X4.809Y-4.4613
X4.809Y-4.6384
T7
X4.1816Y-4.435
X4.1816Y-2.939
X7.0163Y-2.939
X7.0163Y-4.435
T0
M30
